<svg xmlns="http://www.w3.org/2000/svg" enable-background="new 0 0 6000 4000" viewBox="0 0 6000 4000"><rect width="4793.946" height="4000" x="1206.054" fill="#dbd4d1" class="colordbd4d1 svgShape"/><polygon fill="#d4cdca" points="2305.771 393.705 2047.964 373.72 2047.964 299.775 2305.771 319.76" class="colord4cdca svgShape"/><polygon fill="#d4cdca" points="2421.684 497.627 2163.877 477.642 2163.877 403.697 2421.684 423.682" class="colord4cdca svgShape"/><polygon fill="#d4cdca" points="5653.967 1575.301 5344.832 1551.337 5344.832 1462.67 5653.967 1486.634" class="colord4cdca svgShape"/><polygon fill="#d4cdca" points="5792.958 1699.914 5483.823 1675.95 5483.823 1587.283 5792.958 1611.247" class="colord4cdca svgShape"/><polygon fill="#d4cdca" points="5299.02 2879.134 4989.884 2829.725 4989.884 2741.058 5299.02 2790.468" class="colord4cdca svgShape"/><polygon fill="#d4cdca" points="5626.773 2931.095 5317.638 2881.686 5317.638 2793.019 5626.773 2842.428" class="colord4cdca svgShape"/><polygon fill="#d4cdca" points="5457.996 3011.075 5148.86 2961.665 5148.86 2872.999 5457.996 2922.408" class="colord4cdca svgShape"/><g fill="#000000" class="color000 svgShape"><polygon fill="#d4cdca" points="2215.339 1846.212 1957.532 1816.638 1957.532 1742.693 2215.339 1772.268" class="colord4cdca svgShape"/><polygon fill="#d4cdca" points="2502.124 1877.692 2244.317 1849.71 2244.317 1775.765 2502.124 1803.748" class="colord4cdca svgShape"/><polygon fill="#d4cdca" points="2356.233 1950.134 2098.426 1920.56 2098.426 1846.615 2356.233 1876.19" class="colord4cdca svgShape"/></g><g fill="#000000" class="color000 svgShape"><polygon fill="#d4cdca" points="5418.144 2408.194 5109.008 2366.726 5109.008 2278.059 5418.144 2319.527" class="colord4cdca svgShape"/><polygon fill="#d4cdca" points="5438.129 359.73 5128.994 344.242 5128.994 255.576 5438.129 271.063" class="colord4cdca svgShape"/><polygon fill="#d4cdca" points="2285.786 1133.15 2027.979 1113.165 2027.979 1039.221 2285.786 1059.206" class="colord4cdca svgShape"/><polygon fill="#d4cdca" points="2783.313 2560.08 2525.506 2515.832 2525.506 2441.888 2783.313 2486.135" class="colord4cdca svgShape"/><polygon fill="#d4cdca" points="2604.547 874.344 2346.74 854.359 2346.74 780.415 2604.547 800.4" class="colord4cdca svgShape"/><polygon fill="#d4cdca" points="6000 3262.06 5841.245 3236.686 5841.245 3325.353 6000 3350.727" class="colord4cdca svgShape"/><polygon fill="#d4cdca" points="6000 557.152 5804.487 547.357 5804.487 636.023 6000 645.819" class="colord4cdca svgShape"/></g><g fill="#000000" class="color000 svgShape"><polygon fill="#ffffff" points="5301.024 2585.437 2467.425 2114.972 2467.425 2.998 5301.024 2.998" class="colorfff svgShape"/><polygon fill="#e8f5fc" points="5225.317 2498.914 2543.132 2053.59 2543.132 2.998 5225.317 2.998" class="colore8f5fc svgShape"/><polygon fill="#bad5e5" points="2543.132 2053.59 3027.115 2133.946 3027.115 500.794 2543.132 481.085" class="colorbad5e5 svgShape"/><polygon fill="#bad5e5" points="2662.1 2073.342 3146.083 2153.698 3146.083 852.29 2662.1 832.581" class="colorbad5e5 svgShape"/><polygon fill="#bad5e5" points="5225.317 2498.914 5225.317 401.539 4700.777 379.123 4700.777 2411.824" class="colorbad5e5 svgShape"/><polygon fill="#bad5e5" points="4614.277 2397.463 4808.99 2429.791 4808.99 764.291 4614.277 745.972" class="colorbad5e5 svgShape"/><polygon fill="#cbe2ef" points="2937.887 2119.131 4760.261 2421.701 4760.261 1411.98 2937.887 1208.463" class="colorcbe2ef svgShape"/><polygon fill="#cbe2ef" points="3550.823 2220.897 4034.806 2301.253 4034.806 1272.71 3550.823 1223.751" class="colorcbe2ef svgShape"/><polygon fill="#cbe2ef" points="3994.337 830.718 3994.337 2294.534 4478.32 2374.89 4478.32 879.677 4253.083 483.038" class="colorcbe2ef svgShape"/><polygon fill="#cbe2ef" points="3392.167 2194.555 3876.15 2274.911 3876.15 1164.536 3392.167 1115.577" class="colorcbe2ef svgShape"/><polygon fill="#cbe2ef" points="4661.152 1683.772 4444.804 1683.772 4444.804 998.669 4661.152 1022.106" class="colorcbe2ef svgShape"/><polygon fill="#ffffff" points="5267.05 1898.576 2522.414 1524.504 2522.414 1470.203 5267.05 1834.624" class="colorfff svgShape"/><polygon fill="#ffffff" points="5267.05 982.333 2513.727 695.531 2513.727 641.23 5267.05 918.381" class="colorfff svgShape"/><rect width="63.952" height="2300.275" x="3730.202" fill="#ffffff" class="colorfff svgShape"/><rect width="63.952" height="2202.348" x="3094.679" fill="#ffffff" class="colorfff svgShape"/><rect width="63.952" height="2414.189" x="4485.636" fill="#ffffff" class="colorfff svgShape"/></g><rect width="1928.838" height="4000" fill="#d4cdca" class="colord4cdca svgShape"/><g fill="#000000" class="color000 svgShape"><polygon fill="#c6b6b3" points="1886.355 2209.342 1886.355 2840.767 0 3377.202 0 2660.714" class="colorc6b6b3 svgShape"/><polygon fill="#ccc0bc" points="0 2232.13 1385.795 1973.784 1977.961 2147.181 1977.961 2235.515 0 2749.049" class="colorccc0bc svgShape"/><polygon fill="#c6b6b3" points="0 2143.99 1385.795 1885.45 1977.961 2147.181 0 2660.714" class="colorc6b6b3 svgShape"/><g fill="#000000" class="color000 svgShape"><polygon fill="#baa7a4" points="930.594 2613.287 60.955 2859.041 60.955 3084.806 930.594 2819.526" class="colorbaa7a4 svgShape"/><path fill="#af9a98" d="M60.956,3090.4c-1.185,0-2.354-0.377-3.329-1.099c-1.424-1.055-2.265-2.723-2.265-4.495         V2859.04c0-2.503,1.664-4.702,4.072-5.383l869.638-245.753c1.686-0.474,3.498-0.136,4.896,0.922s2.219,2.709,2.219,4.461         v206.238c0,2.461-1.608,4.632-3.961,5.35l-869.638,265.28C62.052,3090.319,61.503,3090.4,60.956,3090.4z M66.549,2863.272         v213.98l858.452-261.868V2620.68L66.549,2863.272z" class="coloraf9a98 svgShape"/><g fill="#000000" class="color000 svgShape"><polygon fill="#baa7a4" points="989.489 2596.732 989.489 2802.971 1824.768 2556.87 1824.768 2369.752" class="colorbaa7a4 svgShape"/><path fill="#af9a98" d="M989.489,2808.564c-1.194,0-2.372-0.382-3.35-1.113c-1.412-1.057-2.244-2.716-2.244-4.479         v-206.239c0-2.524,1.691-4.735,4.126-5.397l835.279-226.979c1.68-0.456,3.479-0.104,4.864,0.954         c1.384,1.059,2.196,2.701,2.196,4.443v187.118c0,2.48-1.633,4.664-4.013,5.365l-835.279,246.101         C990.55,2808.49,990.018,2808.564,989.489,2808.564z M995.082,2601.008v194.484l824.093-242.805v-175.619L995.082,2601.008z" class="coloraf9a98 svgShape"/></g></g><g fill="#000000" class="color000 svgShape"><polygon fill="#bfafac" points="702.44 2356.72 519.476 2160.347 519.476 1675.004 702.44 1794.141" class="colorbfafac svgShape"/><polygon fill="#d1c6c3" points="1552.871 1576.945 519.476 1675.004 702.44 1794.141 1735.301 1684.064" class="colord1c6c3 svgShape"/><g fill="#000000" class="color000 svgShape"><polygon fill="#ccc0bc" points="702.44 2356.72 1735.301 2188.558 1735.301 1684.064 702.44 1794.141" class="colorccc0bc svgShape"/><path fill="#c6b6b3" d="M752.255,2299.882c-1.021-0.876-1.61-2.154-1.61-3.5v-428.631           c0-2.355,1.776-4.331,4.117-4.583l925.139-99.302c1.303-0.14,2.599,0.28,3.572,1.154c0.973,0.874,1.529,2.12,1.529,3.429           v384.636c0,2.273-1.657,4.207-3.904,4.555L755.96,2300.937c-0.235,0.036-0.471,0.054-0.705,0.054           C754.162,2300.991,753.096,2300.603,752.255,2299.882z M1675.785,1773.58l-915.921,98.312v419.112l915.921-141.868V1773.58           z" class="colorc6b6b3 svgShape"/><path fill="#b7a5a3" d="M519.476,1750.066c0.864-0.001,1.737,0.234,2.515,0.741l180.449,117.5          c0,0-0.003,9.136-0.004,9.136c-0.863,0-1.735,0.22-2.511-0.286l-180.449-116.987V1750.066z" class="colorb7a5a3 svgShape"/><polygon fill="#c6b6b3" points="759.985 2347.351 750.767 2348.852 750.767 1788.99 759.985 1788.008" class="colorc6b6b3 svgShape"/><polygon fill="#c6b6b3" points="1685.003 2196.747 1675.785 2198.248 1675.785 1690.407 1685.003 1689.425" class="colorc6b6b3 svgShape"/><path fill="#c6b6b3" d="M1679.919 1763.865l54.15-5.61c.421-.044.833-.025 1.232.042v9.084c-.094.016-.187.034-.282.044l-54.15 5.61c-.161.017-.322.025-.48.025-2.332 0-4.333-1.764-4.579-4.135C1675.547 1766.392 1677.387 1764.127 1679.919 1763.865zM702.44 1868.194l52.374-5.03c2.518-.247 4.784 1.613 5.028 4.147.244 2.534-1.613 4.786-4.148 5.029l-52.884 5.079c-.124.012-.247.016-.37.018V1868.194z" class="colorc6b6b3 svgShape"/><polygon fill="#c6b6b3" points="755.166 2024.874 1678.675 1911.169 1678.675 1878.487 755.166 1992.193" class="colorc6b6b3 svgShape"/><polygon fill="#c6b6b3" points="755.166 2175.712 1678.675 2049.863 1678.675 2020.952 755.166 2146.801" class="colorc6b6b3 svgShape"/><path fill="#c6b6b3" d="M1580.196 1845.072l54.088-5.685c4.908-.516 8.635-4.655 8.635-9.59v-90.669c0-5.725-4.958-10.189-10.651-9.59l-54.088 5.685c-4.909.516-8.635 4.655-8.635 9.59v90.669C1569.545 1841.206 1574.503 1845.67 1580.196 1845.072zM827.263 1925.519l54.088-5.685c4.909-.516 8.635-4.655 8.635-9.59v-90.669c0-5.724-4.958-10.189-10.651-9.59l-54.088 5.685c-4.908.516-8.635 4.655-8.635 9.59v90.669C816.612 1921.653 821.57 1926.117 827.263 1925.519zM1251.062 1873.826c19.121-2.01 33.638-18.132 33.638-37.359v-37.151c0-22.3-19.313-39.69-41.491-37.359-19.121 2.01-33.638 18.132-33.638 37.359v37.151C1209.571 1858.767 1228.884 1876.157 1251.062 1873.826z" class="colorc6b6b3 svgShape"/></g></g><g fill="#000000" class="color000 svgShape"><polygon fill="#ccc0bc" points="1724.699 772.319 158.816 943.857 158.816 880.053 1724.699 733.182" class="colorccc0bc svgShape"/><polygon fill="#d1c6c3" points="0 811.058 0 850.138 158.816 880.053 1724.699 733.182 1376.96 691.213" class="colord1c6c3 svgShape"/><polygon fill="#c6b6b3" points="0 911.314 158.816 943.857 158.816 880.053 0 850.138" class="colorc6b6b3 svgShape"/><g fill="#000000" class="color000 svgShape"><path fill="#c6b6b3" d="M217.328,612.819v206.429c0,13.633,76.22,24.685,170.242,24.685          c94.022,0,170.241-11.052,170.241-24.685V612.819H217.328z" class="colorc6b6b3 svgShape"/><ellipse cx="387.569" cy="612.819" fill="#d1c6c3" rx="170.242" ry="24.685" class="colord1c6c3 svgShape"/><g fill="#000000" class="color000 svgShape"><path fill="#c6b6b3" d="M729.994,573.699v203.313c0,9.751,54.515,17.656,121.764,17.656          c67.248,0,121.764-7.905,121.764-17.656V573.699H729.994z" class="colorc6b6b3 svgShape"/><ellipse cx="851.758" cy="573.699" fill="#d1c6c3" rx="121.764" ry="17.656" class="colord1c6c3 svgShape"/></g></g><g fill="#000000" class="color000 svgShape"><polygon fill="#ccc0bc" points="1724.699 358.923 158.816 508.184 158.816 444.379 1724.699 319.787" class="colorccc0bc svgShape"/><polygon fill="#d1c6c3" points="0 377.466 0 414.464 158.816 444.379 1724.699 319.787 1376.96 277.818" class="colord1c6c3 svgShape"/><polygon fill="#c6b6b3" points="0 475.641 158.816 508.184 158.816 444.379 0 414.464" class="colorc6b6b3 svgShape"/><g fill="#000000" class="color000 svgShape"><path fill="#c6b6b3" d="M421.195,156.97v203.313c0,9.751,54.515,17.656,121.764,17.656         c67.248,0,121.764-7.905,121.764-17.656V156.97H421.195z" class="colorc6b6b3 svgShape"/><ellipse cx="542.959" cy="156.97" fill="#d1c6c3" rx="121.764" ry="17.656" class="colord1c6c3 svgShape"/></g></g><g fill="#000000" class="color000 svgShape"><path fill="#ccc0bc" d="M287.782,1019.897c-32.03,0-57.995,25.965-57.995,57.995s25.965,57.995,57.995,57.995          c32.03,0,57.995-25.965,57.995-57.995S319.812,1019.897,287.782,1019.897z M287.782,1106.829          c-15.981,0-28.937-12.955-28.937-28.937c0-15.981,12.956-28.937,28.937-28.937c15.981,0,28.937,12.955,28.937,28.937          C316.719,1093.873,303.764,1106.829,287.782,1106.829z" class="colorccc0bc svgShape"/><rect width="64.042" height="466.691" x="255.761" y="1117.735" fill="#ccc0bc" class="colorccc0bc svgShape"/><path fill="#ccc0bc" d="M286.466,1518.841c-50.834,0.705-91.941,42.862-91.424,93.699          c0.213,20.97,7.389,40.27,19.322,55.705c2.271,2.937,6.98,0.885,6.33-2.771c-0.729-4.096-1.092-8.319-1.054-12.634          c0.328-36.856,30.361-67.028,67.215-67.518c38.059-0.505,69.07,30.195,69.07,68.138c0,4.074-0.358,8.063-1.044,11.94          c-0.652,3.685,4.028,5.804,6.317,2.843c12.116-15.671,19.327-35.327,19.327-56.668          C380.527,1559.917,338.29,1518.123,286.466,1518.841z" class="colorccc0bc svgShape"/><g fill="#000000" class="color000 svgShape"><path fill="#ccc0bc" d="M509.587,1010.189c-23.907,0-43.288,19.381-43.288,43.288s19.381,43.288,43.288,43.288          c23.907,0,43.288-19.381,43.288-43.288S533.495,1010.189,509.587,1010.189z M509.587,1075.076          c-11.928,0-21.598-9.67-21.598-21.599c0-11.929,9.67-21.599,21.598-21.599c11.929,0,21.599,9.67,21.599,21.599          C531.186,1065.406,521.516,1075.076,509.587,1075.076z" class="colorccc0bc svgShape"/><rect width="47.802" height="348.343" x="485.687" y="1083.216" fill="#ccc0bc" class="colorccc0bc svgShape"/><path fill="#ccc0bc" d="M508.605,1382.606c-37.943,0.526-68.626,31.993-68.239,69.938          c0.159,15.652,5.515,30.058,14.422,41.579c1.695,2.192,5.21,0.66,4.725-2.068c-0.544-3.057-0.815-6.209-0.787-9.43          c0.245-27.509,22.662-50.031,50.17-50.396c28.408-0.377,51.555,22.538,51.555,50.859c0,3.041-0.267,6.019-0.779,8.912          c-0.487,2.751,3.007,4.332,4.715,2.122c9.043-11.697,14.426-26.368,14.426-42.297          C578.813,1413.265,547.287,1382.069,508.605,1382.606z" class="colorccc0bc svgShape"/></g><g fill="#000000" class="color000 svgShape"><path fill="#ccc0bc" d="M710.794,1001.576c-20.545,0-37.201,16.656-37.201,37.201          c0,20.546,16.656,37.201,37.201,37.201c20.546,0,37.201-16.656,37.201-37.201          C747.995,1018.232,731.34,1001.576,710.794,1001.576z M710.794,1057.339c-10.251,0-18.561-8.31-18.561-18.562          c0-10.251,8.31-18.562,18.561-18.562c10.251,0,18.562,8.31,18.562,18.562          C729.355,1049.028,721.045,1057.339,710.794,1057.339z" class="colorccc0bc svgShape"/><rect width="41.08" height="299.362" x="690.254" y="1064.335" fill="#ccc0bc" class="colorccc0bc svgShape"/><path fill="#ccc0bc" d="M709.95,1321.627c-32.608,0.452-58.976,27.494-58.644,60.104          c0.137,13.451,4.74,25.832,12.395,35.733c1.457,1.884,4.478,0.567,4.06-1.777c-0.468-2.627-0.701-5.336-0.676-8.104          c0.211-23.641,19.475-42.996,43.116-43.31c24.413-0.324,44.306,19.369,44.306,43.708c0,2.613-0.23,5.172-0.669,7.659          c-0.418,2.364,2.584,3.723,4.052,1.824c7.772-10.052,12.397-22.66,12.397-36.35          C770.285,1347.975,743.193,1321.166,709.95,1321.627z" class="colorccc0bc svgShape"/></g><g fill="#000000" class="color000 svgShape"><polygon fill="#c6b6b3" points="1064.46 1470.313 1054.106 1494.549 1045.089 1494.549 1033.687 1470.313 1033.687 1130.268 1064.46 1130.268" class="colorc6b6b3 svgShape"/><path fill="#ccc0bc" d="M1075.745,1127.191h-53.342l-7.917-124.706c-1.267-19.965,14.583-36.854,34.588-36.854          s35.856,16.889,34.588,36.854L1075.745,1127.191z" class="colorccc0bc svgShape"/><path fill="#ccc0bc" d="M1078.592,1142.743h-59.037c-4.386,0-7.942-3.556-7.942-7.942v-11.81          c0-4.386,3.556-7.942,7.942-7.942h59.037c4.386,0,7.942,3.556,7.942,7.942v11.81          C1086.534,1139.188,1082.979,1142.743,1078.592,1142.743z" class="colorccc0bc svgShape"/><g fill="#000000" class="color000 svgShape"><polygon fill="#c6b6b3" points="1245.659 1447.319 1214.886 1454.252 1214.886 1103.073 1245.659 1103.073" class="colorc6b6b3 svgShape"/><path fill="#ccc0bc" d="M1256.944,1099.995h-53.342l-7.917-124.706c-1.268-19.965,14.583-36.854,34.588-36.854          c20.005,0,35.856,16.889,34.588,36.854L1256.944,1099.995z" class="colorccc0bc svgShape"/><path fill="#ccc0bc" d="M1260.636,1115.548h-60.726c-3.712,0-6.721-3.009-6.721-6.721v-14.251          c0-3.712,3.009-6.721,6.721-6.721h60.726c3.712,0,6.721,3.009,6.721,6.721v14.251          C1267.357,1112.539,1264.348,1115.548,1260.636,1115.548z" class="colorccc0bc svgShape"/></g></g></g></g></g><g fill="#000000" class="color000 svgShape"><path fill="#ffaa99" d="M4003.734,955.773c0,0,20.601,104.719,24.034,115.02s32.617,157.937,123.603,159.654        l65.235,243.773l-521.88,75.535l8.583-183.688c0,0,73.819-29.184,94.419-85.835        C3818.33,1223.58,3804.596,998.691,4003.734,955.773z" class="colorfa9 svgShape"/><path fill="#e57e73" d="M3988.009,1097.177c0,0,33.974,219.835-216.837,292.78l-14.989-43.967L3988.009,1097.177z" class="colore57e73 svgShape"/><path fill="#e57e73" d="M3699.7,1443.323l0.177-0.005c88.781,11.59,79.508-80.598,76.291-109.819         c-22.032,15.511-72.858,32.567-72.858,32.567L3699.7,1443.323z" class="colore57e73 svgShape"/><path fill="#ffaa99" d="M3332.501,1700.825c0,0-296.991,412.01-339.908,516.73s20.601,221.456,108.153,240.339         c87.552,18.884,218.022-20.601,334.759-173.388s168.948-327.676,185.405-417.161         C3648.375,1717.992,3473.271,1589.239,3332.501,1700.825z" class="colorfa9 svgShape"/><path fill="#de547c" d="M3541.939,1448.469c0,0-92.702,42.918-238.623,236.906          c-145.92,193.988-243.773,386.26-243.773,386.26s145.92,188.838,379.393,274.674c0,0,137.337-159.654,200.855-314.158          C3703.31,1877.646,3610.608,1511.987,3541.939,1448.469z" class="colorde547c svgShape"/><path fill="#d6436d" d="M3438.937,2346.308c0,0,137.337-159.654,200.855-314.158          c24.289-59.08,25.734-149.036,14.416-241.167c-42.297-57.041-95.809-99.711-161.827-102.25          c0,0-19.985,103.922-17.986,293.78c1.529,145.247-46.068,290.491-68.52,350.729          C3416.689,2337.813,3427.711,2342.181,3438.937,2346.308z" class="colord6436d svgShape"/><g fill="#000000" class="color000 svgShape"><path fill="#de547c" d="M3741.606,1355.053c0,0-46.88,2.43-163.616,65.948         c-116.736,63.518-90.986,187.121-94.419,274.674c-3.433,87.552,84.119,545.914,115.02,666.083         c30.901,120.17,100.669,665.458,110.969,758.161l1190.312,189.992c0,0-130.477-338.781-160.234-666.117         s-13.734-629.492-16.023-773.703s-25.18-503.593-233.484-572.265s-338.758-67.38-338.758-67.38         s-25.203,255.083-295.312,275.685C3803.411,1510.71,3718.716,1480.952,3741.606,1355.053z" class="colorde547c svgShape"/><path fill="#d6436d" d="M3854.381 1532.588c173.815 0 299.518-114.465 324.94-300.988-18.266-1.245-27.949-1.153-27.949-1.153s-25.203 255.083-295.312 275.685c-52.648 4.578-137.344-25.18-114.453-151.078 0 0-9.487.495-30.534 6.811C3707.971 1413.384 3715.769 1532.588 3854.381 1532.588zM4721.689 2108.633c.852-98.906 2.834-181.213 1.924-238.541-.095-5.976-.227-12.329-.404-19.009l-290.325-188.402C4432.885 1662.681 4537.949 1931.508 4721.689 2108.633z" class="colord6436d svgShape"/></g><g fill="#000000" class="color000 svgShape"><path fill="#ffaa99" d="M4588.559,1801.42c0,0,492.148,409.742,686.718,295.289         c43.492-22.891,93.852-132.766,2.289-244.93c-91.563-112.164-270.109-244.93-457.812-336.492         C4632.051,1423.725,4444.348,1673.233,4588.559,1801.42z" class="colorfa9 svgShape"/><path fill="#e57e73" d="M4967.587,2051.197l104.596-239.955c-106.282,16.781-230.93,95.355-287.313,134.125         C4841.02,1982.369,4904.242,2020.384,4967.587,2051.197z" class="colore57e73 svgShape"/><path fill="#de547c" d="M4462.661,1288.671c-28.123-1.687-43.147,6.742-57.459,31.01         c-33.566,56.918-75.314,175.604,13.967,339.818c128.188,235.773,363.961,338.781,363.961,338.781         s191.631-101.606,247.431-392.151C5030.561,1606.129,4806.02,1309.272,4462.661,1288.671z" class="colorde547c svgShape"/></g><g fill="#000000" class="color000 svgShape"><path fill="#222f56" d="M3711.073 1361.865c0 0-170.32 120.167-148.003 521.877l67.266-11.049C3630.336 1872.692 3604.856 1580.426 3711.073 1361.865zM4084.25 1196.079c0 0 90.618 6.352 139.223 154.537 48.052 146.5 89.269 461.795 89.269 461.795l-63.518 3.433c0 0-57.251-521.703-151.297-606.252C4093.854 1205.931 4088.684 1201.599 4084.25 1196.079z" class="color222f56 svgShape"/><path fill="#304072" d="M3505.442,1870.961c63.327-13.776,575.956-122.757,865.541-105.193        c10.894,0.661,20.096,8.301,22.703,18.899c29.286,119.075,203.586,805.408,352.278,897.455        c6.331,3.919,10.603,10.44,11.905,17.771c12.387,69.696,75.55,411.907,155.446,610.625l-13.443-0.605L3709.56,3119.919        l-20.602-2.289c0,0-64.094-496.726-89.273-668.406c-24.809-169.154-89.618-420.529-100.278-570.207        C3499.135,1875.202,3501.704,1871.774,3505.442,1870.961z" class="color304072 svgShape"/><path fill="#232d57" d="M4668.533,3022.506c-110.748,16.903-471.47,63.789-835.364,21.874        c0,0,5.229,49.676,8.771,96.669l919.344,146.742c-11.462-48.412-37.139-158.639-52.062-236.515        C4705.587,3032.305,4687.627,3019.592,4668.533,3022.506z" class="color232d57 svgShape"/></g><g fill="#000000" class="color000 svgShape"><path fill="#ffaa99" d="M3662.109,547.196c0,0-181.971,30.901-214.589,149.354      c-32.617,118.453-10.3,218.022,53.218,372.526c63.518,154.504,161.371,331.325,278.107,284.974      c116.736-46.351,221.425-127.184,230.039-408.577C4015.022,744.983,3936.783,511.145,3662.109,547.196z" class="colorfa9 svgShape"/><path fill="#1b1f3f" d="M3765.112,662.216c0,0-82.402,70.385-133.904,89.269c-51.501,18.884-72.102,25.751-97.852,37.768      c-25.751,12.017-82.402,39.484-140.77,34.334c-8.583-1.717-5.15-15.45,3.433-42.918c8.583-27.467,24.034-61.802,22.317-90.986      c-1.717-29.184,12.017-127.036,140.77-176.821c128.753-49.785,257.507,5.15,257.507,5.15s147.637-15.45,226.606,135.62      c25.751,58.368,39.484,144.204,30.901,209.439c-8.583,65.235-46.351,181.971-46.351,207.722c0,0-29.184-60.085-48.068-108.153      s-58.368-108.153-106.436-147.637S3780.562,765.218,3765.112,662.216z" class="color1b1f3f svgShape"/><polygon fill="#ffffff" points="3822.868 893.808 3943.044 841.159 3944.188 883.507 3836.603 963.624" class="colorfff svgShape"/><path fill="#e4e4ea" d="M3849.68 882.062l-26.812 11.746 13.734 69.816 26.029-19.383C3859.223 917.76 3852.675 892.715 3849.68 882.062zM3943.044 841.159l-36.846 16.142c-1.003 17.379-1.298 37.368.767 53.925l37.224-27.72L3943.044 841.159z" class="colore4e4ea svgShape"/><path fill="#ffffff" d="M3820.847,919.05c3.701,16.266,6.532,35.799,7.973,55c1.397,18.631,0.616,32.189-2.323,40.298       c-1.944,5.366-4.577,7.704-8.755,10.141c-15.56,9.077-46.46,20.658-82.657,30.981c-27.817,7.933-51.072,12.943-63.535,14.628       c-3.668,0.496-7.33-0.904-9.74-3.713l-0.035-0.041c-5.175-6.029-12.997-15.14-26.172-15.14c-3.224,0-6.479,0.589-9.676,1.751       c-15.058,5.475-17.294,19.54-18.368,26.299c-1.06,6.672-1.429,7.427-4.376,8.988c-9.054,4.793-27.383,13.276-44.896,20.215       c-12.81,5.075-22.75,8.371-29.973,10.321c-6.071,1.638-12.486-1.056-15.541-6.551c-5.202-9.355-12.858-25.191-22.868-50.006       c-7.194-17.835-13.031-33.883-16.908-45.342c-1.948-5.755,1.167-12.019,6.959-13.856c2.684-0.851,5.463-1.64,8.118-2.285       c0.175-0.042,0.35-0.087,0.524-0.135c78.861-21.715,160.285-48.917,225.71-70.773c28.842-9.635,53.752-17.957,72.959-23.958       c7.654-2.391,13.649-4.173,18.344-5.499c5.136-1.45,10.491,1.472,12.013,6.588       C3818.709,910.612,3819.91,914.932,3820.847,919.05z M3821.756,879.588c-22.287,0-187.243,63.216-337.669,104.638       c0,0-29.678,9.866-29.678,19.022c-0.483,22.339,41.123,129.767,57.147,134.345c1.171,0.334,2.602,0.492,4.249,0.492       c20.905,0,77.29-25.28,95.325-34.828c19.457-10.301,8.011-29.758,20.602-34.336c1.379-0.502,2.664-0.729,3.871-0.729       c9.807,0,14.551,14.964,24.743,19.041c0.823,0.329,2.173,0.487,3.984,0.487c23.382,0,123.732-26.25,161.972-48.557       c13.734-8.012,22.89-20.601,19.457-66.383c-3.434-45.781-13.734-85.84-21.746-92.707       C3823.631,879.746,3822.871,879.588,3821.756,879.588L3821.756,879.588z" class="colorfff svgShape"/><g fill="#000000" class="color000 svgShape"><path fill="#ffffff" d="M3940.153 909.918c-.453 4.036-.972 8.055-1.516 12.075-.578 4.013-1.177 8.025-1.822 12.03-1.276 8.012-2.669 16.01-4.183 23.992-1.562 7.97-3.24 15.924-5.045 23.857-1.876 7.915-3.886 15.806-6.04 23.67-2.178 7.857-4.355 15.736-6.768 23.569-2.447 7.82-5.452 15.484-9.027 22.903-3.552 7.425-7.686 14.621-12.355 21.459-4.703 6.802-9.985 13.308-16.308 18.683-.235.2-.588.172-.789-.064-.152-.179-.17-.429-.068-.625 3.792-7.265 7.196-14.475 10.384-21.785 3.179-7.305 6.21-14.638 9.063-22.069 2.852-7.426 5.831-14.802 8.866-22.203 3.045-7.396 6.008-14.86 8.599-22.463 2.591-7.603 5.049-15.263 7.382-22.969 2.369-7.697 4.617-15.44 6.755-23.219 4.386-15.532 8.248-31.235 11.786-47.015.068-.305.363-.492.659-.425C3940.002 909.381 3940.183 909.643 3940.153 909.918zM3992.806 970.543c-.654 11.006-1.539 21.989-2.573 32.963-1.019 10.975-2.151 21.943-3.395 32.903-1.292 10.953-2.723 21.893-4.271 32.824-1.592 10.923-3.354 21.827-5.272 32.714-3.878 21.742-7.419 43.729-14.572 64.864-1.713 5.293-3.654 10.531-5.674 15.73-1.064 2.586-2.112 5.174-3.206 7.742-1.154 2.554-2.346 5.088-3.547 7.612-1.235 2.513-2.542 5.002-3.861 7.469-.64 1.24-1.384 2.442-2.103 3.648l-2.165 3.607c-.71 1.203-1.537 2.352-2.339 3.506-.806 1.152-1.595 2.309-2.422 3.439-1.668 2.254-3.546 4.37-5.356 6.474-.199.231-.547.257-.779.058-.194-.168-.244-.441-.136-.661 4.882-9.939 8.592-20.124 11.995-30.443 3.353-10.328 6.246-20.816 9.06-31.324l8.467-31.591c2.9-10.537 5.66-21.144 8.014-31.849 2.386-10.698 4.62-21.44 6.69-32.219 2.134-10.769 4.154-21.567 6.039-32.393 3.891-21.635 7.25-43.381 10.312-65.173.043-.307.321-.516.622-.474C3992.619 970.006 3992.822 970.26 3992.806 970.543z" class="colorfff svgShape"/><path fill="#ffffff" d="M3543.676,1161.129c49.672-13.796,229.37-57.829,321.352-113.096       c5.426-3.26,12.449-1.569,15.729,3.845c15.364,25.358,53.073,103.739,54.705,188.167c0.18,9.303-3.026,18.358-9.056,25.445       c-31.95,37.553-144.498,153.419-261.482,78.118c-78.732-50.678-116.171-139.077-125.911-169.156       C3536.805,1167.635,3536.771,1163.047,3543.676,1161.129z" class="colorfff svgShape"/><path fill="#e4e4ea" d="M3880.756 1051.878c-3.28-5.413-10.303-7.104-15.728-3.845-91.982 55.267-271.68 99.3-321.352 113.096-6.904 1.918-6.871 6.506-4.663 13.323 1.686 5.205 4.202 12.159 7.617 20.36 59.587-12.475 266.313-59.699 341.998-128.784C3885.656 1060.305 3882.973 1055.536 3880.756 1051.878zM3598.967 1237.738c11.358-.147 22.599-.943 33.77-2.183 11.167-1.218 22.25-2.884 33.229-4.961 10.98-2.08 21.858-4.566 32.612-7.475l8.034-2.283c2.677-.764 5.317-1.648 7.977-2.465 2.667-.796 5.295-1.704 7.928-2.603 2.633-.897 5.278-1.761 7.867-2.777l7.824-2.897 7.731-3.137c2.604-.983 5.115-2.182 7.674-3.274 2.547-1.118 5.109-2.208 7.61-3.427l7.553-3.565 7.444-3.792 3.728-1.895 3.655-2.03 7.342-4.024c19.361-11.148 37.838-23.922 55.837-37.81-14.852 17.219-32.315 32.265-51.279 45.153-19.105 12.677-39.731 23.221-61.362 31.025-2.685 1.028-5.423 1.902-8.15 2.807-2.729.898-5.444 1.842-8.215 2.605-2.765.781-5.51 1.629-8.289 2.354l-8.35 2.116c-11.183 2.609-22.5 4.609-33.885 5.911-11.385 1.286-22.831 1.96-34.259 1.807C3621.577 1240.668 3610.137 1240.013 3598.967 1237.738zM3649.596 1304.355c10.275.221 20.426-.55 30.479-1.758 10.049-1.228 19.997-2.931 29.81-5.16 19.643-4.404 38.71-10.84 57.169-18.693 18.393-8.023 36.213-17.432 53.254-28.292 17.109-10.767 33.506-22.785 49.789-35.364-13.101 15.878-28.317 30.036-44.89 42.484-16.556 12.485-34.703 22.958-53.812 31.266-19.17 8.15-39.337 14.131-59.958 17.071-10.304 1.466-20.708 2.182-31.082 2.055-5.187-.088-10.366-.326-15.511-.926-2.572-.292-5.135-.637-7.684-1.046C3654.619 1305.516 3652.078 1305.056 3649.596 1304.355z" class="colore4e4ea svgShape"/></g><g fill="#000000" class="color000 svgShape"><path fill="#ffaa99" d="M3928.199,900.838c0,0-8.583-121.886,51.501-128.753c60.085-6.867,68.668,94.419,58.368,142.487       C4027.637,963.252,3952.233,1063.926,3928.199,900.838z" class="colorfa9 svgShape"/><path fill="#e57e73" d="M3979.697,929.37c-2.034,0-3.879-1.39-4.37-3.456c-0.739-3.102-17.575-76.152,26.828-92.804         c2.327-0.874,4.917,0.306,5.789,2.631s-0.306,4.917-2.631,5.79c-37.058,13.896-21.4,81.618-21.238,82.3         c0.575,2.416-0.917,4.841-3.332,5.416C3980.392,929.33,3980.042,929.37,3979.697,929.37z" class="colore57e73 svgShape"/><path fill="#e57e73" d="M3976.265,895.036c-0.576,0-1.162-0.112-1.728-0.347c-2.292-0.955-3.376-3.588-2.421-5.88         c3.449-8.281,14.662-23.091,32.422-19.862c2.443,0.444,4.063,2.785,3.619,5.229s-2.778,4.066-5.229,3.62         c-15.142-2.756-22.439,14.3-22.512,14.472C3979.698,893.995,3978.027,895.036,3976.265,895.036z" class="colore57e73 svgShape"/></g></g><g fill="#000000" class="color000 svgShape"><polygon fill="#b78665" points="0 4000 0 3257.667 1892.589 2669.275 6000 3530.366 6000 4000" class="colorb78665 svgShape"/><path fill="#ad7b5a" d="M2649.742 2828.181c-87.615 40.127-171.404 88.671-248.324 145.911-60.658 45.139-118.526 98.264-155.36 165.204-19.7 35.801-30.554 74.243-37.91 114.255-7.739 42.094-13.504 85.217-31.728 124.399-30.893 66.424-87.985 116.64-148.804 155.326-69.439 44.169-146.175 74.26-222.448 104.275-78.326 30.824-157.638 61.816-228.501 107.93-63.086 41.053-118.244 94.086-161.17 155.946-21.379 30.809-39.664 63.912-54.169 98.573h15.236c9.59-22.071 20.727-43.445 33.149-63.874 38.4-63.152 89.892-118.349 149.694-161.731 67.294-48.818 144.35-81.569 221.199-112.09 74.5-29.588 150.222-57.34 220.304-96.682 62.738-35.219 122.935-79.82 164.169-139.662 21.415-31.078 35.6-65.622 44.065-102.333 9.692-42.034 13.562-85.397 26.952-126.56 23.396-71.923 75.338-130.604 132.057-178.774 61.875-52.549 131.901-96.234 203.189-134.757 33.457-18.08 67.603-34.856 102.328-50.335L2649.742 2828.181zM3123.75 3966.203c-89.937-14.382-180.345-33.966-266.402-64.178-70.829-24.867-142.51-59.098-194.406-114.803-27.153-29.146-46.296-63.685-57.416-101.917-12.348-42.456-16.193-86.677-22.923-130.213-11.134-72.028-35.795-147.807-99.861-189.732-83.029-54.334-128.403 76.113-155.067 131.315-8.86 18.344-18.658 36.43-31.083 52.638-13.543 17.667-30.058 32.866-46.653 47.596-32.384 28.747-62.967 57.541-88.841 92.48-49.673 67.08-82.425 144.617-129.46 213.366-24.465 35.76-53.866 69.822-88.151 97.245h21.546c10.879-9.45 21.259-19.536 31.103-30.134 54.071-58.214 88.996-129.444 128.411-197.621 21.273-36.796 44.157-72.918 72.22-104.974 28.291-32.317 63.142-57.529 92.783-88.433 28.884-30.115 46.62-66.49 63.706-104.071 8.402-18.481 16.895-36.991 27.356-54.421 10.323-17.201 22.734-35.678 39.928-46.696 36.919-23.657 77.983 17.312 98.668 45.677 21.915 30.052 34.692 65.603 42.814 101.625 18.215 80.79 15.028 167.278 61.863 239.182 39.889 61.242 103.96 102.385 169.572 131.642 77.225 34.436 160.228 55.525 242.787 72.633 46.605 9.657 93.572 17.487 140.773 23.595 35.019 4.531 70.186 7.857 105.252 11.993h93.268C3292.693 3982.908 3207.179 3979.544 3123.75 3966.203zM4591.735 3947.963c-95.836-26.427-185.897-67.158-276.403-107.626-89.169-39.87-179.827-74.879-273.177-103.737-94.881-29.331-191.215-53.763-287.761-76.924-93.968-22.542-191.021-43.444-288.221-34.976-77.918 6.788-166.532 32.286-220.533 92.625-11.191 12.505-20.182 29.403-12.198 46.028 7.927 16.504 26.794 24.554 42.631 31.305 37.314 15.905 75.456 29.72 113.545 43.63 75.63 27.62 153.463 55.635 218.581 104.264 15.631 11.673 30.18 24.697 43.621 38.829 6.257 6.581 16.204-3.388 9.957-9.957-52.888-55.616-122.596-90.025-192.939-118.212-37.217-14.913-75.05-28.212-112.647-42.119-19-7.028-37.948-14.207-56.718-21.83-16.496-6.699-40.609-13.337-51.313-28.712-14.036-20.161 15.591-42.415 29.566-53.656 15.545-12.503 32.74-22.991 50.635-31.768 38.378-18.822 80.647-29.743 122.985-34.822 94.932-11.388 190.333 7.231 282.433 28.933 188.539 44.426 375.572 95.246 553.109 173.762 86.868 38.417 172.807 79.442 263.735 107.619 70.781 21.933 143.379 37.137 216.431 49.379h91.864C4769.045 3987.319 4679.278 3972.104 4591.735 3947.963z" class="colorad7b5a svgShape"/><path fill="#ad7b5a" d="M5688.812,3466c-49.067,84.049-145.234,141.819-232.835,175.081      c-119.262,45.282-249.089,55.95-375.679,51.165c-137.747-5.207-273.768-29.71-408.356-58.198      c-149.029-31.545-296.638-69.301-445.132-103.2c-146.374-33.415-295.914-68.143-446.284-76.032      c-147.264-7.726-286.256,28.728-425.852,71.301c-127.708,38.948-256.165,77.823-391.023,76.688      c-120.43-1.015-251.8-35.302-326.343-137.196c-35.406-48.398-55.227-108.036-52.869-168.17      c2.276-58.057,27.103-111.368,60.514-157.956c35.348-49.288,79.362-91.699,121.826-134.722      c38.499-39.004,83.174-80.302,110.302-128.868l-14.469-3.037c-6.614,10.54-14.269,20.374-21.056,28.974      c-19.068,24.158-39.943,46.835-61.286,68.985c-41.712,43.287-85.746,84.55-123.968,131.063      c-35.439,43.127-66.32,91.737-79.298,146.646c-13.078,55.335-6.694,113.834,15.308,166.035      c47.072,111.68,157.081,174.447,272.543,193.91c126.529,21.329,255.264-0.229,377.488-34.286      c143.125-39.881,284.183-94.72,433.737-104.834c156.695-10.596,314.927,24.377,467.212,57.314      c151.841,32.841,302.327,71.56,453.92,105.485c138.006,30.885,277.418,59.302,418.619,70.4      c127.947,10.056,259.509,6.563,383.778-28.184c114.846-32.111,236.586-95.011,300.263-200.083      c1.064-1.757,2.103-3.527,3.124-5.306L5688.812,3466z" class="colorad7b5a svgShape"/><path fill="#ad7b5a" d="M5485.759 3423.385c-29.231 30.337-63.114 56.131-99.284 77.673-48.942 29.148-102.217 50.797-157.337 65.05-66.929 17.306-136.472 23.94-205.468 24.54-72.216.628-144.33-5.599-215.904-14.79-36.18-4.646-72.252-10.098-108.271-15.847-33.904-5.412-68.081-10.253-101.571-17.9-31.381-7.166-63.214-17.361-89.371-36.716-21.928-16.226-41.854-41.085-44.403-69.155-3.452-38.004 24.984-64.997 55.152-82.582 34.213-19.943 72.139-32.528 108.096-48.823 25.486-11.55 52.68-25.469 72.013-46.483l-16.639-3.492c-13.288 12.281-29.688 21.797-45.612 29.795-36.433 18.297-75.438 30.91-111.691 49.587-31.141 16.043-62.836 38.574-72.715 74.053-7.42 26.649.29 54.446 16.074 76.541 18.386 25.738 44.708 43.102 73.645 54.999 31.546 12.97 65.366 19.254 98.854 24.872 36.228 6.078 72.506 11.908 108.848 17.266 73.239 10.797 146.917 19.512 220.953 22.054 72.899 2.503 146.195-1.141 217.971-14.644 58.662-11.036 115.749-29.885 169.088-56.755 50.253-25.316 97.479-57.946 136.734-98.43 2.367-2.441 4.704-4.915 7.011-7.417L5485.759 3423.385zM4396.706 3194.822c-5.78 2.581-11.588 5.096-17.429 7.53-86.519 36.045-179.143 56.899-272.304 65.778-96.428 9.19-192.528 4.575-288.395-8.046-56.534-7.443-113.568-15.544-170.73-11.916-45.552 2.891-89.874 13.947-131.92 31.567-79.522 33.325-148.093 86.6-218.104 135.861-35.429 24.929-71.513 49.114-109.755 69.561-43.363 23.185-89.405 40.432-137.503 50.796-51.286 11.051-104.197 14.44-156.49 10.264-25.505-2.037-51.503-5.352-76.169-12.353-22.357-6.346-43.804-17.361-55.722-38.195-21.116-36.915-7.277-83.498 10.649-118.621 18.505-36.258 44.712-67.76 73.96-95.839 63.867-61.316 140.38-107.308 210.687-160.545 35.024-26.52 75.9-55.14 91.744-97.951 11.206-30.282 6.278-61.788-5.464-90.851l-15.998-3.357c7.292 16.055 12.29 32.828 13.486 50.25 3.641 53.039-37.02 87.576-74.949 117.461-70.72 55.723-148.813 101.969-215.851 162.385-31.142 28.065-59.833 59.547-81.217 95.782-20.515 34.764-36.386 75.624-30.062 116.617 2.971 19.258 11.663 37.538 25.999 50.934 17.433 16.29 40.773 24.186 63.669 29.124 50.49 10.891 103.242 13.344 154.635 9.004 51.572-4.356 102.631-15.683 150.859-34.551 42.126-16.481 81.693-38.588 119.61-63.125 74.538-48.235 143.16-105.778 221.637-147.829 39.025-20.911 80.41-37.396 123.934-46.055 55.857-11.113 113.071-7.391 169.233-.729 53.373 6.331 106.421 14.444 160.129 17.549 48.461 2.802 97.101 2.704 145.539-.49 94.094-6.204 187.968-23.803 276.606-56.376 23.293-8.56 46.23-18.146 68.646-28.816L4396.706 3194.822z" class="colorad7b5a svgShape"/><path fill="#ad7b5a" d="M3761.177 3061.441c-41.267 7.311-81.953 17.847-121.532 31.704-31.777 11.125-62.825 24.36-92.852 39.588-28.986 14.7-57.127 30.99-85.962 45.976-28.76 14.947-58.304 28.579-89.5 37.634-27.38 7.947-57.53 13.689-85.734 6.503-12.385-3.155-23.999-9.115-32.244-19.095-8.139-9.851-10.879-22.408-9.92-34.933 2.132-27.837 19.723-53.089 36.903-73.952 19.384-23.54 39.917-46.196 57.628-71.066 10.102-14.186 19.442-29.45 26.177-45.685l-14.178-2.976c-4.56 10.586-10.273 20.752-16.601 30.479-16.835 25.874-37.587 48.887-57.347 72.505-18.826 22.501-37.213 46.585-44.278 75.662-3.169 13.043-3.867 27.218.447 40.095 4.376 13.064 13.173 23.927 24.524 31.625 23.807 16.146 55.46 16.429 82.872 12.424 32.175-4.7 63.303-16.29 92.791-29.649 30.119-13.645 58.94-29.914 87.98-45.672 29.907-16.228 60.236-31.524 91.847-44.185 60.18-24.104 123.553-40.553 187.868-48.821L3761.177 3061.441zM2305.303 2755.893c-55.424 32.178-111.851 62.635-169.167 91.32-101.124 50.609-205.137 98.938-314.397 129.211-116.893 32.387-236.4 32.904-356.675 36.982-105.218 3.568-208.512 15.364-308.583 49.432-88.109 29.996-171.702 73.736-245.891 130.004-70.685 53.61-133.056 118.353-181.258 192.991-26.156 40.5-44.51 84.26-66.575 126.922-26.172 50.604-64.928 86.738-111.861 118.105C387.905 3739.791 195.087 3803.769 0 3822.158v14.033c167.495-15.661 332.14-64.439 479.514-145.621 45.533-25.082 91.438-52.453 130.629-86.854 41.328-36.277 64.188-81.905 87.269-130.85 39.207-83.141 94.621-156.863 162.141-219.151 146.884-135.502 338.641-209.584 536.728-222.916 119.252-8.026 239.755-1.744 357.745-24.056 111.716-21.125 217.402-65.581 319.833-113.714 85.965-40.396 170.1-84.716 252.006-132.821L2305.303 2755.893z" class="colorad7b5a svgShape"/><path fill="#ad7b5a" d="M2089.607 2710.624c-57.005 57.937-118.662 112.05-193.799 144.652-53.919 23.395-112.236 32.057-170.724 31.745-59.582-.318-119.292-8.183-177.297-21.607-47.863-11.076-94.751-26.236-139.948-45.434l-20.486 6.369c98.972 44.341 206.741 69.937 315.059 74.235 60.705 2.409 122.18-3.337 179.433-24.63 49.536-18.423 94.426-46.651 135.465-79.689 31.442-25.312 60.512-53.305 88.65-82.209L2089.607 2710.624zM0 3527.985c.337.117.675.238 1.011.354 26.321 9.079 53.442 15.683 80.563 21.869 32.234 7.353 64.798 13.501 97.727 16.725 59.351 5.81 120.627 1.096 175.62-23.393 25.08-11.168 48.415-26.828 66.997-47.151 18.468-20.198 31.885-44.102 42.509-69.187 20.78-49.063 32.252-101.556 59.374-147.886 26.303-44.931 62.839-83.755 105.038-114.126 47.168-33.947 100.25-55.954 156.364-70.256 60.603-15.446 122.819-23.687 183.184-40.144 54.424-14.837 105.892-37.351 147.412-76.43 24.193-22.771 45.713-52.138 54.83-84.632l-16.892 5.251c-6.311 17.83-16.519 34.665-29.051 49.558-34.966 41.553-82.813 68.489-133.963 84.955-58.098 18.702-118.711 27.43-178.173 40.525-55.806 12.29-110.238 29.376-159.648 58.629-44.172 26.151-83.705 60.335-115.111 100.985-15.162 19.625-28.433 40.678-39.164 63.049-11.455 23.879-19.878 49.028-28.358 74.071-17.006 50.229-36.142 101.485-79.376 135.228-43.671 34.084-101.278 47.658-155.752 49.049-63.714 1.626-127.151-11.771-188.497-27.77-15.275-3.983-31.104-8.41-46.646-13.864V3527.985zM2047.972 3047.569c-55.036-4.444-105.397 14.606-151.752 42.651-56.094 33.938-107.889 74.889-173.807 87.672-70.343 13.64-142.805.487-213.066-6.994-63.825-6.796-126.888-6.822-190.034 5.735-113.319 22.534-222.504 80.059-299.264 167.273-18.416 20.924-34.949 43.553-48.956 67.659-17.707 30.473-31.605 62.918-45.805 95.113-13.982 31.7-28.716 62.935-46.529 92.693-17.314 28.924-36.752 56.569-57.605 83.043-42.213 53.591-89.761 102.718-138.21 150.641-44.275 43.794-88.298 92.311-143.358 122.764-26.51 14.663-55.461 23.804-85.878 24.407-9.049.179-9.08 14.261 0 14.081 61.064-1.21 113.246-34.326 157.867-73.365 23.754-20.783 46.049-43.243 68.558-65.349 24.131-23.7 48.071-47.603 71.359-72.134 45.474-47.901 88.756-98.353 124.899-153.76 18.272-28.012 34.307-57.266 48.343-87.617 14.756-31.909 27.908-64.562 43.73-95.974 52.938-105.104 146.189-182.847 254.789-226.266 55.246-22.088 114.022-35.624 173.446-39.096 68.367-3.994 135.707 8.226 203.569 14.147 67.97 5.931 135.368 2.738 197.464-28.078 55.259-27.423 102.549-71.146 160.809-92.549 43.851-16.11 100.572-21.396 142.727 2.502 22.657 12.845 37.675 35.223 38.562 61.64 1.117 33.274-15.59 64.85-31.9 92.755-31.568 54.012-69.593 104.87-118.439 144.487-51.32 41.624-113.206 65.391-175.794 84.377-61.693 18.715-124.306 34.034-184.527 57.343-54.751 21.191-107.622 47.138-157.928 77.4-98.661 59.349-187.2 134.887-263.913 220.589-51.416 57.44-97.698 119.419-138.818 184.639h16.636c26.217-41.062 54.508-80.789 84.922-118.844 72.399-90.587 156.753-172.096 252.277-238.071 48.819-33.717 100.434-63.396 154.306-88.273 57.76-26.673 117.821-46.086 178.951-63.366 62.942-17.792 127-35.104 184.873-66.385 55.857-30.192 101.836-74.429 139.373-125.252 19.031-25.768 36.639-53.124 51.386-81.581 14.167-27.338 26.165-58.5 21.775-89.818C2145.677 3076.116 2095.826 3051.433 2047.972 3047.569z" class="colorad7b5a svgShape"/><path fill="#ad7b5a" d="M1180.562,3672.094c33.614-26.662,69.436-50.616,107.069-71.232      c36.959-20.246,75.677-36.716,115.255-51.093c77.637-28.201,157.821-49.194,234.388-80.374      c36.765-14.971,72.771-32.218,105.894-54.219c16.047-10.658,31.429-22.404,45.732-35.315      c15.434-13.932,31.96-29.474,39.928-49.083c7.902-19.448,1.877-39.402-15.554-51.012      c-15.966-10.634-36.655-13.137-55.354-14.127c-43.809-2.319-87.866,1.216-130.889,9.692      c-85.701,16.884-166.672,53.728-239.755,101.008c-72.556,46.94-138.141,104.19-197.344,166.995      c-62.215,66-119.042,136.761-178.035,205.588c-59.038,68.881-120.625,136.072-190.857,193.787      c-17.317,14.231-35.145,27.815-53.472,40.72c-7.353,5.178-0.325,17.393,7.107,12.159      c74.054-52.149,139.161-115.365,199.662-182.501c59.885-66.453,115.648-136.462,174.65-203.681      c56.874-64.795,117.212-126.485,185.859-178.933c68.131-52.054,143.523-95.916,225.172-122.895      c40.774-13.473,83.013-22.768,125.816-26.544c21.651-1.91,43.422-2.47,65.141-1.629c18.322,0.709,38.76,1.909,54.627,12.148      c39.241,25.323-19.905,73.429-40.251,90.001c-30.051,24.478-64.12,43.789-99.191,60.076      c-73.558,34.16-152.275,55.482-228.943,81.284c-38.697,13.023-77.115,27.11-114.177,44.305      c-38.916,18.055-76.134,39.677-111.305,64.229c-68.375,47.732-128.679,105.984-182.833,169.199      c-53.964,62.993-102.112,130.7-148.544,199.354h16.97c34.147-50.329,69.24-100.027,107.1-147.637      C1056.795,3786.511,1114.527,3724.472,1180.562,3672.094z" class="colorad7b5a svgShape"/></g><g fill="#000000" class="color000 svgShape"><path fill="#1d1d1b" d="M4285.571,3860.271c0,0-300.737-62.495-311.259-67.405      c-10.522-4.91-52.576,43.793-67.774,20.68c0,0,13.673-46.39,56.55-79.604c37.354-28.936,23.675,21.571,18.414,36.828      L4285.571,3860.271z" opacity=".1" class="color1d1d1b svgShape"/><path fill="#1c2a4c" d="M3965.614,3654.245c0.91,0.328,7.751,1.666,8.539,2.258       c11.818,8.883,3.934,45.786-10.977,87.172c-14.255,39.565-29.064,71.421-43.815,73.328c-1.708,0.221-9.833-2.348-11.344-2.893       c-14.559-5.245-13.467-45.284,2.438-89.43S3951.055,3648.999,3965.614,3654.245z" class="color1c2a4c svgShape"/><ellipse cx="3946.724" cy="3736.808" fill="#3d4e84" rx="84.962" ry="28.019" transform="rotate(-70.184 3946.92 3736.775)" class="color3d4e84 svgShape"/><path fill="#1c2a4c" d="M3952.27,3752.698l333.302,107.573l-325.322-129.72c-4.25-1.695-9.06,0.469-10.611,4.774       l-2.497,6.929C3945.591,3746.559,3947.915,3751.292,3952.27,3752.698z" class="color1c2a4c svgShape"/><path fill="#1d1d1b" d="M1874.389,3902.92c0,0-215.454-37.299-243.126-41.051s-81.075,31.613-96.351,0.563      c-15.276-31.05,59.767-50.748,78.528-53.562c18.761-2.814,27.985,0.625,17.666,23.607c-2.345,5.159,8.599,12.976,25.014,16.259      C1672.537,3852.02,1874.389,3902.92,1874.389,3902.92z" opacity=".1" class="color1d1d1b svgShape"/><path fill="#1c2a4c" d="M1586.26,3719.916c0.706,0.254,5.853,1.466,6.476,1.899c10.84,7.535,4.759,40.612-8.649,77.826        c-13.086,36.321-27.179,64.712-40.351,64.945c-1.1,0.019-7.822-1.792-8.823-2.153c-12.979-4.676-12.006-40.37,2.173-79.726        C1551.265,3743.353,1573.281,3715.24,1586.26,3719.916z" class="color1c2a4c svgShape"/><ellipse cx="1567.778" cy="3793.09" fill="#3d4e84" rx="75.742" ry="24.979" transform="rotate(-70.184 1567.924 3793.128)" class="color3d4e84 svgShape"/><path fill="#1c2a4c" d="M1577.628,3807.141l296.761,95.779l-289.656-115.499c-3.988-1.59-8.5,0.44-9.955,4.479       l-1.96,5.441C1571.362,3801.381,1573.542,3805.823,1577.628,3807.141z" class="color1c2a4c svgShape"/><g fill="#000000" class="color000 svgShape"><path fill="#1d1d1b" d="M2403.762,3900.047c0,0,249.538-87.405,257.98-90.219      c8.442-2.814,65.815,19.351,70.429-6.036c4.614-25.388-39.943-54.936-68.084-58.688c-28.141-3.752-36.583,6.097-22.044,45.495      L2403.762,3900.047z" opacity=".1" class="color1d1d1b svgShape"/><path fill="#1c2a4c" d="M2657.985,3671.716c-0.615,0.345-6.357,2.631-6.874,3.12        c-9.595,9.087,2.749,40.542,22.188,75.151c19.359,34.465,38.138,60.579,50.937,57.349c0.745-0.188,7.274-3.172,7.935-3.544        c12.028-6.756,5.171-41.799-15.315-78.271S2670.012,3664.96,2657.985,3671.716z" class="color1c2a4c svgShape"/><ellipse cx="2688.204" cy="3740.874" fill="#3d4e84" rx="24.979" ry="75.742" transform="rotate(-29.32 2688.522 3741.044)" class="color3d4e84 svgShape"/><path fill="#1c2a4c" d="M2680.622,3756.556l-276.859,143.491l266.594-161.766c3.67-2.227,8.456-0.97,10.559,2.773       l2.833,5.043C2685.85,3749.84,2684.434,3754.58,2680.622,3756.556z" class="color1c2a4c svgShape"/></g><g fill="#000000" class="color000 svgShape"><path fill="#1d1d1b" d="M423.541,3851.733c0,0,274.414-111.563,284.952-116.48      c10.539-4.918,55.974,17.493,71.196-5.656c0,0-32.202-44.754-86.301-49.672c-54.099-4.918-14.579,31.089-4.742,37.412      L423.541,3851.733z" opacity=".1" class="color1d1d1b svgShape"/><path fill="#1c2a4c" d="M779.689,3729.597c-0.777,0.475-4.645,2.536-5.536,2.781       c-14.29,3.917-39.729-22.983-62.82-60.715c-23.524-38.439-36.855-74.178-25.93-84.327c0.468-0.435,4.905-2.572,5.448-2.905       c13.22-8.09,43.824,17.848,68.356,57.934S792.909,3721.506,779.689,3729.597z" class="color1c2a4c svgShape"/><ellipse cx="728.815" cy="3660.571" fill="#3d4e84" rx="28.064" ry="85.096" transform="rotate(-31.46 729.147 3660.519)" class="color3d4e84 svgShape"/><path fill="#1c2a4c" d="M716.053,3658.918l-292.512,192.815l304.804-172.729c4.197-2.378,5.588-7.76,3.07-11.874       l-3.392-5.542C725.505,3657.473,720.08,3656.264,716.053,3658.918z" class="color1c2a4c svgShape"/></g><g fill="#000000" class="color000 svgShape"><path fill="#1d1d1b" d="M1319.865,3448.359c0,0-63.786,13.133-39.397,31.893      c24.389,18.76,151.962,43.149,191.359,67.538s121.006,85.361,179.165,105.998c58.158,20.637,165.767,55.628,272.03-28.141      c128.511-101.308,142.581-123.821,114.44-144.457c-28.141-20.637-368.648,30.955-421.177,21.575      S1319.865,3448.359,1319.865,3448.359z" opacity=".1" class="color1d1d1b svgShape"/><path fill="#d3b0ae" d="M1311.209,3385.563l30.349-10.116c6.212-2.071,12.628,2.553,12.628,9.102v49.03        c0,4.237-2.779,7.972-6.837,9.189l-36.14,10.842V3385.563z" class="colord3b0ae svgShape"/><polygon fill="#e2cac7" points="1547.58 3465.786 1311.209 3385.563 1311.209 3453.609 1537.552 3538.13" class="colore2cac7 svgShape"/><g fill="#000000" class="color000 svgShape"><path fill="#293463" d="M2036.18,3483.7l0.079-0.007v-58.018l-99.074,9.253        c-88.599-19.469-255.854-50.755-274.333-44.155c-14.275,5.098-64.677,45.035-103.042,79.399l-49.387,4.613v54.627        c-1.034,12.45,5.818,24.905,17.933,30.456c38.442,17.615,147.388,67.124,197.346,85.529        c61.239,22.561,116.031-3.223,185.328-46.735C2005.122,3544.677,2039.289,3508.563,2036.18,3483.7z" class="color293463 svgShape"/><path fill="#ffc471" d="M1528.356,3500.24c-15.928-7.298-22.774-26.53-14.538-41.995        c0.246-0.463,0.504-0.929,0.772-1.399c12.892-22.562,125.7-117.643,148.262-125.7c22.562-8.058,266.896,40.357,319.085,54.792        c75.743,20.95,89.536,61.044-70.908,153.097c-69.297,43.512-124.089,69.296-185.327,46.734        C1675.744,3567.364,1566.798,3517.855,1528.356,3500.24z" class="colorffc471 svgShape"/><ellipse cx="1773.565" cy="3447.163" fill="#293463" rx="125.706" ry="48.707" class="color293463 svgShape"/></g></g><g fill="#000000" class="color000 svgShape"><path fill="#1d1d1b" d="M4569.043,3849.374c0,0,49.434-2.557,156.826-20.456      c107.392-17.898,859.135-138.075,886.409-157.678s-95.851-25.023-187.901-24.171c-92.05,0.852-571.45,63.281-571.45,63.281      s-231.041,41.86-262.577,41.008c-31.536-0.852-91.198,17.046-95.459,31.536      C4490.63,3797.383,4569.043,3849.374,4569.043,3849.374z" opacity=".1" class="color1d1d1b svgShape"/><path fill="#8e5d42" d="M4706.666,3641.041l885.095,33.91c26.047,0.998,48.097-19.045,49.582-45.069l1.67-29.268       c1.546-27.099-19.742-50.052-46.88-50.546l-884.577-16.107L4706.666,3641.041z" class="color8e5d42 svgShape"/><path fill="#ffe5e1" d="M4657.089,3252.275c0,0-146.023,44.348-190.635,144.747       c-44.612,100.398-35.768,236.671-8.263,297.697c4.903,10.879,24.556,21.153,20.199,60.659       c-3.67,33.279-36.306-4.444-36.306,52.956c0,30.704,9.129,52.928,57.318,52.928l43.326-2.511       c47.412,0,50.291-24.514,51.04-52.662c0,0,1.06-34.274-30.049-35.553c-34.585-1.421-20.85-30.619-5.916-67.423       c7.35-18.114,57.618-64.932,148.213-61.755c0.31,0.011,0.598-0.142,0.751-0.411c2.702-4.724,25.97-48.006,7.148-106.435       c-0.261-0.812-0.965-1.406-1.809-1.525c-11.971-1.702-98.55-14.207-115.765-22.266c-18.503-8.662-51.011-38.512-35.325-110.485       C4581.59,3305.837,4618.658,3296.385,4657.089,3252.275z" class="colorffe5e1 svgShape"/></g><g fill="#000000" class="color000 svgShape"><polygon fill="#af7852" points="497.367 3617.455 115.084 3329.977 135.669 3264.905 2094.424 2542.887 2487.378 2705.277 2466.793 2770.35" class="coloraf7852 svgShape"/><polygon fill="#c99370" points="517.952 3552.382 135.669 3264.905 2081.874 2495.012 2487.378 2705.277" class="colorc99370 svgShape"/><g fill="#000000" class="color000 svgShape"><polygon fill="#af7852" points="517.566 3384.167 149.423 3080.38 172.602 3015.86 2074.683 2609.673 2458.647 2788.29 2435.468 2852.81" class="coloraf7852 svgShape"/><polygon fill="#dba37d" points="540.745 3319.646 172.602 3015.86 2064.198 2561.107 2458.647 2788.29" class="colordba37d svgShape"/><path fill="#d19974" d="M406.443 3067.181c105.979-27.602 212.233-54.141 318.753-79.575 106.294-25.38 212.848-49.671 319.641-72.858 106.281-23.076 212.864-44.606 319.472-66.107 105.802-21.338 211.179-44.367 314.738-74.987 101.827-30.108 202.269-64.975 305.161-91.427 13.039-3.352 26.115-6.552 39.225-9.611 8.776-2.048 5.061-15.559-3.724-13.509-103.92 24.251-205.04 58.581-306.988 89.774-103.193 31.575-207.763 56.66-313.44 78.38-106.381 21.865-212.939 42.776-319.134 65.554-106.823 22.913-213.41 46.928-319.739 72.037-106.035 25.039-211.814 51.162-317.316 78.357-13.462 3.47-26.919 6.959-40.373 10.463C394.001 3055.943 397.697 3069.459 406.443 3067.181L406.443 3067.181zM561.748 3160.381c97.156-28.657 194.385-57.065 291.689-85.215 97.255-28.136 194.584-56.016 291.985-83.641 97.352-27.611 194.776-54.967 292.272-82.066 97.445-27.085 194.962-53.915 292.549-80.488 97.536-26.559 195.142-52.861 292.816-78.906 12.445-3.319 24.891-6.633 37.338-9.943 8.704-2.315 5.012-15.832-3.724-13.509-97.685 25.98-195.302 52.213-292.85 78.705-97.598 26.506-195.126 53.268-292.583 80.286-97.507 27.032-194.943 54.321-292.307 81.865-97.413 27.558-194.755 55.372-292.022 83.441-97.317 28.083-194.559 56.421-291.727 85.014-12.388 3.645-24.774 7.295-37.159 10.948C549.395 3149.417 553.068 3162.941 561.748 3160.381L561.748 3160.381zM808.818 3163.257c94.309-24.967 188.619-49.933 282.928-74.9 94.309-24.967 188.619-49.933 282.928-74.9 94.268-24.956 188.536-49.917 282.805-74.867 94.028-24.886 188.086-49.689 282.542-72.909 93.424-22.967 187.408-46.343 282.481-61.461 12-1.908 24.025-3.635 36.081-5.155 8.825-1.112 8.936-15.135 0-14.009-95.545 12.042-189.722 35.116-283.238 57.617-94.542 22.748-188.641 47.287-282.655 72.113-94.655 24.996-189.283 50.097-283.923 75.151-94.776 25.09-189.552 50.18-284.329 75.271-94.776 25.09-189.552 50.181-284.329 75.271-11.672 3.09-23.344 6.18-35.016 9.27C796.386 3152.054 800.079 3165.571 808.818 3163.257L808.818 3163.257z" class="colord19974 svgShape"/></g></g></g><g fill="#000000" class="color000 svgShape"><polygon fill="#1d1d1b" points="4048.441 3563.084 3570.671 3754.632 2964.131 3605.74 3347.844 3345.935" opacity=".1" class="color1d1d1b svgShape"/><polygon fill="#dba07d" points="4019.964 2844.322 4019.964 3578.072 2913.683 3351.281 2913.683 2670.435" class="colordba07d svgShape"/><polygon fill="#ce9172" points="4019.964 3578.072 4048.441 3563.084 4048.441 2848.308 4019.507 2854.137" class="colorce9172 svgShape"/><polygon fill="#d19578" points="4022.837 2893.274 3569.677 3377.911 3571.676 2998.196" class="colord19578 svgShape"/><g fill="#000000" class="color000 svgShape"><polygon fill="#ce9172" points="2276.743 3465.143 3521.539 3786.607 3570.671 3754.632 3570.671 2983.21 2276.743 2787.357" class="colorce9172 svgShape"/><polygon fill="#dda783" points="2249.763 3482.13 3521.539 3786.607 3521.539 3007.185 2249.763 2772.648" class="colordda783 svgShape"/></g><g fill="#000000" class="color000 svgShape"><polygon fill="#ce9172" points="2249.763 2772.648 2249.763 2732.68 2924.172 2739.681 4030.453 2891.609 3521.539 3007.185" class="colorce9172 svgShape"/><polygon fill="#dba07d" points="2249.763 2732.68 2924.172 2660.449 4048.441 2848.308 3521.539 2967.216" class="colordba07d svgShape"/><polygon fill="#ce9172" points="4030.453 2891.609 4030.453 2852.222 3521.539 2967.216 3521.539 3007.185" class="colorce9172 svgShape"/></g><g fill="#000000" class="color000 svgShape"><path fill="#1d1d1b" d="M3352.613 2808.386c5.996 9.992 219.835-9.992 287.784-5.996 67.949 3.997 285.786 95.928 391.706 77.942 5.874-.998 11.294-2.085 16.338-3.242v-28.781l-565.497-94.491C3431.464 2771.566 3348.463 2801.468 3352.613 2808.386zM2969.569 2668.034c-26.471 14.403-56.016 33.941-86.604 60.411-103.922 89.933-185.861 315.763-185.861 315.763 53.959 73.945 101.924-9.992 157.882-71.946 55.958-61.953 57.957-99.925 57.957-51.961s17.987 79.94 51.961 85.936c33.975 5.996 57.957-95.928 69.948-117.912 11.991-21.983 61.954-77.941 87.934-101.924 19.542-18.038 108.045-51.903 150.718-67.582L2969.569 2668.034z" opacity=".1" class="color1d1d1b svgShape"/></g><g fill="#000000" class="color000 svgShape"><path fill="#ffaa99" d="M3058.168,2602.398c19.696,72.354,28.901,182.888-72.594,214.852         c-64.838,20.419-115.678,66.236-154.861,111.412c-59.861,69.017-84.54,165.834-123.063,107.413         c0,0-43.807,33.665-47.544-22.26c0,0-28.47-110.28-21.345-174.783c7.124-64.503,33.181-104.344,51.079-121.192         s144.4-38.835,182.134-105.806S3038.471,2530.044,3058.168,2602.398z" class="colorfa9 svgShape"/><path fill="#e57e73" d="M2854.514,2896.697c-0.995,3.122-1.762,5.948-2.339,8.529        c29.975-30.886,65.732-59.91,108.046-78.441c-7.156-20.758-19.011-39.163-30.122-45.145        C2930.1,2781.639,2873.259,2837.885,2854.514,2896.697z" class="colore57e73 svgShape"/><path fill="#ffaa99" d="M3065.27,2706.557c0,0-1.366,91.856-42.712,149.984        c-27.461,38.607-16.861,89.973-41.943,124.559c-11.068,15.263-44.001,5.737-49.053-14.209        c-5.052-19.946,10.698-73.194,5.818-98.79c-4.881-25.596-29.451-54.616-26.798-95.536S3047.121,2698.939,3065.27,2706.557z" class="colorfa9 svgShape"/><path fill="#e57e73" d="M2707.118 3035.938l3.469-16.033 3.583-16.006 7.266-31.993c2.489-10.649 5.024-21.29 7.6-31.929 2.649-10.63 5.302-21.22 8.312-31.877.348-1.322.798-2.697 1.211-4.054l.632-2.041.668-1.959 2.699-7.818c1.829-5.201 3.72-10.382 5.694-15.537 3.978-10.297 8.562-20.38 13.87-30.123 5.337-9.721 11.243-19.21 18.219-27.99 3.466-4.4 7.247-8.592 11.41-12.408 4.201-3.746 8.818-7.217 14.038-9.342l.547.953c-4.197 3.461-7.711 7.473-10.874 11.771-3.196 4.264-6.027 8.806-8.751 13.406-5.365 9.263-10.193 18.865-14.796 28.599-4.592 9.741-9.102 19.545-13.642 29.373-2.283 4.908-4.501 9.854-6.644 14.832-1.061 2.493-2.124 4.987-3.138 7.498l-.752 1.885-.673 1.844c-.445 1.237-.913 2.436-1.327 3.738-3.399 10.237-6.54 20.723-9.652 31.173-3.152 10.452-6.268 20.922-9.338 31.408l-18.566 62.902L2707.118 3035.938zM2653.435 2987.699l2.224-15.657 2.362-15.635c1.605-10.419 3.217-20.838 4.902-31.249 1.714-10.404 3.5-20.8 5.324-31.195 1.925-10.38 3.849-20.757 6.026-31.128 1.036-5.19 2.205-10.379 3.347-15.601.662-2.628 1.225-5.219 1.963-7.89.818-2.696 1.63-5.504 2.544-7.894 3.593-9.962 7.759-19.883 12.947-29.355 2.598-4.732 5.411-9.377 8.532-13.845 3.135-4.455 6.5-8.794 10.383-12.717 3.834-3.95 8.08-7.583 12.87-10.42 2.378-1.426 4.917-2.606 7.51-3.538 2.606-.921 5.322-1.476 8.011-1.721l.244 1.072c-1.194.572-2.407.99-3.526 1.656-.565.313-1.147.563-1.689.91l-1.624 1.01c-2.106 1.43-4.139 2.908-5.963 4.664-.951.812-1.822 1.739-2.719 2.608-.855.929-1.723 1.831-2.529 2.802-1.629 1.919-3.212 3.877-4.674 5.939-5.856 8.242-10.657 17.287-15.036 26.574-4.384 9.298-8.432 18.802-12.635 28.403-1.147 2.46-1.927 4.676-2.821 6.96-.838 2.353-1.588 4.866-2.384 7.297-1.481 4.978-2.905 9.998-4.188 15.082-2.63 10.138-5.032 20.379-7.432 30.614-2.41 10.239-4.784 20.493-7.088 30.767-2.371 10.26-4.672 20.538-6.966 30.82l-6.834 30.861L2653.435 2987.699z" class="colore57e73 svgShape"/><path fill="#ffaa99" d="M2862.98,2644.509c0,0,107.628-436.946,161.879-485.636       c54.25-48.689,309.768,217.837,309.768,217.837s-52.96,52.96-111.916,113.915s-145.891,141.894-169.873,173.87       C3052.838,2664.494,2950.915,2688.476,2862.98,2644.509z" class="colorfa9 svgShape"/><path fill="#e57e73" d="M3362.641,2364.492c-51.94-43.458-175.903-77.715-175.903-77.715       c48.262,41.367,92.059,115.431,103.195,135.023c2.815-2.856,5.542-5.621,8.152-8.265       C3319.454,2400.269,3341.082,2384.027,3362.641,2364.492z" class="colore57e73 svgShape"/><g fill="#000000" class="color000 svgShape"><path fill="#ffc471" d="M4233.141,2313.676c0,0-36.938,79.152,10.554,137.197s176.773,127.963,208.434,179.411          c31.661,51.449,27.703,101.579,26.384,114.771c-1.319,13.192-76.514,92.344-183.369,81.791          s-122.686-118.728-142.474-154.347s-35.619-67.279-50.13-65.96c-14.511,1.319-27.703,9.234-27.703,9.234l-79.152-130.601          L4233.141,2313.676z" class="colorffc471 svgShape"/><path fill="#ffb354" d="M4233.141,2313.676l-237.457,171.496l25.501,42.078c3.582-2.28,7.086-4.557,10.474-6.816          c34.441-22.961,132.445-96.951,187.819-139.027C4218.858,2344.294,4233.141,2313.676,4233.141,2313.676z" class="colorffb354 svgShape"/><path fill="#1b1f3f" d="M4293.824 2816.292c0 0-40.896 23.746-29.022 47.491 11.873 23.746 76.514 92.344 97.621 98.94 21.107 6.596 178.092-59.364 205.795-130.601 10.554-34.299-38.257-108.175-51.449-126.644-13.192-18.469-52.768 11.873-67.279 21.107C4434.979 2735.821 4293.824 2816.292 4293.824 2816.292zM3942.916 2535.302c0 0 51.449-3.958 67.279 25.065 15.831 29.022 2.638 55.406 7.915 68.599 5.277 13.192 44.853-2.638 56.726-13.192 11.873-10.553-26.384-106.855-55.406-135.878L3942.916 2535.302z" class="color1b1f3f svgShape"/><g fill="#000000" class="color000 svgShape"><path fill="#ffc471" d="M3723.941,2338.821c0,0,282.297-200.598,360.13-233.578          c77.833-32.98,129.703,22.698,154.768,51.72c25.064,29.022,64.219,90.754,35.197,134.287s-313.97,240.095-313.97,240.095          s-27.703,23.746-53.773,8.005L3723.941,2338.821z" class="colorffc471 svgShape"/><path fill="#1b1f3f" d="M3896.413,2311.07c23.967,14.506,64.983,44.247,93.339,91.225          c4.256,7.051,13.392,9.352,20.449,5.106c32.07-19.292,114.333-70.069,153.533-106.251c5.266-4.86,6.274-12.811,2.439-18.865          c-15.461-24.404-57.239-85.024-100.39-101.765c-4.031-1.563-8.544-1.217-12.345,0.843          c-18.294,9.91-78.699,44.147-158.402,105.09C3886.68,2292.843,3887.415,2305.624,3896.413,2311.07z" class="color1b1f3f svgShape"/><g fill="#000000" class="color000 svgShape"><path fill="#1b1f3f" d="M3677.033,2447.587c0,0-8.209-35.474,1.759-58.341           c9.968-22.867,45.148-50.425,45.148-50.425s83.847,4.691,131.341,77.397c42.163,64.546,51.012,123.132,51.012,123.132           s-21.108,27.558-51.598,39.871c-22.178,8.956-51.012,13.486-69.481,1.173L3677.033,2447.587z" class="color1b1f3f svgShape"/><path fill="#21284f" d="M3644.747,2666.973c0,0,78.901-18.857,140.467-86.58c0,0,5.277-58.927-40.458-100.264            c-32.31-29.203-67.722-32.542-67.722-32.542c-87.072,51.891-119.493,100.091-119.493,100.091L3644.747,2666.973z" class="color21284f svgShape"/><ellipse cx="3604.135" cy="2604.919" fill="#1b1f3f" rx="36.843" ry="73.831" transform="rotate(-36.167 3604.346 2605.17)" class="color1b1f3f svgShape"/><path fill="#aaaaaa" d="M3608.469,2609.656c-2.579-3.505-7.51-4.252-11.011-1.675l-240.543,177.034          c-3.503,2.578-4.253,7.508-1.675,11.011c1.544,2.098,3.931,3.208,6.349,3.208c1.621,0,3.257-0.499,4.662-1.533          l240.543-177.034C3610.297,2618.088,3611.047,2613.158,3608.469,2609.656z" class="coloraaa svgShape"/></g></g><g fill="#000000" class="color000 svgShape"><path fill="#ffaa99" d="M5059.511,1802.111c0,0-108.178,66.03-264.374,264.373        c-156.195,198.343-235.775,325.423-317.591,394.843c-81.816,69.42-119.212,2.169-166.319,4.648s-62.617-9.432-62.617-9.432        s12.469,30.812,29.309,42.74c31.976,22.65,4.31,31.462-1.999,40.137c-19.619,26.976-113.12,56.117-140.392,75.952        c-27.272,19.834-22.314,91.734,27.272,86.775c0,0-9.917,34.71,4.958,61.982c14.876,27.272,47.977,27.372,47.977,27.372        s-3.349,27.172,11.526,44.527c14.876,17.355,54.544,19.834,54.544,19.834s0,64.461,81.816,22.313        c81.817-42.148,176.209-144.784,191.085-167.098c14.875-22.313,4.958-57.023,64.461-106.609        c59.503-49.586,628.62-355.858,702.998-574.036C5324.647,1993.244,5262.813,1722.774,5059.511,1802.111z" class="colorfa9 svgShape"/><path fill="#ffaa99" d="M4178.994,2596.545c0,0-48.14,5.536-81.758,9.958c-16.333,2.148-28.886,5.327-31.5,5        c-7.994-0.999-24.639-13.958-40.627-25.949c-15.988-11.991-41.969-5.995-50.962,17.987        c-8.993,23.982,33.61,63.978,62.589,83.963c28.978,19.985,99,25.5,145.255,12.964        C4230.532,2687.312,4178.994,2596.545,4178.994,2596.545z" class="colorfa9 svgShape"/></g></g></g></g></g></svg>