<svg xmlns="http://www.w3.org/2000/svg" viewBox="0 0 4680 3120"><g data-name="5" fill="#000000" class="color000 svgShape"><rect width="4680" height="3120" fill="#ffffff" data-name="5" opacity="0" class="colorfff svgShape"/><path fill="#f5f5f7" d="M3753.21,1715.18a1353.9,1353.9,0,0,1-275.12,820.21c-31.16-8.23-65.6-16-103-23.45q-16.35-3.22-33.46-6.33-37.05-6.77-77.5-13c-141.42-21.64-312.29-37.85-501.19-46.68q-16.64-.78-33.45-1.48c-95.35-4-195-6.08-297.59-6.08-107.2,0-211.24,2.3-310.49,6.64q-16.83.72-33.45,1.54c-199.59,9.73-378.58,27.71-523.3,51.62q-17.06,2.82-33.45,5.75c-82.89,14.77-153.27,31.6-208.24,50-181.32-231.06-289.43-522.28-289.43-838.76,0-423.75,193.83-802.25,497.67-1051.63q16.5-13.56,33.45-26.59A1354.14,1354.14,0,0,1,2088,389.77q16.65-3.82,33.45-7.24a1372,1372,0,0,1,608.08,14.66q16.82,4.28,33.45,9c220.8,62.21,418.82,178.78,578.69,334.35q17,16.56,33.46,33.71a1364.68,1364.68,0,0,1,208.66,283.06,1354,1354,0,0,1,169.46,657.9Z" class="colorf5f5f7 svgShape"/><path fill="#243354" d="M2672.86 1234.69L2580 550.36c-3-22-22.61-37.54-43.74-34.68L1207.73 695.93a37.65 37.65 0 00-25.91 15.9 41.19 41.19 0 00-6.49 32.19l143 677.53c4.32 20.45 23.31 34.35 43.23 31.65L2640 1279.76C2661.07 1276.89 2675.85 1256.67 2672.86 1234.69zM3684.26 1999.43l-10 173.33a1356.24 1356.24 0 01-196.21 362.63c-31.16-8.23-65.6-16-103-23.45q-16.35-3.22-33.46-6.33-37.05-6.77-77.5-13l-41.32-492a48.06 48.06 0 0119.58-42.9l-101.84-797.26 201.08-21.94 25.23-2.76 0 .13 8.21-.9 25.12-2.73 18.86 147.73 80.67 1.47 44.19-231.84 39.82 7.58a1350.86 1350.86 0 01131.76 338.59l-105.33 552.68h26A48.12 48.12 0 013684.26 1999.43z" opacity=".1" class="color243354 svgShape"/><path fill="#d1dbed" d="M2762.94 406.16V2446q-16.64-.78-33.45-1.48V397.19Q2746.31 401.47 2762.94 406.16zM3375.09 774.22V2511.94q-16.35-3.22-33.46-6.33V740.51Q3358.66 757.07 3375.09 774.22zM2121.41 382.53V2445.06q-16.83.72-33.45 1.54V389.77Q2104.61 385.95 2121.41 382.53zM1564.66 637V2498.22q-17.06 2.82-33.45 5.75V663.55Q1547.71 650 1564.66 637z" class="colord1dbed svgShape"/><path fill="#7a8db0" d="M3674.71,2649.22c0,67.86-189.12,128.24-482.85,166.79-210.1,27.58-473.74,44-760,44-331.67,0-633-22-855.87-57.94-238.33-38.41-386.93-92.68-386.93-152.84,0-34.29,48.26-66.66,133.87-95.28,205.11-68.54,624.68-115.52,1108.93-115.52,439.17,0,825.13,38.63,1046.19,97C3602.52,2568.21,3674.71,2607.28,3674.71,2649.22Z" class="color7a8db0 svgShape"/><ellipse cx="2384.85" cy="2649.21" fill="#71829e" rx="1022.33" ry="147.65" class="color71829e svgShape"/><path fill="#b5cae8" d="M2588.88,1230.78,1310.49,1404.22c-14.57,2-28.3-8.21-31.51-23.39L1136,703.28c-3.57-16.92,7.26-33.28,23.52-35.48l134.43-18.24,1194.13-162c15.41-2.1,29.69,9.39,31.89,25.65l75.94,559.63,16.91,124.72C2615,1213.81,2604.3,1228.69,2588.88,1230.78Z" class="colorb5cae8 svgShape"/><path fill="#5681bf" d="M2588.88,1230.78,1310.49,1404.22c-14.57,2-28.3-8.21-31.51-23.39L1136,703.28c-3.57-16.92,7.26-33.28,23.52-35.48l134.43-18.24c93.48,177.71,269.85,454,482.28,502.15,196.3,44.44,566-21.8,819.68-78.87l16.91,124.72C2615,1213.81,2604.3,1228.69,2588.88,1230.78Z" opacity=".1" class="color5681bf svgShape"/><path fill="#99b1da" d="M1253.67 858l32-4.57 87-12.43 128.72-18.39 157.06-22.45 172-24.58 173.66-24.81 161.93-23.14 136.85-19.55L2401.32 694c15.5-2.21 31.19-3.89 46.6-6.65.66-.12 1.33-.19 2-.29 4.92-.7 7.66-7 6.44-11.33-1.48-5.29-6.37-7.15-11.34-6.44l-32 4.57-87 12.44L2197.29 704.7l-157.06 22.44-172 24.58-173.66 24.81L1532.6 799.67l-136.84 19.55-98.4 14.06c-15.5 2.21-31.19 3.89-46.6 6.66-.66.12-1.33.19-2 .28-4.91.71-7.65 7-6.43 11.34 1.48 5.29 6.36 7.14 11.33 6.43zM1289 1014.7l32-4.57 87-12.44 128.72-18.39 157.06-22.44 172-24.58 173.66-24.81 161.94-23.14 136.84-19.55 98.4-14.06c15.49-2.22 31.18-3.89 46.59-6.66.66-.12 1.33-.19 2-.28 4.91-.71 7.65-7 6.43-11.34-1.48-5.29-6.37-7.14-11.33-6.43l-32 4.57-87 12.43L2232.58 861.4l-157.06 22.44-172 24.59-173.67 24.81-161.93 23.14-136.84 19.55L1332.65 990c-15.5 2.21-31.19 3.89-46.6 6.65-.66.12-1.33.19-2 .29-4.91.7-7.65 7-6.43 11.33 1.48 5.29 6.36 7.15 11.33 6.44zM1328.16 1196.5l32-4.57 87-12.44 128.72-18.39L1733 1138.66l172-24.58 173.67-24.81 161.93-23.14 136.84-19.55 98.4-14.06c15.5-2.21 31.19-3.89 46.6-6.66.66-.12 1.33-.19 2-.28 4.91-.7 7.65-7 6.43-11.34-1.48-5.29-6.36-7.14-11.33-6.43l-32 4.57-87 12.43-128.73 18.4-157.05 22.44-172 24.58L1769 1115l-161.94 23.14-136.84 19.55-98.4 14.06c-15.49 2.21-31.18 3.89-46.59 6.65-.66.12-1.33.19-2 .29-4.91.7-7.65 7-6.43 11.33 1.48 5.29 6.37 7.15 11.33 6.44z" class="color99b1da svgShape"/><path fill="#99b1da" d="M2590.3,1241.2,1311.91,1414.64c-19.92,2.7-38.91-11.2-43.22-31.65l-143-677.53a41.15,41.15,0,0,1,6.49-32.19,37.65,37.65,0,0,1,25.91-15.9L2486.63,477.13c21.13-2.87,40.76,12.69,43.74,34.67l92.84,684.33C2626.19,1218.11,2611.42,1238.34,2590.3,1241.2Zm-1429.4-563a16.81,16.81,0,0,0-11.53,7.16,20.16,20.16,0,0,0-3.1,15.72l143,677.54c2,9.71,10.74,16.37,19.81,15.14l1278.38-173.44c9.62-1.31,16.31-10.91,14.89-21.39l-92.85-684.33c-1.42-10.49-10.42-17.95-20.05-16.65Z" class="color99b1da svgShape"/><path fill="#d1dbed" d="M2366.9,806.05,2311.28,921.3l-70-33.79-134.42-64.87L1994.05,768.2l-117.46-56.69a9.54,9.54,0,0,1-.87-16.69L1931,660.48a50.33,50.33,0,0,1,42.49-5c.72.23,1.41.49,2.11.75l109.66,42L2212.59,747h0Z" class="colord1dbed svgShape"/><path fill="#ffffff" d="M1994.05,768.2l-117.46-56.69a9.54,9.54,0,0,1-.87-16.69L1931,660.48a50.33,50.33,0,0,1,42.49-5C1978.42,683.74,1986.84,729.47,1994.05,768.2Z" opacity=".5" class="colorfff svgShape"/><polygon fill="#ffffff" points="2241.28 887.51 2106.86 822.64 2085.29 698.2 2212.59 746.96 2212.62 746.95 2241.28 887.51" opacity=".5" class="colorfff svgShape"/><path fill="#5681bf" d="M1946.65,674.62a8.2,8.2,0,1,1,3.83,11A8.21,8.21,0,0,1,1946.65,674.62Z" class="color5681bf svgShape"/><rect width="160.17" height="34.46" x="2338.08" y="879.6" fill="#243354" transform="rotate(-72.92 2418.103 896.845)" class="color243354 svgShape"/><path fill="#2f4171" d="M2407.65,995.58l-96.17-46.42a14.33,14.33,0,0,1-7.51-17l44.62-149.73a14.33,14.33,0,0,1,20-8.81l118.6,57.24a14.32,14.32,0,0,1,6.67,19.14h0a14.34,14.34,0,0,1-19.14,6.68l-88.27-42.61a14.34,14.34,0,0,0-20,8.82l-28,94.06a14.33,14.33,0,0,0,7.51,17l74.18,35.81a14.34,14.34,0,0,1,6.68,19.14h0A14.34,14.34,0,0,1,2407.65,995.58Z" class="color2f4171 svgShape"/><path fill="#d1dbed" d="M1639.52,1126.12l-39.37,81.58-49.55-23.91-95.15-45.92-79.85-38.54-83.13-40.13a6.75,6.75,0,0,1-.62-11.81l39.15-24.3a35.59,35.59,0,0,1,30.07-3.55c.51.16,1,.35,1.49.53l77.62,29.72,90.12,34.51h0Z" class="colord1dbed svgShape"/><path fill="#ffffff" d="M1375.6,1099.33l-83.13-40.13a6.75,6.75,0,0,1-.62-11.81l39.15-24.3a35.59,35.59,0,0,1,30.07-3.55C1364.54,1039.55,1370.5,1071.92,1375.6,1099.33Z" opacity=".5" class="colorfff svgShape"/><polygon fill="#ffffff" points="1550.6 1183.79 1455.45 1137.87 1440.18 1049.79 1530.3 1084.3 1530.31 1084.29 1550.6 1183.79" opacity=".5" class="colorfff svgShape"/><path fill="#5681bf" d="M1342.06,1033.09a5.81,5.81,0,1,1,2.7,7.76A5.81,5.81,0,0,1,1342.06,1033.09Z" class="color5681bf svgShape"/><rect width="113.37" height="24.39" x="1619.12" y="1178.19" fill="#2f4171" transform="rotate(-72.92 1675.75 1190.382)" class="color2f4171 svgShape"/><path fill="#3d5891" d="M1668.36,1260.28l-68.07-32.86a10.14,10.14,0,0,1-5.31-12l31.58-106a10.14,10.14,0,0,1,14.13-6.24l84,40.52a10.14,10.14,0,0,1,4.73,13.54h0a10.15,10.15,0,0,1-13.55,4.73l-62.49-30.16a10.15,10.15,0,0,0-14.13,6.24l-19.84,66.58a10.14,10.14,0,0,0,5.31,12l52.52,25.35a10.15,10.15,0,0,1,4.72,13.55h0A10.15,10.15,0,0,1,1668.36,1260.28Z" class="color3d5891 svgShape"/><path fill="#243354" d="M1340.71 881.29l-76.83-89.55a37.23 37.23 0 01-37.09-16.9c-14.3-21.62 4.92-19.58 15.26-13.09s21.36.21 21-9.51-10-25.28 2.65-27.16 29.78 24.23 18.5 48.73l74.93 87.34s52.66-14.12 59.26 33.18c0 0-8.36 15.65-16.87 3.88s-22-25.62-35.88-11.58-13.42 18.93-7 27.69S1379.5 928.76 1372 936s-16.66 7.12-26.51-5.6S1330 891.85 1340.71 881.29zM1461.45 872.37l-67.13-70.06a30.59 30.59 0 01-31.21-12.2c-12.73-17.1 3.15-16.3 11.93-11.43s17.55-.8 16.78-8.76-9.38-20.3 1-22.42 25.55 18.54 17.39 39.17L1475.63 855s42.61-14 50.16 24.57c0 0-6.16 13.22-13.68 3.95s-19.21-20-30-7.89-10.17 16.15-4.47 23 17.79 10.92 11.91 17.21-13.35 6.6-22-3.4S1453.14 881.52 1461.45 872.37zM1590.47 851.82l-69-58.47a28.52 28.52 0 01-30.12-8.3c-13.45-14.62 1.35-15.41 10-11.75s16.19-2.43 14.71-9.74-10.66-17.92-1.29-20.88 25.48 14.73 19.91 34.64l67.3 57s38.15-17.06 48.88 17.94c0 0-4.44 12.86-12.31 5s-19.74-16.73-28.56-4.42-7.86 15.95-1.91 21.8 17.54 8.41 12.71 14.81-11.75 7.41-20.75-1S1583.64 861.11 1590.47 851.82zM1718.14 841.67l-59.47-50.4a24.67 24.67 0 01-25.84-7.29c-11.61-12.58 1.05-13.15 8.44-10s13.85-2 12.53-8.21-9.25-15.37-1.25-17.83 21.91 12.75 17.29 29.71l58 49.15s32.53-14.3 42 15.65c0 0-3.71 10.94-10.49 4.16s-17-14.41-24.48-4-6.62 13.56-1.48 18.59 15.07 7.3 11 12.73-10 6.24-17.77-1S1712.36 849.55 1718.14 841.67zM1826.41 830.35L1776 787.64a20.9 20.9 0 01-21.89-6.18c-9.85-10.66.88-11.14 7.15-8.44s11.73-1.66 10.61-7-7.84-13-1.05-15.11 18.56 10.8 14.64 25.18l49.16 41.65s27.57-12.11 35.56 13.27c0 0-3.14 9.27-8.89 3.53s-14.42-12.22-20.75-3.37-5.61 11.49-1.26 15.76 12.78 6.18 9.31 10.79-8.48 5.28-15.06-.87S1821.52 837 1826.41 830.35zM1847.88 1147.62h0a4.05 4.05 0 01-5.7-.52l-102.42-123.17a4.07 4.07 0 01.52-5.71h0a4.07 4.07 0 015.71.52l102.42 123.17A4.07 4.07 0 011847.88 1147.62z" class="color243354 svgShape"/><path fill="#5681bf" d="M1946.71,1266.17l-.29.25a22.55,22.55,0,0,1-31.65-2.91l-95.13-114.41a22.54,22.54,0,0,1,2.91-31.64l.3-.25a22.54,22.54,0,0,1,31.64,2.91l95.13,114.41A22.54,22.54,0,0,1,1946.71,1266.17Z" class="color5681bf svgShape"/><path fill="#243354" d="M2090,1114.78h0a4.06,4.06,0,0,1-5.7-.53L1981.86,991.08a4.07,4.07,0,0,1,.52-5.71h0a4.07,4.07,0,0,1,5.71.53l102.42,123.17A4.07,4.07,0,0,1,2090,1114.78Z" class="color243354 svgShape"/><rect width="45.32" height="193.73" x="2104.07" y="1062.11" fill="#5681bf" rx="10.8" transform="rotate(-39.74 2126.427 1158.921)" class="color5681bf svgShape"/><path fill="#2f4171" d="M1953.35 992.14c9.12 8.77 33.23 31.47 39.31 37.2a4 4 0 003.33 1.06l25.9 8.83c1.77-.25 16.47 4.07 6.14-5.31l-7.71-25.25a4.07 4.07 0 00-1.11-3.51l-35.76-36.53a4.08 4.08 0 00-5.31-.44l-24.35 17.72A4.07 4.07 0 001953.35 992.14zM2168.11 972.1s-35.08 28-33.46 35.61-17.46 10.19-16.52 17.13 11.92 18.41 18.78 16.89 6.72-15.64 13.82-15.42 19.7-19.75 26.37-22.72 29.15-19.57 55.55-16.08l4.26-7.65S2198.33 960.33 2168.11 972.1z" class="color2f4171 svgShape"/><polygon fill="#2f4171" points="2158.49 1005.38 2294.59 1151.71 2303.72 1137.9 2166.32 993.6 2158.49 1005.38" class="color2f4171 svgShape"/><rect width="26.46" height="128.08" x="2272.64" y="1064.97" fill="#5681bf" rx="6.02" transform="rotate(-44.73 2286.055 1129.025)" class="color5681bf svgShape"/><path fill="#243354" d="M1932.3,1099.69h0a2.94,2.94,0,0,1-4.13-.38l-74.09-89.1a2.94,2.94,0,0,1,.38-4.13h0a2.94,2.94,0,0,1,4.13.38l74.09,89.1A2.94,2.94,0,0,1,1932.3,1099.69Z" class="color243354 svgShape"/><path fill="#5681bf" d="M2003.79,1185.45l-.21.18a16.3,16.3,0,0,1-22.89-2.1l-68.82-82.77a16.3,16.3,0,0,1,2.1-22.89l.22-.17a16.3,16.3,0,0,1,22.89,2.1l68.82,82.76A16.3,16.3,0,0,1,2003.79,1185.45Z" class="color5681bf svgShape"/><polygon fill="#5681bf" points="3513.79 2553.22 3287.47 2577.92 3115.1 1228.49 3341.42 1203.79 3513.79 2553.22" class="color5681bf svgShape"/><polygon fill="#99b1da" points="3480.45 2556.73 3254.13 2581.43 3081.76 1232 3308.07 1207.3 3480.45 2556.73" class="color99b1da svgShape"/><path fill="#5681bf" d="M3156.26,1416.83c-6.81-38.79-16-70.62,7-107.53,2.89-4.65,32.92-37.47,38.08-38.63,32.1-7.17,46.54,19.14,50.13,44.77,3.74,26.67-1.55,52.74-4.26,79.27-1,9.48,2.12,27.73-2.23,36.19l-70.25,40.4q-18.48-23.77-16.84-53.47c-.4-6.36-10.36-6.4-9.95,0,2.52,39.37,22.52,87.6,71.25,72.45,21.45-6.67,31-23.9,34.65-44.92,5.94-34.58,9.2-76.24,9.12-111.23-.07-29.7-14.82-99.46-58.45-79.2-13.34,6.19-25.46,24.17-35.6,34.46-9.9,10-29.77,24-34.74,38.35-8.5,24.55,8.25,67.35,12.53,91.73,1.11,6.3,10.7,3.63,9.6-2.64Z" class="color5681bf svgShape"/><path fill="#5681bf" d="M3174.29 1343.67c-1.76 13.95-1 27.58 1 41.47 1.34 9.24 1.39 22.91 8 30.35 10.3 11.6 28.08 2.27 31-10.83 2.48-11.23-1.69-25.1-3.29-36.2-1.34-9.34-1.07-22.46-8.22-29.76-8.62-8.8-26.12-4-24.12 9.35 1 6.31 10.55 3.63 9.6-2.64q8.73-1.83 9.59 4.81a22.26 22.26 0 011.44 6.13c1 4.86 1.41 9.86 2.12 14.76s1.43 9.84 2.11 14.76a61.59 61.59 0 011.34 11.38q1.54 10.39-16 7.43c-4-4.36-4.18-23.32-4.78-28.88a137 137 0 01.19-32.13c.8-6.34-9.16-6.28-9.95 0zM3139.87 1505.12c14.51 20.64 23.58 47.6 49.57 56.58 22.7 7.84 47.46-2.26 67.42-13 19.36-10.4 30.07-20.39 34.76-42.16 6.36-29.56 22.12-54.34 14.93-85.12-1.45-6.24-11.05-3.6-9.59 2.64 5.27 22.58-4.37 37.11-10.68 58.12-6.65 22.12-2.46 36.71-26.39 53.44-5.32 3.72-11.92 6.74-17.81 9.4-15 6.76-41.44 12.47-56.62 4-17.37-9.63-26-33.29-37-49-3.65-5.2-12.29-.23-8.59 5zM3205.1 1910.45c7.68-57.4-15.52-108.62-12.95-166.13q4.35-27.36 8.71-54.71-.21-59.64 56.79-7.14 86.26 8.83 52.36 100.53a357.41 357.41 0 00-7.41 37.35c-4.58 35.08.27 65.39 9 99.82 4.63 18.3 31.41 69.41 23.84 83.93l-106.92 39.63a299.69 299.69 0 01-18.32-89.29c-.5-6.34-10.45-6.4-9.95 0 4.15 52.81 35.3 202.79 121.27 138 23-17.34 27-41.37 26.82-68.37-.26-36.63-19.39-71.46-27.14-106.55-12.21-55.24-.69-103 2.21-156.87 2.38-44.09-29.43-186.29-104.47-137.69-77 49.86-15.17 223.32-23.75 287.49-.85 6.33 9.11 6.27 9.95 0z" class="color5681bf svgShape"/><path fill="#5681bf" d="M3221.7,1746.52c-8.77,32.23,13,57,13.66,89.41.76,35.58-2.55,65.71,8.38,100.59,5,16.09,18.3,54.7,33.74,26,16.11-29.93,3.6-90.27,1.1-122.31-2-26-1.44-66.9-16.62-89-11.7-17-41.14-21.53-37.5,5.49.85,6.32,10.44,3.63,9.59-2.65q26.11.56,26.21,24.33,1.6,7.8,3.23,15.61c3.76,20.47,4.86,41.39,6.17,62.14,1.1,17.47,2.42,35.08,2.21,52.61-.21,17.75,6.23,73.74-13.43,38.33-17.08-30.76-15.33-71.27-13.72-105,1.49-31.18-21.59-62.94-13.42-93,1.68-6.19-7.92-8.83-9.6-2.65Z" class="color5681bf svgShape"/><path fill="#868686" d="M3221.05 2160.56c13.41 17.34 30.31 52.43 51.14 61.41 14.08 6.07 39-2.22 52.58-4.51 53.82-9.07 68.38-43.54 77.94-95.12 1.16-6.26-8.43-9-9.6-2.65-2.81 15.19-6.35 30.15-12 44.58-10.51 26.8-31.78 39-59 43.6-20.22 3.41-41.23 6-57.72-7.4-13.86-11.23-25.41-32.86-36.31-46.95-3.91-5.06-10.91 2-7 7zM3229.72 2264a740.6 740.6 0 0173.45 124.58c10.72 23.22 19.23 40.79 47.24 41.27 72.61 1.25 75.7-91.82 80-143.71.53-6.38-9.43-6.34-9.95 0-2.33 28-4.08 57.25-12.19 84.3-12.66 42.26-68.46 75-93.9 19.06a750.94 750.94 0 00-76.07-130.53c-3.73-5.13-12.36-.17-8.6 5z" class="color868686 svgShape"/><rect width="203.4" height="1441.67" x="3377.79" y="1133.18" fill="#3d5891" transform="rotate(10.79 3479.514 1854.026)" class="color3d5891 svgShape"/><rect width="203.4" height="1441.67" x="3348.39" y="1127.44" fill="#5681bf" transform="rotate(10.79 3450.129 1848.308)" class="color5681bf svgShape"/><path fill="#3d5891" d="M3491.58,1330.6c4.77-31.86,3.66-69.71,25.6-93.64,10.08-11,27.47-30.14,43.33-34.12q19.69-23.08,30.17,9.86,27.12,19.5,10.64,50.61c-6.44,26.68-19.72,51.11-29.47,76.62-2.87,7.54-12.06,42.48-17.1,46.62l-68.29-15.16a158.59,158.59,0,0,1,6.41-40.71c1.5-6-7.84-8.64-9.33-2.58-8.23,33.36-11.95,96.79,40.66,93.07,18.4-1.3,30.75-14.5,38.91-29.73,16.73-31.24,27.87-68.79,39.92-102.07,8.7-24,31.52-118.2-20.6-110.45-20.19,3-63.9,33.85-77.47,49.54-20.34,23.51-18.21,69.42-22.72,99.57-.92,6.09,8.41,8.72,9.34,2.57Z" class="color3d5891 svgShape"/><path fill="#3d5891" d="M3529.31 1259.11a183.64 183.64 0 00-11.51 38.58c-1.89 10.08-5.6 22.53-4.27 32.88 2.15 16.73 21.29 16.92 29.78 4.94 6.84-9.66 7.12-24.26 9.12-35.56 1.84-10.39 6.88-24.24 3.45-34.76-3.76-11.54-22.12-14.24-24.44-.65-1 6.1 8.29 8.72 9.34 2.58q7.33 6.47 5.14 14.25l-1.41 8-2.36 13.34c-.79 4.44-1.48 8.9-2.36 13.33a53.11 53.11 0 01-1.53 7.08q-1.28 9.29-15.11 3c-2.41-5.2 3.31-22.55 4.47-28.39a169.81 169.81 0 0110.05-33.69c2.42-5.67-5.92-10.61-8.36-4.89zM3450 1414.2c5.65 23.66 4.29 54.77 25.42 71.39 17.3 13.61 41.43 10.25 61.21 5.1 21.44-5.58 32.79-13.58 42.77-33.4 14.19-28.19 35.26-48.91 38.58-81.4.63-6.19-9.06-6.15-9.68 0-2.38 23.23-13.89 35.51-25.72 53.76-12.93 20-13.68 38.95-40.3 49.4-5.16 2-11.17 3.2-16.6 4.27-21.93 4.32-28.9 3.38-44.33-12.56-18.09-18.68-16.27-35.09-22-59.14-1.44-6.06-10.78-3.49-9.34 2.58zM3380.54 1844.45c20.5-47.44 19.65-95.24 32.1-144.7 5.46-21.72 24.32-101.35 47.24-108 123-35.84 56.53 132.32 42.48 163.79-17 38.1-29 70-33.36 112.25-3.28 31.77 3.7 72.91-7.66 103q3.7 77.28-101.65 14.3a370 370 0 0112.07-95.73c1.42-6.07-7.92-8.65-9.34-2.58-9.62 41.21-37.77 215.25 61.34 173.24 25.49-10.81 36-35.67 43.57-60.16 8.4-27.3 6.26-58.31 8.52-86.25 5-62.36 18.8-107.43 41-165 15.41-40 60.45-172.21-10.74-191.59-98.5-26.81-114.87 238.51-133.92 282.6-2.45 5.66 5.9 10.6 8.36 4.89z" class="color3d5891 svgShape"/><path fill="#3d5891" d="M3444.74,1682.05c-9.46,16.45-10.63,28.68-10.83,47.71-.35,34-12.51,60.31-20.66,92.62-5.76,22.82-21.72,82.54-1.78,100.75a4.87,4.87,0,0,0,4.71,1.25c17.74-6.3,23.05-38.05,28.16-53.81,14.33-44.13,26.65-91.2,32.12-137.32,1.63-13.82,8.35-44.67-8.54-54-12.63-7-21.33-.18-23.66,12.4-1.12,6.09,8.21,8.7,9.34,2.57q22.21,9.21,14.21,30.68-2.39,16-4.76,32.08c-3.06,16.63-7.28,33-11.33,49.47-3.82,15.48-7.59,31-12.09,46.31q-4.37,15.32-9.75,30.31-10.32,47.25-13.56,19.51c-13.44-33,8.41-85.64,19.44-117.49,10.83-31.31.83-69.43,17.34-98.14,3.12-5.41-5.25-10.29-8.36-4.89Z" class="color3d5891 svgShape"/><path fill="#868686" d="M3316.38 2100.11q6.82 24 13.63 48.1c2.48 8.76 3.81 21.69 10.73 28.5 9.77 9.63 30.17 8.79 42.9 10.37 20.76 2.59 40.82 4.05 57.83-10.08 19-15.8 31.68-42.22 42.08-63.91 2.68-5.6-5.66-10.52-8.36-4.89a288.93 288.93 0 01-22.27 39.33c-18.08 26.28-35.85 33.92-68 30-21.6-2.65-34.92-4.09-44.06-26.52-6.85-16.82-10.19-36-15.14-53.45-1.69-6-11-3.44-9.34 2.58zM3292.2 2208.6c13.72 54.49 17.7 108.39 24.91 163.8 2.56 19.69 10.4 33.88 31 39.08 64.24 16.24 92-81.44 108.43-124.48 2.23-5.83-7.13-8.35-9.34-2.58-10 26-19.89 52.69-33.61 77-7.4 13.12-17.85 29.78-32.34 36.73-37.31 17.91-49.63-17.95-55.64-45.28-10.62-48.3-11.79-98.25-24-146.85-1.52-6-10.86-3.48-9.34 2.57z" class="color868686 svgShape"/><polygon fill="#99b1da" points="3472.37 2568.66 3269.08 2564.95 3268.96 1349.98 3472.25 1353.69 3472.37 2568.66" class="color99b1da svgShape"/><polygon fill="#b5cae8" points="3442.43 2568 3239.14 2564.29 3239.03 1349.32 3442.31 1353.03 3442.43 2568" class="colorb5cae8 svgShape"/><path fill="#99b1da" d="M3284.17,1522.11c-1.16-24.71-11-64.82,6-85.5,5.47-6.67,22.95-19.71,30.48-23.93q13.84-17.73,33.78,0,32.64-.93,26,29.74c.47,30.1-11.9,60.14-17.45,89.51-1.76,9.35-2.17,18.87-6.08,27.73q-9.36,41.67-70.23-3a115.89,115.89,0,0,1-1.23-34.66c.36-5.71-8.53-5.69-8.89,0-2.24,35.4,13.48,85.78,60.45,70.71,16.8-5.39,25.07-18.36,30.11-34.56,9-28.83,15.58-62.83,20.11-92.68,3.94-25.92.94-95.92-42.07-81.93-18.11,5.89-61.4,39.67-70.19,56.1-10.32,19.27-.7,61,.3,82.48.27,5.69,9.16,5.73,8.89,0Z" class="color99b1da svgShape"/><path fill="#99b1da" d="M3308.49 1458.09a137.1 137.1 0 00-3.93 36.84c.13 8.24-1.14 19.42 3 27 6.78 12.56 24.56 7.7 29.2-4.09 3.82-9.69 1.57-22.26 1.42-32.37-.14-8.49 1.56-20-3.65-27.46-5.93-8.52-23.06-7.76-22.78 4.46.13 5.71 9 5.73 8.89 0q8.71 1.76 8.38 8.13.15 3.44.14 6.88c.07 3.55.11 7.1.17 10.65.1 6.67 1.66 41.57-11.19 27.91-10.44-11.11-4.58-41.85-1-55.58 1.43-5.54-7.14-7.91-8.57-2.36zM3259.87 1598.35c10.19 20 16.06 45.48 38.27 55.77 21 9.71 47.57 1.69 67.28-7.3 15.91-7.25 22.45-14.68 28.51-30.5 9.34-24.39 25.66-46 22.87-73.14-.58-5.63-9.48-5.69-8.89 0 2.05 20-7.56 33.15-15.73 50.38-7.17 15.13-6.57 30.17-22.87 41.57-10.69 7.47-38.07 16.9-50.94 14.42-31.34-6-38.67-31.84-50.82-55.68-2.6-5.1-10.27-.61-7.68 4.48zM3271.46 1964.94c10.28-38.7 3.68-72.83 4.44-112.41.38-19.41-.35-69.4 17.08-84.88 111.06-98.66 93.55 65.79 85.76 96.15-9.78 38.15-17.75 64.34-16 105.17.92 21.67 20.31 84.22 13.67 92.41l-99.28 23.1a223.13 223.13 0 01-6-81.19c.28-5.71-8.61-5.7-8.89 0-2.27 46.69 8.26 184.31 92.37 135.15 22.18-13 28-33.29 31-56.65 3.61-27.28-6.33-56.39-9.65-83.25-7.54-61 7.35-97.64 17.5-154.09 7.11-39.57 2.5-142.46-61.32-137-89.6 7.66-56 205.2-69.28 255.12-1.47 5.54 7.1 7.9 8.58 2.37z" class="color99b1da svgShape"/><path fill="#99b1da" d="M3304.64,1821.5c-12.16,29.35,5.05,59.39-.15,90.46-5.1,30.47-7.12,61.14.79,91.44,6,23,16,32.45,26.54,8.22,11.06-25.35,10.23-60.61,11.95-87.55s8.9-68.31-3.62-93.83c-7.86-16-34.25-24.94-34.08-.56,0,5.72,8.93,5.73,8.88,0q29.22,6.45,21.48,37.45l.3,14.23c.1,14.22-.95,28.53-1.85,42.71-1.08,16.83.39,89-21,77-7.87-4.4-5.42-50.34-4.87-58.34.93-13.62,5.48-27,6.68-40.43,2.27-25.35-12.36-54.5-2.45-78.41,2.18-5.28-6.41-7.58-8.57-2.36Z" class="color99b1da svgShape"/><path fill="#868686" d="M3257.11 2187.22c10 17 20.91 49.74 38.24 60.28 12.26 7.45 34.57 2.94 47.75 2.34 48.94-2.23 65.56-31.69 79.77-76 1.75-5.46-6.83-7.8-8.57-2.36-4.91 15.3-10.4 33.17-20.44 46.15-18.76 24.26-38.72 23-64.79 23.69-19.67.49-27.87-2.32-40.42-18-9.44-11.78-16.21-27.59-23.87-40.62-2.9-4.93-10.58-.46-7.67 4.49zM3253.67 2280.79c22.71 41.53 38.07 84.36 53.85 128.74 6.41 18 14.73 29 35 31.6 63.19 8.23 76.56-73.45 86-117.91 1.19-5.58-7.38-8-8.57-2.36-5.08 23.82-10.24 48.57-19.58 71.16-14.76 35.69-61.54 62.51-84.36 15.15-9.9-20.54-14.34-44.78-23.22-66a691.33 691.33 0 00-31.52-64.86c-2.75-5-10.43-.54-7.68 4.49z" class="color868686 svgShape"/><path fill="#f3ce90" d="M3625.47,2070.88l-26.18,455.75-2.92,50.81a48.12,48.12,0,0,1-48,45.36h-293.8a48.1,48.1,0,0,1-47.95-44.09L3164,2072.15a48.13,48.13,0,0,1,48-52.15h365.45A48.12,48.12,0,0,1,3625.47,2070.88Z" class="colorf3ce90 svgShape"/><path fill="#f19a6d" d="M3599.29,2526.63l-2.92,50.81a48.12,48.12,0,0,1-48,45.36h-293.8a48.1,48.1,0,0,1-47.95-44.09L3164,2072.15a48.13,48.13,0,0,1,48-52.15h11.89l37.48,256.31,43.9,58.76a509.21,509.21,0,0,0,294,191.56Z" opacity=".3" class="colorf19a6d svgShape"/><path fill="#111111" d="M2662.22,1255.4s-42.84,122.23-92.34,115.87,8.62-166.18,8.62-166.18l66.31,18.9Z" class="color111 svgShape"/><path fill="#2f4171" d="M2675.92,2684.88a152.16,152.16,0,0,1-1.84,20.46c-15.56,8.59-41.53,14-68,17.39-44.43,5.7-90.22,5.74-90.22,5.74-53.31-3.1-106.91-16-159.21-30.32-8.56-2.33-17.07-4.71-25.55-7.07-11.61-3.24-25-8.14-28.39-19.71-1.72-5.82-.39-12,1.07-17.93q1.28-5.16,2.7-10.28a421,421,0,0,1,34.65-86.65l-.69,5,13.62-24q1.65-2.92,3.32-5.85c2.43-4.29,4.87-8.6,7.31-12.89l.68.29c41.63,17.69,69.67,30.72,114.67,33.43l1.32.08a61.3,61.3,0,0,0,2.35,12.32,64,64,0,0,0,2.37,6.51c10.94,25.72,38.15,43.63,62,54.82a230.15,230.15,0,0,0,36.1,13.42c6.31,1.68,12.74,3.3,19,5.25h0c60-.14,65.19,15.22,65.19,15.22C2674.67,2662.85,2676.07,2674.22,2675.92,2684.88Z" class="color2f4171 svgShape"/><path d="M2675.92,2684.88a152.16,152.16,0,0,1-1.84,20.46c-15.56,8.6-41.54,14-68,17.4-44.43,5.69-90.22,5.74-90.22,5.74-62-3.61-124.44-20.54-184.76-37.4-11.61-3.24-25-8.14-28.39-19.71-1.72-5.81-.39-12,1.07-17.92q1.28-5.16,2.7-10.28c27.1,14.18,67.2,32.09,108.08,39.4,72.21,12.92,119.24,28.89,193,17.83C2643.62,2695,2664.25,2689.3,2675.92,2684.88Z" fill="#000000" class="color000 svgShape"/><path d="M2322.78 2579.64A164 164 0 012353 2674c0 1.82-2 3.2-3.7 3a3.46 3.46 0 01-3-3.7 158.2 158.2 0 00-17.93-71.63A153.43 153.43 0 002317.6 2584a3.48 3.48 0 01.41-4.77 3.42 3.42 0 014.77.41zM2624.73 2646.9c-20.94 5.52-39.23 21.4-48.34 41.14a71.17 71.17 0 00-5.6 17.8 3.49 3.49 0 01-3.7 3 3.42 3.42 0 01-3-3.7c4.11-24 19.52-45.19 40.58-57.26a78 78 0 0118.94-7.68 3.4 3.4 0 013.91 2.75 3.44 3.44 0 01-2.75 3.91zM2366.08 2589.48a19.09 19.09 0 1022.25-15.29A19.09 19.09 0 002366.08 2589.48zM2486.11 2571.44a160.79 160.79 0 01-35.63.23c-25.58-2.62-50.25-11-73.36-22.06-7.82-3.74-15.49-7.79-23-12.06q1.65-2.93 3.32-5.85c16.78 9.47 34.18 17.87 52.47 24 23.68 8 48.92 12 73.86 9.19A64.13 64.13 0 002486.11 2571.44z" fill="#000000" class="color000 svgShape"/><path fill="#243354" d="M2548.11,2626.25c-3.07-.77-6.14-1.55-9.22-2.23-51.48-11.38-108.09,3.72-147.07,39.21-8.74,8-17.22,18.69-15.29,30.36l-19.85,4.56c-8.56-2.33-17.07-4.71-25.55-7.07-11.61-3.24-25-8.14-28.39-19.71-1.72-5.82-.39-12,1.07-17.93q1.28-5.16,2.7-10.28a421,421,0,0,1,34.65-86.65l-.69,5,13.62-24q1.65-2.92,3.32-5.85c2.43-4.29,4.87-8.6,7.31-12.89l.68.29c41.63,17.69,69.67,30.72,114.67,33.43l1.32.08a61.3,61.3,0,0,0,2.35,12.32,64,64,0,0,0,2.37,6.51C2497.05,2597.15,2524.26,2615.06,2548.11,2626.25Z" opacity=".3" class="color243354 svgShape"/><path fill="#2f4171" d="M1511.86,2497.15c-2.27.8-4.95,1.65-8.08,2.57-2.24.65-4.69,1.35-7.4,2.08-25.25,6.8-38.59,23.73-46.16,37.67-4.66,8.59-7.14,16-8.87,19.33-2.66,5,13.64,26.75,28.54,46.49l5.89,7.82c8.15,10.89,14.92,20.28,16.44,24.64,1,3,1,6.79.27,10.85a81.09,81.09,0,0,1-5.7,17.46,135.25,135.25,0,0,1-6.11,12.25c-23.24,1-57.48-14.1-57.48-14.1-47-21-84.76-92.67-85.66-140.63-.74-39.53,39.86-173.56,54.17-219.5a18.26,18.26,0,0,1,20.92-12.47l14.42,2.8,39.87,7.75,8.12,1.58,19,3.7,8.15,1.58,8.11,1.58c9,5.62,12.15,9.16,10.67,17.06-1.62,8.64-8.78,22.5-19.84,50-16.53,41.19-1.13,74.7,8.77,91.82,2.77,4.8,5.11,8.31,6.2,10.34C1520.27,2487.64,1532.27,2490.06,1511.86,2497.15Z" class="color2f4171 svgShape"/><path fill="#f5b0a6" d="M2883.06,2204q-3,24.46-5.92,48.93-21.85-5.7-43.5-12.08a1432.8,1432.8,0,0,1-207.24-79c-6.54-3.09-13.33-6.45-17.72-12.2-1.83-2.37-17-33.43-36.64-73.33-26.16-53.18-60.23-122.13-81.11-159.93-3.72-6.73-7.61-13.62-8.71-21.23a31.5,31.5,0,0,1,16.15-31.62l38.13-5.91,85-13.18c8.5,16.53,19.61,39.67,31.41,63.9,17.06,35,35.61,72.21,49.95,94.93,11,17.49,22.48,34.83,36.26,50.25,12,13.44,25.69,25.28,39.33,37.07l60.81,52.61q10.52,9.11,21.06,18.21l8,6.9c5.94,5.14,12.16,10.69,14.46,18.2C2884.46,2192.12,2883.76,2198.15,2883.06,2204Z" class="colorf5b0a6 svgShape"/><path fill="#f18a8b" d="M2823.61,2176.81c-1,12.35,24.8,24.79,24.8,24.79l-35.11,6.55s-6.25,12,9.94,20c7,3.46,9.64,8.28,10.4,12.64a1432.8,1432.8,0,0,1-207.24-79c-6.54-3.09-13.33-6.45-17.72-12.2-1.83-2.37-17-33.43-36.64-73.33l34.17-56.3,26.9-14s-12,124.08,16.37,150.95,140.06,34.61,140.06,34.61l49.64-48.45.07,0,34.86,16.33s-6,.59-13.8,1.88C2845.58,2163.84,2824.24,2168.73,2823.61,2176.81Z" opacity=".6" class="colorf18a8b svgShape"/><path fill="#f18a8b" d="M2652.9,1908.33l-108,21.91-8.39-72.63,85-13.18C2630,1861,2641.1,1884.1,2652.9,1908.33Z" class="colorf18a8b svgShape"/><path fill="#6fc183" d="M2650.82,1879.08q-69.37,23.18-138.75,46.33c-4.21,1.41-8.69,2.84-13,1.87-8-1.76-11.95-10.37-17.21-16.6-11.89-14.09-33.22-17-50.93-11.84s-18.65,45.09-33.14,56.49c-79.17,62.29-133.64,102.72-187.72,187.72-7.3,11.47-49.65,19.94-66.66,25.2a92.47,92.47,0,0,1-28.14,3.26,446.64,446.64,0,0,1-50.52-6.32A465.24,465.24,0,0,1,1927,2116.57a456.62,456.62,0,0,1-89-63c-23-20.85-43.77-44-64.52-67-3.28-3.64-4.79-8.26-7.24-12.5-7.25-12.49-4.12,1-13.8-10.19s34-111.35,34-111.35c78.79-188.21,171.57-281,235.06-338.58,64.05-58.08,233.15-37.58,233.15-37.58a289.27,289.27,0,0,1,124.76,42.49c40.52,25.15,86.45,64.31,122.47,100.71a190.92,190.92,0,0,1,32.61,44.22C2558.37,1708.4,2612.59,1809.38,2650.82,1879.08Z" class="color6fc183 svgShape"/><path fill="#40947e" d="M2098.25 1978.69l-29.52 185-4 1.48A465.24 465.24 0 011927 2116.57c-.4-7.6 3-13.94 12.38-17.85 45.26-19 36.56-52.51 34.51-107.82s-93.42-15.62-105.54-77S1923.84 1700 1923.84 1700s61.66-35.7 81.44-36.42 34.65 122.79 34.65 122.79zM2130.93 1479.6s44.89 125.77 42.83 181.42-47 34.79-47 34.79l13.1 117.22 28.48 39.57 169.11-29s105.08-61.66 114.26-113.29-8.52-135.81-8.52-135.81S2437 1706.4 2419 1724.9s-61.5 61.94-92 55.91-50.9-16.77-65.85-61.93-72.15-244.31-72.15-244.31z" opacity=".3" class="color40947e svgShape"/><path fill="#f5b0a6" d="M1671.59,2384.77a424.56,424.56,0,0,0-34,120.5c-30.73-10.73-84.5-25.35-127.68-35.74-9.9-17.12-25.3-50.64-8.77-91.83,11-27.54,18.22-41.39,19.84-50,27.5,7.39,59.71,18,84.19,26.13Z" class="colorf5b0a6 svgShape"/><path d="M1475 2303.74c-8.66 22.2-25.81 41.19-47.36 51.41-6.8 3.23-17 6.48-22.75-.43-1.42-1.68-1.78-4-.14-5.76 1.38-1.46 4.34-1.84 5.76-.14a5.1 5.1 0 001.09 1.09c.76.49.44.35 1.15.51a10.49 10.49 0 004 .07 31.77 31.77 0 007.48-2.72 86.87 86.87 0 0016.53-10.53 89.71 89.71 0 0023.44-29.25q1.46-2.88 2.64-5.83zM1475.78 2613.11a71.72 71.72 0 00-38.79 12.48 66 66 0 00-12.1 10.66c-3.51 3.91-9.4-1.72-5.91-5.62a78.84 78.84 0 0150.91-25.34zM1416.69 2394.14a23 23 0 1022.41-23.54A23 23 0 001416.69 2394.14zM1511.86 2497.16c-2.27.79-4.95 1.65-8.09 2.57a175.7 175.7 0 01-20.44-43.25c-10.72-33.9-10.84-70.35-3.28-104.92a258 258 0 0114-44.12l8.15 1.58c-12.13 28.65-19.4 59.51-19.34 90.69.07 32.26 8.36 64.4 25.41 92C1509.42 2493.53 1510.61 2495.35 1511.86 2497.16z" fill="#000000" class="color000 svgShape"/><path fill="#f5b0a6" d="M2497.59,2460.19l-17.52,92.33c-45-2.71-73-15.73-114.67-33.42,10.95-57.51,32.44-150.22,38.43-191.11Z" class="colorf5b0a6 svgShape"/><path fill="#2c4da2" d="M1764.68,1968.41c-46.8,66.16-65.4,154.2-57.07,234.81s46.78,157.76,106.13,213c-31.58-14.62-221.23-94.79-255.12-102.67-14.09,71.87-28.24,144.36-27.38,217.6.08,6.48.53,13.62,5,18.28,3,3.08,7.21,4.52,11.28,5.84,84.18,27.25,327,116.8,414.4,130.82,64.08,10.27,134.92,15.54,188.84-20.57,53.69-35.95,76.5-106.09,71.36-170.49s-33.8-124.43-64.88-181.06q110-52.08,217.38-109.55-24.84,156.16-49.69,312.31a1152.35,1152.35,0,0,0,202.61-17,2287.53,2287.53,0,0,1,87.7-420.43c12.23-39.58,25.58-82.23,12.38-121.5-14.05-41.76-57.11-69.54-101-73.57s-87.66,12.55-124,37.47-66.36,57.8-96,90.37l-105,115.25c-3.16,3.47-6.43,7-10.68,9-4.73,2.2-10.16,2.21-15.38,2.1a508.43,508.43,0,0,1-129-19.55c-103.25-29.63-194-91-282.88-151.35Z" class="color2c4da2 svgShape"/><path fill="#5681bf" d="M2814.86,2432.43c106.64-105.44,209.52-211.18,317.83-319.76,1.77-1.77,3.69-3.55,5.71-5.23,8.08-6.73,21.55,6,16.63,15.29-6.33,12-14.47,23.12-22.24,34.19-17.6,25.07-36.47,48.83-55.79,72.56q-30.37,37.32-60.88,74.52-36.7,44.77-73.66,89.36-36.26,43.71-72.91,87.09-14,16.47-28.05,32.83Z" class="color5681bf svgShape"/><path fill="#f5b0a6" d="M2413.3,1584.72c3.39,5-18.53,132.52-97.05,112.56-13.85-3.54-24.27-15.69-32.18-26.86a222.83,222.83,0,0,1-22.86-41.8l0,0c-8.61-20.23-14.92-41.62-19.9-62.39-4.56-19-10.52-40-1.56-59,5.73-12.11,16.93-24.34,30.89-15.92l.69.41c3.56-8,25.57-48.65,45.31-84.9l4.49-8.23c4.55,24.73,12.73,51.39,27.42,70.15,25,31.93,47.26,53.58,70.51,62.54-5.57,9.3-11.65,19.33-15.77,26.44a96.43,96.43,0,0,0-4.87,9,122.35,122.35,0,0,1,11,12.63C2410.77,1581.06,2412.06,1582.88,2413.3,1584.72Z" class="colorf5b0a6 svgShape"/><path fill="#f18a8b" d="M2419,1531.25c-5.57,9.3-11.65,19.33-15.77,26.44-63.47-53.51-82-112.32-86.65-150.9l4.49-8.23c4.55,24.73,12.73,51.39,27.42,70.15C2373.49,1500.64,2395.79,1522.29,2419,1531.25Z" class="colorf18a8b svgShape"/><path fill="#7b7b7b" d="M2504.43,1515.64a42.22,42.22,0,0,1-5.15,1.47c1.41-.79,2.83-1.59,4.25-2.42Z" class="color7b7b7b svgShape"/><path fill="#25427c" d="M1804.8,2409a839.09,839.09,0,0,0,122.44,70.13c5,2.35,9.44-5.13,4.38-7.49a839.43,839.43,0,0,1-122.43-70.14c-4.61-3.18-9,4.34-4.39,7.5Z" class="color25427c svgShape"/><path fill="#2f4171" d="M2648.81,2264.9l-6.35-23.58,18.71-5.88,14.22.51a6,6,0,0,1,4.15,1.85l137.75-37.1,3.1,11.53-137.75,37.1A6,6,0,0,1,2680,2253l-12,7.58Z" class="color2f4171 svgShape"/><polygon fill="#4b4b4b" points="2679.05 2244.3 2676.15 2245.32 2676.9 2248.11 2665.7 2255.16 2652.95 2258.03 2649.48 2245.19 2661.94 2241.26 2675.41 2241.9 2676.16 2244.7 2813.19 2207.79 2813.3 2208.15 2679.05 2244.3" class="color4b4b4b svgShape"/><path fill="#3d5891" d="M2764.63,2205.59l19.95-5.37a3.53,3.53,0,0,0,2.48-4.31,3.51,3.51,0,0,1,2.48-4.31l81-21.82a3.51,3.51,0,0,1,4.31,2.48l9.6,35.64a3.53,3.53,0,0,1-2.48,4.31L2801,2234a3.5,3.5,0,0,1-4.3-2.48,3.53,3.53,0,0,0-4.31-2.48l-19.95,5.37a3.5,3.5,0,0,1-4.3-2.48l-5.95-22.06A3.52,3.52,0,0,1,2764.63,2205.59Z" class="color3d5891 svgShape"/><path fill="#f5b0a6" d="M2940.48,2127.32a22.32,22.32,0,0,0,2.67,4.42c3.5,4.27,3.92,10.64,2.22,16-1.86,5.83-5.79,10.73-9.64,15.48,11-1,22,7.54,23.81,18.43s-5.83,22.51-16.55,25.15c9.48,4.55,14.72,16.46,11.66,26.53s-14,17-24.45,15.54c7.87,6.27,4.29,20.09-4.23,25.44s-19.39,4.66-29.38,3.45c-11.58-1.41-23.17-3.28-34.21-7-12.11-4.11-25.36-14.45-22.11-26.82l21.37-5.28a92.37,92.37,0,0,1-38.4-10.42c-4-2.1-8.25-4.91-7.43-10.68a12,12,0,0,1,7.26-9.05,71.12,71.12,0,0,1,37-5.32,179.91,179.91,0,0,1-36.45-3.56,12.51,12.51,0,0,1-6-2.8c10.23,9.25,21.12-30.58,6-20,10.3-7.2,22.16-11.93,34.27-15.08a56,56,0,0,1,16.23-2.2c5.26.15,12-2.46,17-1.45a261.81,261.81,0,0,1-52-14.92c-10.44-4.2-17.63-12.89-5.73-21,25.54-17.44,58.73-14.23,89.7-8.08A24.67,24.67,0,0,1,2940.48,2127.32Z" class="colorf5b0a6 svgShape"/><path fill="#99b1da" d="M3315.82,2125.5c-97.63,163.82-214.18,316.2-336.34,462.66-5.11,6.13-10.35,12.34-17.1,16.61a45.08,45.08,0,0,1-6.81,3.49c-5.94,2.47-12.37,3.9-18.7,5.24l-314.31,24.07L2572,2558.13l-62.32-97.94L2267.36,2747a39.28,39.28,0,0,1-38.23,13.07l-210.8-45a39.3,39.3,0,0,1-20.44-65.31c59.82-63.73,169-180.16,286.82-306.65,24.95-26.78,50.31-54,75.67-81.31,177.81-191.35,355.89-385,401.23-441.13,9.6-.51,13.39.8,14.41,7a34.12,34.12,0,0,1,.27,6.37,48.09,48.09,0,0,1-8.69,25.83q-103.86,149.39-220.3,289.48a16.85,16.85,0,0,0,10.14,27.36c28.88,4.88,59.55,12.74,86.45,14.33,7.08.43,14.49.79,21-2.15s11.11-8.83,15.46-14.49c85.27-111.15,243.67-319.4,284.12-372.58a13.93,13.93,0,0,1,22.78,16L2711.58,2244a3060.42,3060.42,0,0,0,229.92,267.7l117.91-132.36,230-258.17c3.32-3.72,7.06-7.69,12-8.32S3318,2121,3315.82,2125.5Z" class="color99b1da svgShape"/><path fill="#2f4171" d="M2621.58,2327.27l-75.93,90.2a4.94,4.94,0,0,1-.76-1c-12.73-21.54-46-40.63-94.54-22.89s-159.82-50.26-159.82-50.26l-5.82-.26c24.95-26.78,50.31-54,75.67-81.31l168.56-3.73S2587.66,2311.56,2621.58,2327.27Z" opacity=".2" class="color2f4171 svgShape"/><path fill="#565656" d="M2545.65,2417.47l75.93-90.2c6.46,3,12,4.61,16.11,4.23C2662.76,2329.14,2561.28,2434.23,2545.65,2417.47Z" opacity=".37" class="color565656 svgShape"/><path fill="#5681bf" d="M2955.57,2608.26c-5.94,2.47-12.37,3.9-18.7,5.24l-314.31,24.07-112.88-177.38,36-42.72,75.93-90.2,41-48.69S2881.6,2542.16,2955.57,2608.26Z" class="color5681bf svgShape"/><path fill="#5681bf" d="M2662.57,2278.58l-83.1,268-7.47,11.55-62.32-97.94L2267.36,2747a39.28,39.28,0,0,1-38.23,13.07l-210.8-45a39,39,0,0,1-29.71-28.18c42.78,11.28,220.7,57.25,243.56,48.54,26-9.9,389.4-456.79,389.4-456.79l27.23-13.67Z" opacity=".5" class="color5681bf svgShape"/><path fill="#d1dbed" d="M1622.81,2342.39a1164.88,1164.88,0,0,0-33.25,171.34q-2.88,24.58-4.7,49.26c-.42,5.57,8.26,5.55,8.68,0a1148.72,1148.72,0,0,1,25.75-171q5.45-23.79,11.89-47.32c1.48-5.39-6.9-7.69-8.37-2.3Z" class="colord1dbed svgShape"/><path fill="#25427c" d="M2366.9,2210.25a1092.4,1092.4,0,0,0,79.23-111c3-4.75-4.54-9.11-7.49-4.38a1074.55,1074.55,0,0,1-77.88,109.28c-3.49,4.3,2.61,10.48,6.14,6.14Z" class="color25427c svgShape"/><path fill="#2e6857" d="M2481.88,1575.07a61.48,61.48,0,0,0-49.4-21.2l5,6.28a517,517,0,0,1-.61,132.4c-8.18,61.34-64,104.8-125.55,98.53q-3.95-.39-7.88-.83a59,59,0,0,1-52.57-53.24l0-.47c-8.15-89.72-25.5-186.36-57.13-270.71-19.35-2.73-40.87,2.21-60.19,5.1-2.7.4-4.72,7-2.55,8.67,46,94.81,149.53,272.37-151.54,656.18l195.53,46.31c86.08-51.74,143.85-139,195.08-225.4,31.13-52.47,84.86-159.61,82.56-159.57A458.19,458.19,0,0,0,2481.88,1575.07Z" class="color2e6857 svgShape"/><path fill="#f5b0a6" d="M2648,2329.24c-6.4-2.51-10.33-8.79-14.64-14.16s-10.57-10.48-17.32-9.15A71.69,71.69,0,0,1,2650.2,2348c1.51,5.06,1.6,12-3.29,14-4.23,1.72-8.63-1.8-11.83-5l-19.15-19.31a107.24,107.24,0,0,1,20.4,31.14c3.19,7.43,4.11,18.48-3.47,21.3-5.66,2.1-11.42-2.43-15.9-6.48a273.91,273.91,0,0,0-80.92-50.74,205.39,205.39,0,0,1,54.2,51.2c2.36,3.23,4.74,7.1,3.78,11-2,8-14,6.47-21.33,2.63a230.73,230.73,0,0,1-41.28-27.49c-6.57-5.49-13.14-11.51-21.36-13.92-18.94-5.56-37.24,9.69-56.56,13.76-22.84,4.8-45.69-6.33-66.3-17.31q-163.49-87.11-318.46-189.07c-14.53-9.55-29.33-19.54-39.35-33.74-11-15.56-15.21-34.74-19.1-53.37q-13.3-63.72-25-127.75-9.56-52.15-18.06-104.52h0q-8.37-51.51-15.72-103.18c-.81-5.66-1.5-11.89,1.62-16.7,2.92-4.52,8.42-6.54,13.6-8,73.17-20.48,155.46,10.6,182.48,81.61,0,0,.71,13.59,1.85,34.35.91,16.79,2.11,38.26,3.43,61,2.34,40.5,5.07,85.07,7.33,114.58.46,5.91.93,11.91,3.12,17.42,2.47,6.17,7,11.3,11.38,16.28A1900.71,1900.71,0,0,0,2404,2258.52c7.75,6.24,15.94,12.61,25.69,14.62,7.49,1.56,15.25.39,22.76-1,25.48-4.83,50.55-12.63,76.45-14.09,49-2.76,98.75,18.87,130.15,56.57,1.46,1.75,2.94,3.63,3.35,5.88C2663.71,2327.22,2654.38,2331.75,2648,2329.24Z" class="colorf5b0a6 svgShape"/><path fill="#f18a8b" d="M2154.42,1893.45c-41.15,17.07-117,46.63-169.19,55.4q-9.56-52.15-18.06-104.52l159.53-48.09,24.29,36.19C2151.9,1849.22,2153.1,1870.69,2154.42,1893.45Z" class="colorf18a8b svgShape"/><path fill="#6fc183" d="M1977.4,1613.8c-39.88,38.23-62.44,91.7-72.62,146s-9,110-7.53,165.23c.12,4.25.88,9.47,4.87,10.94,1.84.69,3.89.31,5.82-.08l275.63-54.9a2618.79,2618.79,0,0,1-39-270.13Z" class="color6fc183 svgShape"/><path fill="#40947e" d="M2227.35,1813.05a244.68,244.68,0,0,0,127.33,31.82l-3.07-7.41c-15.26,15.91-34.05,35.21-57.32,37.37-21.22,2-37.8-11.95-47.13-29.9a89.43,89.43,0,0,1-9.5-33.23c-.48-5.53-9.17-5.58-8.68,0,2,22.25,10.86,46,28.72,60.31a51.59,51.59,0,0,0,30.58,11.67c12.56.46,24.79-4.09,35.34-10.63,12.82-8,23.74-18.62,34.13-29.45,2.52-2.63.79-7.52-3.07-7.41a235.85,235.85,0,0,1-122.95-30.64c-4.86-2.77-9.24,4.73-4.38,7.5Z" class="color40947e svgShape"/><path fill="#25427c" d="M2211.45,2066.84q76.59-61.44,159-115.16,23.19-15.12,46.78-29.59c4.75-2.92.4-10.43-4.38-7.49q-84.45,51.83-163.53,111.79-22.22,16.84-44,34.31c-4.35,3.5,1.82,9.6,6.14,6.14Z" class="color25427c svgShape"/><path fill="#d1dbed" d="M1906.91,2093.53a131.27,131.27,0,0,1-106.14,45c-5.59-.32-5.57,8.36,0,8.68,42.17,2.43,84.71-15.57,112.28-47.59,3.63-4.21-2.49-10.38-6.14-6.13Z" class="colord1dbed svgShape"/><path fill="#d1dbed" d="M1816.55,2027.45a220.09,220.09,0,0,0-13.14,159.62c8.37,27.61,22.79,52.79,38,77.13,15.54,24.85,31.21,49.49,45,75.4a781.09,781.09,0,0,1,37.37,81.22c5.15,13.13,10.22,26.41,14.37,39.9,3.19,10.35,5.43,21.19,5,32.06-.39,9.53-3.35,19.48-11.37,25.35-10.76,7.88-25.61,5.95-38.08,5.1q-45.66-3.12-90.9-10.39a1011.26,1011.26,0,0,1-176.1-44.93q-10.61-3.75-21.12-7.73c-5.23-2-7.49,6.41-2.31,8.37A1013.91,1013.91,0,0,0,1781,2517.87q45.16,8.21,91,12.32,11.55,1,23.1,1.81c6.91.46,13.87,1,20.78.35,12-1.13,23.08-6.09,29.66-16.52,11.77-18.66,5.58-44.22-1-63.55a797.26,797.26,0,0,0-76.42-162.07c-15.53-25.11-32.37-49.56-45-76.34a212.32,212.32,0,0,1-7.31-162.82,197.62,197.62,0,0,1,8.28-19.22c2.47-5-5-9.4-7.49-4.38Z" class="colord1dbed svgShape"/><path fill="#40947e" d="M2532.62 1876.55l96-23.37c5.42-1.32 3.13-9.7-2.31-8.37l-96 23.37c-5.42 1.32-3.13 9.69 2.31 8.37zM1952.57 1929.89a4.8 4.8 0 002.2-3.53c.56-3.15-.56-5.62-1.11-8.63-.66-3.57-1.27-7.15-1.88-10.72q-1.83-10.74-3.49-21.49-10.32-66.9-14-134.6-1.38-25.44-1.79-50.92c-.1-5.58-8.78-5.6-8.68 0a1381.46 1381.46 0 0015 180.88q1.92 12.86 4.08 25.65 1.14 6.73 2.35 13.47c.5 2.79 1 6.47 2.91 8.67C1949.64 1930.3 1951.28 1930.59 1952.57 1929.89z" class="color40947e svgShape"/><path fill="#40947e" d="M1945.63,1891.38q88-9.66,175.54-22.74,24.75-3.69,49.45-7.67c5.5-.88,3.17-9.25-2.31-8.37q-86.23,13.86-173,24.37-24.84,3-49.71,5.73c-5.49.61-5.55,9.29,0,8.68Z" class="color40947e svgShape"/><path fill="#f18a8b" d="M2920.44 2111.52a313.7 313.7 0 00-42.7-1.21c-12.59.52-26.94.65-38.68 5.48-6.44 2.65-14.93 9.34-15.46 17-1 14.71 16.5 17.56 26.48 20.95a241.57 241.57 0 0045.41 10.57c.38-2.69.77-5.37 1.15-8.06a119.27 119.27 0 00-33.53 1.25c-10.07 1.81-24.9 4.44-33.31 10.24-7.1 4.89-12.73 13.49-7.15 21.46 5 7.12 17.62 12.25 25.75 12.44l41.89 1v-8.2l-42.7 1.19c-10 .28-21.2-.2-30.18 4.78-8.21 4.55-11.44 14.2-5.82 21.91 6.16 8.44 17.89 11.56 27.85 13.89a147.46 147.46 0 0045.46 3.4c5.61-.44 5.55-7.68 0-8.2a120 120 0 00-37.86 2.15c-8.83 2-18.09 8.25-14.68 18 3.14 9 14.19 15.65 22.62 19.88a86.53 86.53 0 0029.4 8.52 82 82 0 0034.24-3.56c5.24-1.73 3-9.66-2.31-7.92a75.64 75.64 0 01-61.7-6.73c-4.42-2.64-9.38-5.89-12.46-10-3.44-4.56-1-7.71 4-9.46 5.63-2 12.08-2.57 18-3a124.91 124.91 0 0120.74.26v-8.2a139.79 139.79 0 01-33.89-1.26c-9.42-1.55-20.44-3.45-28.38-8.83-2.74-1.85-5.53-4.63-5.25-8 .27-3.24 3-5.26 5.93-6.53 8-3.5 17.83-2.72 26.41-3l40.57-1.14a4.1 4.1 0 100-8.2l-39.76-1c-4.94-.12-25-4.46-21-13.57 4.17-9.44 21.66-11.88 30.35-14 12-3 24.5-2.71 36.77-1.43 4.82.51 6-7.41 1.16-8.06a243 243 0 01-34.61-7.18c-8-2.3-37.36-6.07-30.64-20.36 3-6.46 14.56-8 20.76-9 8.3-1.39 16.76-1 25.13-1.3a311.53 311.53 0 0142 1.24C2926 2120.26 2926 2112.06 2920.44 2111.52zM2660.53 2076.48a120.79 120.79 0 0147.38-30.61c5.24-1.83 3-10.21-2.31-8.37a130.44 130.44 0 00-51.21 32.84c-3.86 4 2.27 10.19 6.14 6.14zM2147.75 2037.69a158.7 158.7 0 01-47.38 33.13c-2.13 1-2.66 4.06-1.56 5.94 1.28 2.19 3.8 2.54 5.94 1.56a165.6 165.6 0 0049.14-34.49c3.92-4-2.21-10.13-6.14-6.14zM2545.8 2314.84c30.24 7.47 67.91 17.22 80.77 49.42 2 5.13 10.45 2.89 8.37-2.3-14.22-35.61-52.93-47.12-86.84-55.49-5.42-1.34-7.73 7-2.3 8.37zM2560.07 2288.71a166.25 166.25 0 0177.62 42.79c4 3.91 10.13-2.22 6.13-6.14a174.91 174.91 0 00-81.44-45c-5.44-1.29-7.75 7.08-2.31 8.38z" class="colorf18a8b svgShape"/><path fill="#f18a8b" d="M2561.32,2266.85,2521,2329.54c-3,4.71,4.48,9.06,7.5,4.38l40.36-62.69c3-4.71-4.48-9.06-7.5-4.38Z" class="colorf18a8b svgShape"/><path d="M1486.79,2666.06a135.25,135.25,0,0,1-6.11,12.25c-23.24,1-57.48-14.1-57.48-14.1-47-21-84.76-92.66-85.66-140.63-.74-39.53,39.86-173.55,54.17-219.49a18.26,18.26,0,0,1,20.92-12.48l14.42,2.8c-13.76,39.59-64,187.81-59.5,228.05C1372.76,2569,1394,2647.69,1486.79,2666.06Z" fill="#000000" class="color000 svgShape"/><path fill="#f5b0a6" d="M2626.63,1294.6c-5.28,44.37-25.11,90-39.43,125.91-1.59,4-3.12,7.85-4.54,11.57a112.29,112.29,0,0,1-12.48,23.31c-16.42,23.87-42,44.78-66.65,59.3-1.42.83-2.84,1.63-4.25,2.42-19.4,10.88-37.92,17.64-50.66,18.63a66.47,66.47,0,0,1-29.58-4.49c-23.25-9-45.55-30.61-70.51-62.54-14.69-18.76-22.87-45.42-27.42-70.15-.29-1.55-.56-3.09-.82-4.63a358.29,358.29,0,0,1-4.82-61s-8,8.94-30.38-28.59-3.13-64.35,27.7-75.07c18.32-6.38,25.59,8.71,28.49,22,0,0,0,0,0,.1.34,2.9-1.63,39.11,3.67,39.55s11.17-41.56,24.13-44.68c6.62-1.61,22.34-5.18,37.21-15.64a73.64,73.64,0,0,0,20.43-21.47,81.84,81.84,0,0,0,11.16-31.7s2.68-13.41,20.56-8.94,76-1.34,126.89,36.64q5,3.73,9.38,6.8l2.46,1.72.37.26,2,1.35,2.28,1.52,2.18,1.42,1.06.67c.35.23.68.45,1,.66s.68.43,1,.63.66.42,1,.61l1,.59,1.62,1c.7.41,1.39.8,2.06,1.17l.86.48.85.46c.56.3,1.11.6,1.65.86l1.56.79,1.5.71.79.35.23.61C2628.2,1248.65,2629.4,1271.45,2626.63,1294.6Z" class="colorf5b0a6 svgShape"/><path fill="#f18a8b" d="M2626.63,1294.6c-51.73,7.85-120.55-63.06-132.29-80.86-12.42-18.81-26.73-23-47.12-16.8-7.11,2.16-14.22,6.89-20.49,12.15a81.84,81.84,0,0,0,11.16-31.7s2.68-13.41,20.56-8.94,76-1.34,126.89,36.64q5,3.73,9.38,6.8l2.46,1.72.37.26,2,1.35,2.28,1.52,2.18,1.42,1.06.67c.35.23.68.45,1,.66s.68.43,1,.63.66.42,1,.61l1,.59,1.62,1c.7.41,1.39.8,2.06,1.17l.86.48.85.46c.56.3,1.11.6,1.65.86l1.56.79,1.5.71.79.35.23.61C2628.2,1248.65,2629.4,1271.45,2626.63,1294.6Z" opacity=".6" class="colorf18a8b svgShape"/><ellipse cx="2420.09" cy="1364.11" fill="#f18a8b" opacity=".6" rx="20.45" ry="44.71" transform="rotate(-66.3 2420.07 1364.115)" class="colorf18a8b svgShape"/><path fill="#f18a8b" d="M2587.2,1420.51c-1.59,4-3.12,7.85-4.54,11.57a112.29,112.29,0,0,1-12.48,23.31c-14.7-9.54-23-21.44-19.43-29.58C2554.42,1417.43,2569.56,1415.62,2587.2,1420.51Z" opacity=".6" class="colorf18a8b svgShape"/><path d="M2606.83,1220.58l-.61-.37-.41-.25-.74-.47-.31-.2h0l.59-.91h0l2,1.28Z" fill="#000000" class="color000 svgShape"/><path fill="#111111" d="M2646.11,1154.16c31.72,9.82,75.06-25.92,75.06-25.92,3.91,23-10.37,38.34-24.19,51,.57.71,24.24,31.78-27.92,76.18a47.12,47.12,0,0,1-9,6c-56.58,29.16-162.61-61.12-178.14-75.26-16.41-14.92-46.38,2.45-46.38,2.45-12.42,45.24-54.45,54.67-66.46,57.58-13,3.12-18.77,45.13-24.13,44.68s-3.33-36.65-3.67-39.55c0,0,0-.08,0-.1-2.9-13.3-10.17-28.39-28.49-22-30.83,10.72-50,37.53-27.7,75.07s30.38,28.59,30.38,28.59a358.29,358.29,0,0,0,4.82,61c-8.65.87-16.4-.19-22.69-3.85-42.9-25-23.69-134.5-17.88-191.25,3-29.65,16.62-55.22,34.72-78.38,17.67-22.6,43.32-43.34,56.3-68.76a64.46,64.46,0,0,1,32.09,20.8c-.78-.94,24.12-17,27-18.54,10.44-5.54,22-12.87,34.42-9.88,29,7,60.61,36,85.81,52C2581.7,1116.2,2609.55,1142.85,2646.11,1154.16Z" class="color111 svgShape"/><path fill="#d67c80" d="M2518.37,1392.25a16.77,16.77,0,0,0-2.93,0c-12.68,1-31.62,13.37-31.92,27.1-.25,11.13,15,18.53,23.17,22.39,9.08,4.3,19.6,4.38,24.29-5.83,2.42-5.27,2.71-11.6,2.32-17.3C2532.59,1408.52,2530.58,1393.41,2518.37,1392.25Z" class="colord67c80 svgShape"/><path d="M2524.61 1355.66a2.54 2.54 0 010 .29c-.08-.6 0 .19.07.5.15 1.12.29 2.23.43 3.35.49 3.8.94 7.59 1.38 11.39 1.24 10.89 2.32 21.8 3 32.74.32 5.23.56 10.48.54 15.72a59 59 0 01-.87 11.76c-1.09 5.15-3.71 10-9.4 10.66s-11.41-1.66-16.5-3.68a32.09 32.09 0 01-15-11.31c-2.42-3.47-5.48-9.29-2.83-13.42a6.16 6.16 0 012.18-2 1.62 1.62 0 00-1.64-2.8c-4.95 2.84-5.53 8.59-3.77 13.58 2.19 6.18 6.86 11.45 12.22 15.11a44 44 0 009.24 4.46 57 57 0 009.22 2.81c5.25 1 11.13.82 15-3.35 3.75-4 4.73-9.81 5.11-15.09a137.68 137.68 0 00.07-14.79c-.45-11.79-1.55-23.57-2.82-35.3-.5-4.62-1-9.22-1.61-13.83-.3-2.44-.49-4.94-.95-7.36 0-.11 0-.22 0-.34a1.64 1.64 0 00-2-1.13 1.68 1.68 0 00-1.14 2zM2422.78 1420.37a59.9 59.9 0 004.17 15.25 63.65 63.65 0 0020.45 27.27 60 60 0 0022.4 10.21c3.46.81 4.94-4.52 1.47-5.33a56.1 56.1 0 01-19.06-8.2 49.16 49.16 0 01-6.79-5.61q-1.59-1.55-3-3.21c-.42-.49-.84-1-1.25-1.49-.58-.71-.59-.73-1.08-1.37a64.79 64.79 0 01-7.46-13l-.15-.34-.28-.69-.6-1.55c-.33-.9-.65-1.82-.95-2.74-.52-1.57-1-3.17-1.38-4.78-.3-1.23-.58-2.48-.8-3.73-.06-.34-.11-.68-.16-1-.11-.62.1.84 0 .34a2.85 2.85 0 00-2.76-2.77 2.8 2.8 0 00-2.77 2.77zM2582.55 1313.76l-6.8 18.48s39.45 5.18 48.59 17.89C2624.34 1350.13 2615.52 1323.13 2582.55 1313.76zM2535.57 1285.94l-13.39 15.66s-33.46-33.65-46.29-38.39a279.75 279.75 0 00-28.67-8.41s26.19-6.18 54.92 8.92C2528.83 1277.75 2535.57 1285.94 2535.57 1285.94z" fill="#000000" class="color000 svgShape"/><ellipse cx="2480.74" cy="1331.48" rx="15.39" ry="7.43" transform="rotate(-66.3 2480.713 1331.48)" fill="#000000" class="color000 svgShape"/><ellipse cx="2574.06" cy="1378.12" rx="13.51" ry="6.52" transform="rotate(-66.3 2574.041 1378.118)" fill="#000000" class="color000 svgShape"/><path d="M2471.29 1317.8a11.11 11.11 0 018.9-.34 17.65 17.65 0 014 2.07 4.65 4.65 0 012.09 2.84c.44 2 3.58 1.17 3.13-.87-.81-3.73-4.77-5.83-8.05-7.07a14.33 14.33 0 00-11.68.57c-1.87 1-.22 3.76 1.64 2.8zM2578.23 1368.9c.17-.24-.29.31 0 .06s-.23.09-.1 0a1.16 1.16 0 00.24-.14c.22-.15-.37.09-.09 0 .08 0 .45-.18.52-.12l-.16 0h.4l.36 0c.06 0 .43 0 .16 0s.16 0 .23 0l.34.07a12.88 12.88 0 011.49.47c.33.12 0 0 .1 0l.42.19c.24.12.49.24.72.37.5.28 1 .59 1.44.91l.16.12c-.13-.1-.15-.12-.06 0l.36.29c.2.17.39.35.58.53s.35.37.52.56.22.28.05.06a3.89 3.89 0 01.28.39 1.66 1.66 0 002.22.58 1.63 1.63 0 00.58-2.22 13.58 13.58 0 00-6.75-5c-2.23-.82-5.26-1.17-6.78 1.07a1.62 1.62 0 102.8 1.64z" fill="#000000" class="color000 svgShape"/><path fill="#d67c80" d="M2328.46,1261.74c-4.76-7.4-14.37-16-23.61-11.08-3.67,2-6.39,5.58-8.35,9.16a27,27,0,0,0-3.41,12.22c-.19,7.42,3,14.54,7.41,20.35a48.11,48.11,0,0,0,6.84,7.35,17.7,17.7,0,0,0,5,3.43c2,.72,2.81-2.42.87-3.14.32.12,0,0-.29-.16s-.56-.34-.83-.52a18.91,18.91,0,0,1-1.92-1.45,45.24,45.24,0,0,1-5.44-5.37c-4.11-4.79-7.45-10.66-8.24-17-.94-7.5,2.17-16,8.07-20.8,4.39-3.59,9.51-2.4,13.74.75a30.77,30.77,0,0,1,7.34,7.9c1.13,1.75,3.94.12,2.8-1.64Z" class="colord67c80 svgShape"/><path fill="#d67c80" d="M2296.73,1284.52a40.67,40.67,0,0,1,17.68,2.06c2,.69,2.83-2.45.87-3.13a43,43,0,0,0-18.55-2.18,1.67,1.67,0,0,0-1.63,1.62,1.64,1.64,0,0,0,1.63,1.63Z" class="colord67c80 svgShape"/><path fill="#111111" d="M2397.42 1086c2-8.61 4-17.4 8-25.32a41.11 41.11 0 017.56-10.56 41.57 41.57 0 0111.39-7.76 82.93 82.93 0 0114.93-5.17c2-.53 1.17-3.67-.86-3.14-9.34 2.45-18.76 5.82-26.13 12.26-7 6.13-11.21 14.67-14 23.39-1.64 5.06-2.86 10.25-4 15.44-.47 2 2.66 2.9 3.13.86zM2293 1173.74a326.85 326.85 0 00-25.89 79.68c-4.79 26.35-5.35 53.93 3 79.65a108.51 108.51 0 0019.77 36.29c1.35 1.6 3.64-.71 2.3-2.3-15.79-18.83-23.54-43.3-25-67.57-1.69-27.52 4-55.09 12.07-81.26a337.25 337.25 0 0116.59-42.85c.89-1.88-1.92-3.54-2.8-1.64zM2436.05 1178.68q-.91 9-2.13 17.92c-.77 5.64-1.48 11.34-2.69 16.91-1 4.83-2.76 9.45-6.19 13.1a32 32 0 01-10.78 7.18 94 94 0 01-14.59 4.61c-2 .51-1.17 3.65.87 3.13 9-2.28 18.6-4.93 25.57-11.4 8.31-7.72 9.11-19.71 10.62-30.28q1.5-10.56 2.57-21.17c.21-2.08-3-2.07-3.25 0zM2567 1240.59a292.85 292.85 0 0032.22 27.8 80 80 0 0017.31 10 54.92 54.92 0 0019.66 3.87 66.21 66.21 0 0022.28-3.59c2-.66 1.12-3.8-.87-3.13-12.36 4.18-26 4.89-38.42.41a71 71 0 01-16.76-9.28c-5.44-3.88-10.64-8.13-15.73-12.46q-9-7.65-17.39-16c-1.49-1.47-3.79.82-2.3 2.29z" class="color111 svgShape"/><path fill="#d1dbed" d="M2615.16,1382.3c-.52,4.31-10.2,30.39-33,36.39-16.92,4.47-30.23-5.6-36.19-19.39a41,41,0,0,1-3.37-18.06c0-.38,0-.76.07-1.13,1.28-20.65,11.12-27.41,11.12-27.41,8.25-6.6,19.73-7.62,30.54-4.87a49.58,49.58,0,0,1,18.5,9.09C2611,1363.45,2616.34,1372.48,2615.16,1382.3Z" opacity=".3" class="colord1dbed svgShape"/><path fill="#2f4171" d="M2626.39,1375.2s-5.49-8-16.71-16.71a99.16,99.16,0,0,0-15.22-9.75c-22.82-11.84-43.9-1.61-43.9-1.61a39.2,39.2,0,0,0-24.21-11.4s-7.28-24.94-35.35-38.28c-30-14.28-56.05-14.38-56.05-14.38l-10-1.52-74.36-32.65a90.46,90.46,0,0,1,6.7,11.78v0l64.28,30.82s5.67,6.52,6.32,9.07-5,28.82-3.61,41.34c1.41,12.36,12.36,39.69,47.66,41.78,33,1.94,50.61-32.4,50.88-33s0-5.81,6.25-4.6a25.19,25.19,0,0,1,12.54,5.77c4.8,3.81,1,7.05.72,7.63s-13.32,35.79,8.35,54.75c7.62,6.66,15.32,9.27,22.38,9.58,11.81.51,21.79-5.42,26.46-9.56,7.4-6.53,19-24.44,20.56-25.49s7.09-1.57,7.09-1.57l3.78-7.24Zm-120.65-9.59c-16.29,16-50.18,20.53-67.57-4.2-18.34-26.08-2.2-56.69,1.63-60.58,22.66-23,77.71,5.93,80,36.06C2519.78,1336.89,2521.72,1349.86,2505.74,1365.61Zm76.39,53.09a31.72,31.72,0,0,1-6.63,1c-20.26,1-33.82-19.35-32.94-38.49,1-21.53,11.19-28.54,11.19-28.54,15.25-12.19,41.48-5.32,54.21,9.1,5.16,5.85,8.11,12.93,7.2,20.5C2614.64,1386.61,2605,1412.69,2582.13,1418.7Z" class="color2f4171 svgShape"/><path fill="#d1dbed" d="M2505.74,1365.62c-11.12,10.94-30.44,16.51-47.12,11.07a39.39,39.39,0,0,1-15.46-9.39,42,42,0,0,1-5-5.89,47,47,0,0,1-8.4-23.1c-1.61-18.51,7.32-34.72,10-37.48,10.37-10.55,27.52-10.2,43.29-3.83a74.34,74.34,0,0,1,17.35,9.9,64.71,64.71,0,0,1,9.37,8.75,41.46,41.46,0,0,1,9.09,16.11,27.72,27.72,0,0,1,.88,5.12S2521.72,1349.87,2505.74,1365.62Z" opacity=".3" class="colord1dbed svgShape"/><path fill="#ffffff" d="M2500.44 1306.9l-65.65 48.92a46.45 46.45 0 01-5-17.51l53.32-41.31A74.34 74.34 0 012500.44 1306.9zM2518.9 1331.76l-60.28 44.93a39.39 39.39 0 01-15.46-9.39l66.65-51.65A41.46 41.46 0 012518.9 1331.76zM2602.79 1356.92l-56.86 42.38a41 41 0 01-3.37-18.06c0-.38 0-.76.07-1.13l41.66-32.28A49.58 49.58 0 012602.79 1356.92z" opacity=".3" class="colorfff svgShape"/><path fill="#f18a8b" d="M2316.25,1697.28c-13.85-3.54-24.27-15.69-32.18-26.86a222.83,222.83,0,0,1-22.86-41.8c1,2.12,40.05,84.45,89.32,47.83,33.68-25,51.1-70.31,58.88-97.15,1.36,1.76,2.65,3.58,3.89,5.42C2416.69,1589.74,2394.77,1717.24,2316.25,1697.28Z" class="colorf18a8b svgShape"/><path fill="#25427c" d="M2154.22,2302.35q-3.37-5.34-6.77-10.68-8.25-12.95-16.54-25.85-10.24-15.93-20.6-31.78c-6.24-9.53-12.52-19.05-19-28.45-2.32-3.37-4.65-6.74-7.07-10.05a68,68,0,0,0-4.93-6.3,8.47,8.47,0,0,0-.67-.67,2.84,2.84,0,0,0-3.91,0,2.8,2.8,0,0,0,0,3.91,15.33,15.33,0,0,1,1.55,1.67c.36.44.71.88,1.06,1.33s.14.19-.09-.12l.33.43.65.86c2.26,3,4.42,6.11,6.56,9.21,6.26,9,12.33,18.21,18.36,27.4q10.39,15.82,20.63,31.75,8.67,13.45,17.26,26.95c2.75,4.32,5.41,8.73,8.25,13l.12.19c1.9,3,6.68.23,4.77-2.79Z" class="color25427c svgShape"/><path fill="#243354" d="M1492.49,2648.6a528,528,0,0,1-62.21-38c-9.83-7-19.68-14.61-25.63-25.09s-7.09-24.6.3-34.13c7-9.09,19.58-11.75,31.07-12.17a122.3,122.3,0,0,1,14.2.31c-4.66,8.59-7.14,16-8.87,19.33-2.66,5,13.64,26.75,28.54,46.49l5.89,7.82c8.15,10.89,14.92,20.28,16.44,24.64C1493.26,2640.75,1493.19,2644.54,1492.49,2648.6Z" opacity=".5" class="color243354 svgShape"/><path fill="#5681bf" d="M2547.3 2149.26a16.69 16.69 0 00-3.18 15.55l-10.67.38-13.59-17.72L2776 1827.58a34.12 34.12 0 01.27 6.37 48.09 48.09 0 01-8.69 25.83Q2663.74 2009.17 2547.3 2149.26zM2987.2 1817.74L2711.58 2244l-17.14-32.31 290.85-411.45A13.92 13.92 0 012987.2 1817.74zM3059.41 2379.37l-99.6 152.32-18.31-20z" opacity=".5" class="color5681bf svgShape"/><path fill="#3d5891" d="M3396.46,2344.43,3370.23,2629a61,61,0,0,1-60.76,55.41h-198.4a62.48,62.48,0,0,1-62.35-58.34l-2-29.93L3030,2344.43Z" class="color3d5891 svgShape"/><path fill="#243354" d="M3385.45,2336.19c-2.69,47.54-42.21,137.79-172.78,139h-2.62c-161.11,0-169-137.78-169.09-139.17l13.91-.65c7.67,37.52,37.94,121.44,155.4,121.44h2.44c108.11-1.06,149.39-72.13,159.1-121.37Z" class="color243354 svgShape"/><path fill="#2f4171" d="M3399.39,2344.42H3027a9.12,9.12,0,0,1-9.13-9.12h0a9.13,9.13,0,0,1,9.13-9.13h372.35a9.13,9.13,0,0,1,9.13,9.13h0A9.12,9.12,0,0,1,3399.39,2344.42Z" class="color2f4171 svgShape"/><path fill="#2f4171" d="M3368.65,2638.24a61,61,0,0,1-59.18,46.14h-198.4a62.48,62.48,0,0,1-62.35-58.34l-2-29.93L3030,2344.43h55.76l9,120.09a172.38,172.38,0,0,0,150.17,158.19C3292.44,2628.76,3337.8,2634.42,3368.65,2638.24Z" opacity=".5" class="color2f4171 svgShape"/><path fill="#b5cae8" d="M1085.63 2328.81q-29.27-63.2-52.36-129-11.48-32.75-21.37-66-4.93-16.65-9.48-33.4-2.28-8.39-4.44-16.79c-.69-2.65-1.36-5.3-2-8-.2-.78-.39-1.56-.59-2.34l.13.52c-.38-1.56-.77-3.13-1.15-4.69q-16.59-67.85-26.51-137.09t-13-139.17q-1.55-35.09-1.36-70.23c0-2.93 0-5.87.07-8.8 0-.9.15-4.89 0-1.42.06-1.62.05-3.26.08-4.89q.17-8.8.43-17.62.55-17.64 1.53-35.27.49-8.84 1.1-17.65c.47-7-3.74-14.44-11.34-15.21-6.77-.69-14.69 3.84-15.2 11.33-3.27 48-4.16 96.23-2.67 144.34q2.19 70.41 11.33 140.39 9.09 69.53 25 137.94 16.08 69.32 38.71 136.9 22.31 66.21 51 130.06 3.55 7.9 7.2 15.78c2.95 6.36 10.45 10.67 17.36 7.63 6.31-2.78 10.78-10.57 7.63-17.36zM2647.92 286.77a1418.22 1418.22 0 01456 163.48A1409.85 1409.85 0 013486.1 768.63a1427.39 1427.39 0 01161.23 235.67q8.9 16.35 17.37 32.94c3.29 6.44 10.14 10.44 17.36 7.62 6.22-2.44 10.94-10.89 7.62-17.37a1453.38 1453.38 0 00-341.91-437.38 1417.85 1417.85 0 00-203.58-147.22A1438.91 1438.91 0 002681.82 265.8q-15-2.94-30-5.57c-17-3-20.86 23.56-3.86 26.54z" class="colorb5cae8 svgShape"/></g></svg>