<svg xmlns="http://www.w3.org/2000/svg" viewBox="0 0 1100 750"><g data-name="Layer 1" fill="#000000" class="color000 svgShape"><ellipse cx="434.27" cy="369.98" fill="#eaefb6" rx="269.66" ry="274.91" class="coloreaefb6 svgShape"/><circle cx="713.9" cy="412.83" r="245.5" fill="#eaefb6" transform="rotate(-45 713.9 412.833)" class="coloreaefb6 svgShape"/><path fill="#b5c66d" d="M856.41 392.17a80.21 80.21 0 0 0 16.47 62.9 41.65 41.65 0 0 0 7.12 7.17 28.35 28.35 0 0 0 11.66 5.21c4.39.85 9.54.39 12.4-3.05a14.4 14.4 0 0 0 2.38-4.86 66.23 66.23 0 0 0 3.07-25.24 14.46 14.46 0 0 0-1.51-6.2c-1.53-2.67-4.43-4.24-6.44-6.57-5.21-6-3.44-15.06-4-23-.65-8.84-5.09-17.72-12.79-22.1s-18.69-3.09-24 4c-2.56 3.37-3.65 7.57-4.36 11.74ZM800.93 483.15c.92 11.9 5.43 23.19 9.91 34.25 4.19 10.31 8.47 20.75 15.28 29.54s16.57 15.9 27.64 17c5.8.59 11.64-.47 17.31-1.8a7.18 7.18 0 0 0 2.63-1c1.34-1 1.85-2.74 2.17-4.37 4.21-21-8.75-44.18-28.89-51.59a14.4 14.4 0 0 1-4-1.84c-2.59-2-3.25-5.51-4-8.69-2.75-11.71-10.13-23.21-21.56-26.94-4-1.3-8.59-1.49-12 .94-4.2 3.12-4.9 9.22-4.49 14.5ZM847.88 671.74a50.72 50.72 0 0 1 6.7-1.06 48.22 48.22 0 0 1 10.32.2 17.66 17.66 0 0 0 3.49-1.5c5.8-3.39 8.91-10.19 9.6-16.86 1.68-16.37-11-32.93-27.24-35.57-2.84-.46-6-.64-8.09-2.56-1.81-1.62-2.47-4.11-3.48-6.32-2.18-4.77-6.13-8.44-10-12-6.12-5.62-13.33-11.64-21.6-10.81-7.46.74-13.41 7.26-15.4 14.49s-.68 15 1.53 22.12c4.29 13.84 12.12 26.73 23.2 36a60.89 60.89 0 0 0 30.97 13.87Z" class="colorb5c66d svgShape"/><path fill="#b5c66d" d="M1004.19 343c-6.5 15.74-20.43 25.83-35.18 36.51a223.83 223.83 0 0 0-19.93 15.59c-11.19 10.22-19.82 22.57-26.79 33.3A434.53 434.53 0 0 0 852.55 671c.68-.09 1.33-.21 2-.27.89-.08 1.74-.06 2.62-.09a429.86 429.86 0 0 1 69-239.7c6.81-10.49 15.22-22.53 26-32.4a221.57 221.57 0 0 1 19.5-15.26c14.63-10.59 29.76-21.54 36.76-38.51Z" class="colorb5c66d svgShape"/><path fill="#b5c66d" d="M930.53 544.46c9.67.08 18.18-5.86 26.66-10.53s19.12-8.2 27.52-3.4c7.75 4.42 10.55 14.81 8.38 23.47s-8.27 15.79-14.88 21.78C948.52 602.69 904 612.09 866 599.49c-8.67-2.87-18-8-19.8-17-1-5.16.77-10.44 2.93-15.24 4.45-9.89 10.7-19.2 19.39-25.7s20-9.92 30.63-7.6c10.85 2.39 20.28 10.41 31.38 10.51ZM971.79 610c-4.62-5.07-12-6.62-18.87-6.44a49.75 49.75 0 0 0-33.22 14.06c-7.46 7.31-13.34 17.47-23.46 20-2.93.74-6 .76-8.92 1.53-4.19 1.11-7.8 3.69-11.32 6.22-9.53 6.86-19.71 14.78-23.48 25.58.69-.08 1.35-.21 2.06-.27 13.84-1.16 24.72 3.23 32.46 10.56a34.19 34.19 0 0 0 3.11-2.06c8.1-6.07 15-14.48 24.74-17.19 6-1.67 12.45-.91 18.71-1.35a49.38 49.38 0 0 0 36.8-21.13c6-8.79 8.6-21.66 1.39-29.51ZM962.63 436.61c-4.78 3.13-10.63 6-16 4-2.73-1-4.91-3.14-7.61-4.21-3.48-1.38-7.43-.83-11 .24a40.39 40.39 0 0 0-26.87 27.68c10.36 3.85 17.94 12.95 27.93 17.7 11.95 5.68 26 4.52 38.94 1.93 10.22-2 20.48-5 29.06-10.91s15.34-15.19 16.07-25.59-5.75-21.46-15.85-24c-12.38-3.2-23.99 6.15-34.67 13.16ZM1026.48 364.37a17.54 17.54 0 0 1 19.63 26.57c-3.66 5.45-10.16 8.44-16.66 9.46s-13.11.31-19.67-.14a258 258 0 0 0-54.63 2.06c-1.68.24-3.5.47-5-.36a6.51 6.51 0 0 1-2.22-2.38A24.43 24.43 0 0 1 980.15 365c2.49 1.34 4.73 3.09 7.17 4.49a29.74 29.74 0 0 0 27.18 1c4.05-1.93 7.68-4.82 11.98-6.12ZM1002.12 283.91c-5.82-.58-11.07 4.25-13 9.78s-1.26 11.56-.6 17.37l2.58 22.44c.49 4.23 1 8.64 3.39 12.18 4.44 6.69 14.25 8.06 21.62 4.88s12.63-9.84 16.74-16.72c4.27-7.13 6.86-17.94-.12-22.44-2.24-1.44-5-1.81-7.39-3-10.47-5-11.63-23.32-23.22-24.49ZM266 358.07a89.61 89.61 0 0 1-18.39 70.24 46.3 46.3 0 0 1-8 8 31.64 31.64 0 0 1-13 5.82c-4.9 1-10.65.44-13.85-3.4a16.06 16.06 0 0 1-2.65-5.43 73.54 73.54 0 0 1-3.43-28.18 16.23 16.23 0 0 1 1.69-6.92c1.71-3 4.94-4.74 7.19-7.34 5.81-6.71 3.84-16.82 4.49-25.67.72-9.87 5.67-19.79 14.28-24.68s20.86-3.45 26.81 4.46c2.86 3.76 4.11 8.47 4.86 13.1ZM328 459.66c-1 13.29-6.06 25.89-11.07 38.24-4.67 11.51-9.46 23.17-17.06 33s-18.5 17.75-30.86 19c-6.48.66-13-.52-19.33-2a8.09 8.09 0 0 1-2.93-1.13c-1.51-1.09-2.07-3-2.43-4.87-4.69-23.49 9.78-49.33 32.26-57.6a16.62 16.62 0 0 0 4.41-2.06c2.89-2.2 3.63-6.16 4.46-9.7 3.07-13.07 11.31-25.91 24.08-30.09 4.4-1.44 9.59-1.66 13.35 1.05 4.79 3.5 5.57 10.27 5.12 16.16ZM275.57 670.24a55.66 55.66 0 0 0-7.48-1.19 54.22 54.22 0 0 0-11.53.23 19.79 19.79 0 0 1-3.9-1.68c-6.47-3.79-9.95-11.37-10.72-18.83-1.87-18.28 12.29-36.76 30.42-39.7 3.17-.52 6.65-.72 9-2.86 2-1.82 2.77-4.6 3.89-7.07 2.43-5.32 6.85-9.42 11.15-13.38 6.84-6.28 14.89-13 24.12-12.08 8.33.83 15 8.12 17.2 16.19s.76 16.7-1.72 24.7c-4.78 15.45-13.52 29.84-25.9 40.24a68 68 0 0 1-34.53 15.43Z" class="colorb5c66d svgShape"/><path fill="#b5c66d" d="M101 303.12c7.25 17.58 22.81 28.84 39.28 40.76 7.55 5.47 15.35 11.12 22.24 17.42 12.5 11.41 22.14 25.19 29.92 37.17a485.27 485.27 0 0 1 77.87 270.88c-.76-.09-1.48-.23-2.26-.3-1-.08-1.95-.07-2.93-.1a480 480 0 0 0-77-267.64c-7.61-11.71-17-25.16-29.07-36.18-6.67-6.09-14.35-11.65-21.78-17-16.33-11.83-33.22-24.06-41-43Z" class="colorb5c66d svgShape"/><path fill="#b5c66d" d="M183.28 528.12c-10.8.09-20.3-6.54-29.76-11.76s-21.36-9.15-30.74-3.8c-8.65 4.94-11.77 16.55-9.35 26.21s9.23 17.63 16.57 24.33c33.15 30 82.83 40.53 125.3 26.47 9.67-3.2 20.12-9 22.11-19 1.14-5.76-.87-11.66-3.28-17-5-11-11.95-21.44-21.65-28.7s-22.36-11.07-34.2-8.48c-12.06 2.66-22.61 11.61-35 11.73ZM137.21 601.27c5.16-5.66 13.41-7.39 21.07-7.2a55.6 55.6 0 0 1 37.1 15.71c8.32 8.16 14.89 19.5 26.19 22.36 3.26.83 6.7.85 10 1.71 4.67 1.23 8.71 4.11 12.63 6.94 10.64 7.67 22 16.51 26.22 28.57-.77-.1-1.5-.24-2.29-.31-15.46-1.29-27.61 3.61-36.25 11.79a38.55 38.55 0 0 1-3.47-2.29c-9.05-6.78-16.73-16.18-27.63-19.2-6.74-1.87-13.9-1-20.89-1.5a55.15 55.15 0 0 1-41.09-23.6c-6.73-9.82-9.58-24.19-1.59-32.98ZM147.44 407.7c5.33 3.49 11.87 6.68 17.85 4.48 3.05-1.12 5.49-3.51 8.5-4.71 3.89-1.54 8.3-.93 12.3.27a45.09 45.09 0 0 1 30 30.91c-11.57 4.3-20 14.46-31.18 19.76-13.34 6.35-29 5-43.49 2.15C130 458.28 118.55 455 109 448.39s-17.13-17-17.94-28.57 6.42-24 17.69-26.85c13.79-3.54 26.76 6.9 38.69 14.73ZM76.14 327a19.58 19.58 0 0 0-21.92 29.7c4.1 6.09 11.35 9.43 18.6 10.56s14.65.36 22-.15a288.8 288.8 0 0 1 61 2.29c1.88.28 3.91.54 5.56-.39a7.42 7.42 0 0 0 2.48-2.65 27.27 27.27 0 0 0-36-38.59c-2.78 1.49-5.27 3.44-8 5a33.17 33.17 0 0 1-30.34 1.11C85 331.72 81 328.49 76.14 327ZM103.35 237.2c6.49-.65 12.35 4.75 14.48 10.92s1.41 12.91.66 19.39l-2.88 25.05c-.54 4.73-1.15 9.65-3.78 13.61-5 7.46-15.92 9-24.14 5.45s-14.1-11-18.7-18.68c-4.76-8-7.65-20 .14-25.05 2.5-1.61 5.58-2 8.25-3.3 11.73-5.59 13.02-26.08 25.97-27.39Z" class="colorb5c66d svgShape"/><path fill="#899b4d" d="M150 666.81h787.37a8.74 8.74 0 0 1 8.71 8.71 8.74 8.74 0 0 1-8.71 8.72H150a8.74 8.74 0 0 1-8.71-8.72 8.74 8.74 0 0 1 8.71-8.71Z" class="color899b4d svgShape"/><path fill="#ffffff" d="M946 308.88a15.36 15.36 0 0 0-13.91-21.7 15.12 15.12 0 0 0-4.92.83 24.23 24.23 0 0 0-32-18.4A33.63 33.63 0 0 0 833 280a22.23 22.23 0 0 0-12.34-3.72 22.52 22.52 0 0 0-22.28 19.76 13.36 13.36 0 0 0-13.75.49 21.1 21.1 0 0 0-41.85-1.65 11.9 11.9 0 0 0-3.45-.51 12.17 12.17 0 0 0-12.13 12.21 12 12 0 0 0 .22 2.26ZM575.77 277a6.25 6.25 0 0 0-5.66-8.84 6.1 6.1 0 0 0-2 .34 9.9 9.9 0 0 0-9.7-8.08 9.74 9.74 0 0 0-3.34.59 13.69 13.69 0 0 0-25.3 4.24 9.13 9.13 0 0 0-14.1 6.54 5.44 5.44 0 0 0-5.6.2 8.59 8.59 0 0 0-17-.68 5 5 0 0 0-1.4-.2 5 5 0 0 0-4.94 5 5.62 5.62 0 0 0 .08.92ZM621.67 225.55a8.29 8.29 0 0 1 7.51-11.71 8.12 8.12 0 0 1 2.66.45 13.12 13.12 0 0 1 12.85-10.7 13 13 0 0 1 4.43.77 18.15 18.15 0 0 1 33.53 5.64 12 12 0 0 1 6.66-2 12.14 12.14 0 0 1 12 10.66 7.26 7.26 0 0 1 3.5-.9 7.14 7.14 0 0 1 3.92 1.17 11.39 11.39 0 0 1 22.59-.89 6.34 6.34 0 0 1 1.86-.28 6.57 6.57 0 0 1 6.54 6.59 6.08 6.08 0 0 1-.12 1.22Z" class="colorfff svgShape"/><path fill="#fbab49" d="M696.13 343.7 430.26 106.29 184.14 343.48l-12.12-12.58L429.81 82.47l277.95 248.21-11.63 13.02zM347.89 649.97H519.6v17.05H347.89z" class="colorfbab49 svgShape"/><path fill="#fbab49" d="M358.31 638.21H508.4v13.93H358.31z" class="colorfbab49 svgShape"/><path fill="#fbab49" d="M212.2 301.24h458.15v13.98H212.2z" transform="rotate(180 441.275 308.225)" class="colorfbab49 svgShape"/><path fill="#fbab49" d="M219.97 380.46h444.46v13.98H219.97z" transform="rotate(180 442.2 387.45)" class="colorfbab49 svgShape"/><path fill="#fbab49" d="M425.79 101.24h13.2v205.82h-13.2z" transform="rotate(180 432.39 204.15)" class="colorfbab49 svgShape"/><path fill="#fbab49" d="M641.13 304.23h24.85v361.94h-24.85z" transform="rotate(180 653.555 485.195)" class="colorfbab49 svgShape"/><path fill="#fbab49" d="M212.39 304.23h24.85v361.94h-24.85z" transform="rotate(180 224.82 485.195)" class="colorfbab49 svgShape"/><path fill="#fbab49" d="M363.07 304.23h24.85v361.94h-24.85z" transform="rotate(180 375.5 485.195)" class="colorfbab49 svgShape"/><path fill="#fbab49" d="M481.13 304.23h24.85v361.94h-24.85z" transform="rotate(180 493.555 485.195)" class="colorfbab49 svgShape"/><path fill="#fbab49" d="M375.5 458.79h118.06v16.31H375.5z" transform="rotate(180 434.53 466.94)" class="colorfbab49 svgShape"/><path fill="#fbab49" d="M227.15 592.38h144.46v13.2H227.15z" transform="rotate(180 299.385 598.98)" class="colorfbab49 svgShape"/><path fill="#fbab49" d="M499.77 592.38h144.46v13.2H499.77z" transform="rotate(180 572.005 598.98)" class="colorfbab49 svgShape"/><path fill="#f37977" d="M207.35 503.15h8.16v165.29h-8.16z" transform="rotate(180 211.43 585.795)" class="colorf37977 svgShape"/><path fill="#899b4d" d="M240.28 517.94h21.11v95.69h-21.11z" class="color899b4d svgShape"/><path fill="#899b4d" d="m248.85 484.9-5.4 10.22a3.44 3.44 0 0 0 1.43 4.64l13 6.85a3.44 3.44 0 0 0 4.64-1.44l5.85-11.07a21.11 21.11 0 1 1-19.49-9.2ZM198.44 536.99l-4.32-12.47 3.4-2.06 9.08 9.57.02 5.39-3.4 2.07-4.78-2.5z" class="color899b4d svgShape"/><path fill="#899b4d" d="M216.83 532.52h3.82v57.38h-3.82z" transform="rotate(148.71 218.74 561.208)" class="color899b4d svgShape"/><path fill="#516878" d="m228.44 590.5 11.84-7.19a2.16 2.16 0 0 0 .72-3 2.15 2.15 0 0 0-2.95-.72l-11.84 7.2a2.15 2.15 0 0 0-.72 2.95 2.15 2.15 0 0 0 2.95.76Z" class="color516878 svgShape"/><path fill="#516878" d="m229 587.67 8.57-5.21 2.56 1.77a15.77 15.77 0 0 1 4.48 4.76l11 18.1-13.1 7.91-11-18.1a15.65 15.65 0 0 1-2.16-6.17Z" class="color516878 svgShape"/><path fill="#f37977" d="M373.27 503.15h8.16v165.29h-8.16z" transform="rotate(180 377.35 585.795)" class="colorf37977 svgShape"/><path fill="#516878" d="M215.48 508.55h157.71v10.48H215.48z" transform="rotate(180 294.33 513.79)" class="color516878 svgShape"/><path fill="#516878" d="M331.3 537.05h15.14v127.74H331.3z" transform="rotate(-179.62 338.866 600.918)" class="color516878 svgShape"/><path fill="#899b4d" d="M309.19 527.73h60.96v20.58h-60.96z" transform="rotate(-179.62 339.673 538.02)" class="color899b4d svgShape"/><path fill="#516878" d="M245.55 563.2c.72 1.42 7.22-.44 14.52-4.15s12.64-7.87 11.91-9.29-7.22.44-14.52 4.15-12.63 7.87-11.91 9.29Z" class="color516878 svgShape"/><path fill="#516878" d="M270.96 554.29h4.17v60.55h-4.17z" transform="rotate(153.05 273.068 584.555)" class="color516878 svgShape"/><ellipse cx="287.05" cy="539.9" fill="#516878" rx="14.83" ry="2.88" transform="rotate(-4.85 287.129 540.148)" class="color516878 svgShape"/><path fill="#516878" d="M287.63 541.03h4.17v60.55h-4.17z" transform="rotate(175.15 289.733 571.296)" class="color516878 svgShape"/><path fill="#516878" d="M302.56 562.08c-.67 1.44 4.82 5.39 12.26 8.81s14 5 14.68 3.58-4.83-5.4-12.27-8.82-14.01-5.02-14.67-3.57Z" class="color516878 svgShape"/><path fill="#516878" d="M300.78 566.63h4.17v60.55h-4.17z" transform="rotate(-155.31 302.845 596.909)" class="color516878 svgShape"/><path fill="#f37977" d="M212.91 596.1h168.32v72.34H212.91z" transform="rotate(180 297.065 632.27)" class="colorf37977 svgShape"/><path fill="#f7a093" d="M516.09 397.81S551 423 551 428.92s-4.65 23.27-33.22 37.24l-3.6-6.56 20.53-27.3-23.27-15.87ZM440.13 397s-31.53 33.22-31.53 39.15 9.52 16.5 38.09 30.47l3.6-6.56-22-23.7 19.47-22ZM493.92 655.67l-.85-33.88 12.07-1.57.94 32.8-12.16 2.65z" class="colorf7a093 svgShape"/><path fill="#f37977" d="M493.78 653.11s-.91 8.17.47 14.69l36.44.66s2.37-7-5.83-8.85-18.69-8.35-18.69-8.35-7.47 6.18-12.39 1.85Z" class="colorf37977 svgShape"/><path fill="#f3edeb" d="m494.24 667.8 36.44.66a7.68 7.68 0 0 0 .17-3.66l-37.13-.66a17.75 17.75 0 0 0 .52 3.66Z" class="colorf3edeb svgShape"/><path fill="none" stroke="#303030" stroke-linecap="round" stroke-linejoin="round" stroke-width=".57" d="M505.19 653.92a5 5 0 0 1 1.22-1.63 5.2 5.2 0 0 1 2.75-.92 21.78 21.78 0 0 1 2.55-.13 5.42 5.42 0 0 1 3.2.76.9.9 0 0 1 .47.83.86.86 0 0 1-.52.52 4.18 4.18 0 0 1-2.38.06c-1.91-.33-3.81-.75-5.68-1.26a11.76 11.76 0 0 1 .3 3.13 6.34 6.34 0 0 1-.69 2.85 2.36 2.36 0 0 1-.84.93 1.24 1.24 0 0 1-1.22 0 1.29 1.29 0 0 1-.58-1.06 3.25 3.25 0 0 1 .21-1.23 17.47 17.47 0 0 1 1.21-2.85ZM530.85 664.8l-36.96-.67M493.7 656.41s9.15-.37 10.34 7.85M528.69 661.4h-9.23a22.27 22.27 0 0 0-10.81 2.86l-.14.08" class="colorStroke303030 svgStroke"/><path fill="none" stroke="#303030" stroke-linecap="round" stroke-linejoin="round" stroke-width=".57" d="m503.32 653.48 12.87 6.31 1.78-2.44" class="colorStroke303030 svgStroke"/><path fill="#f7a093" d="m451.87 655.67.85-33.88-12.06-1.57-.95 32.8 12.16 2.65z" class="colorf7a093 svgShape"/><path fill="#f37977" d="M452 653.11s.92 8.17-.46 14.69l-36.45.66s-2.37-7 5.84-8.85 18.69-8.35 18.69-8.35 7.48 6.18 12.38 1.85Z" class="colorf37977 svgShape"/><path fill="#f3edeb" d="m451.56 667.8-36.45.66a7.68 7.68 0 0 1-.17-3.66l37.14-.66a17.75 17.75 0 0 1-.52 3.66Z" class="colorf3edeb svgShape"/><path fill="none" stroke="#303030" stroke-linecap="round" stroke-linejoin="round" stroke-width=".57" d="M440.6 653.92a4.93 4.93 0 0 0-1.21-1.63 5.23 5.23 0 0 0-2.76-.92 21.67 21.67 0 0 0-2.55-.13 5.39 5.39 0 0 0-3.19.76c-.28.19-.55.5-.47.83a.82.82 0 0 0 .52.52 4.15 4.15 0 0 0 2.37.06q2.87-.49 5.69-1.26a12.19 12.19 0 0 0-.31 3.13 6.34 6.34 0 0 0 .69 2.85 2.38 2.38 0 0 0 .85.93 1.22 1.22 0 0 0 1.21 0A1.3 1.3 0 0 0 442 658a3.26 3.26 0 0 0-.22-1.23 16.65 16.65 0 0 0-1.18-2.85ZM414.94 664.8l36.97-.67M452.1 656.41s-9.15-.37-10.35 7.85M417.1 661.4h9.23a22.25 22.25 0 0 1 10.81 2.86l.15.08" class="colorStroke303030 svgStroke"/><path fill="none" stroke="#303030" stroke-linecap="round" stroke-linejoin="round" stroke-width=".57" d="m442.47 653.48-12.86 6.31-1.79-2.44" class="colorStroke303030 svgStroke"/><path fill="#f37977" d="M486 386.13s21.8.62 23.91 3 1.27 29.41-1.55 41.89l-1.19 31.65-55.17 3.49-5.93-45.07-11 12.27s-9.1-.85-15.45-14c0 0 13.45-19.48 20.07-25s27.55-9.27 27.55-9.27Z" class="colorf37977 svgShape"/><path fill="#899b4d" d="m451.59 454.47.6-5.24 6.15-35.55 44.63-.26 5.83 38.4 2.64 35v158.6l-19.59.53s-7-131.63-11.26-132.16-17.59 91.11-24.5 130.83c0 0-.79 4-19.86-.26 0 0 5.83-71 6.36-82.63s9-107.26 9-107.26Z" class="color899b4d svgShape"/><path fill="#f7a093" d="m486.58 367.7.46 16a2.6 2.6 0 0 0 2 2.48l.24.06s-7.19 10.35-23.88-.9l1.37-.3a3.28 3.28 0 0 0 2.58-3.11l.57-20Z" class="colorf7a093 svgShape"/><path fill="none" stroke="#026999" stroke-linecap="round" stroke-linejoin="round" stroke-width=".4" d="M451.39 458s39.73 2.78 57.6-1.79M450.8 463.87s41.05 3.18 58.53-.93" class="colorStroke026999 svgStroke"/><path fill="none" stroke="#026999" stroke-linecap="round" stroke-linejoin="round" stroke-width=".4" d="M449 483.8s10.72 1.59 16.29-18.87M511 483.4s-11.52-1.79-13.31-18.67M480.59 513.79l.79-48.6M487.48 465.19l-.93 33.5-5.56 4.64M464.1 417.65h35.56l.79 25.43-16.09 8.14-19.26-5.96-1-27.61z" class="colorStroke026999 svgStroke"/><path fill="#899b4d" d="m458.34 413.68-1.32-26.48 4.55-.98 1.64 27.81-4.87-.35zM502.97 413.42l-3.75-26.61-4.45-.32 3.5 27.29 4.7-.36z" class="color899b4d svgShape"/><path fill="#f7a093" d="m455.57 453 7.2-4.46 8.45.63s.57 2.71-7.34 1.61l-3.62 2.68 5.08-.69 5.7 3.8s-.85 1.11-3.1.62l1.66 2a5.31 5.31 0 0 1-4-.44l-3.6.25 4 1.84 2.14 2.59a4.39 4.39 0 0 1-3.71-.18 28.88 28.88 0 0 1-3.43-1.75l-6.16-2.5ZM508.89 452.54l-7.19-4.46-8.45.64s-.57 2.71 7.34 1.6l3.62 2.69-5.08-.7-5.7 3.8s.84 1.11 3.1.63l-1.66 2a5.31 5.31 0 0 0 4-.44l3.55.28-4 1.84-2.14 2.58a4.35 4.35 0 0 0 3.7-.19 26.92 26.92 0 0 0 3.52-1.71l6.12-2.54Z" class="colorf7a093 svgShape"/><path fill="#f37977" d="M509.58 388.92c5.93 2.12 26.19 23.28 26.19 23.28s-.64 12.27-11 17.56l-16.72-7.4Z" class="colorf37977 svgShape"/><path fill="#1e2236" d="M510 469.12s-21.15 8.46-60.09 3.17v-5.5s47.19 2.54 60.31-4Z" class="color1e2236 svgShape"/><path fill="#eaefb6" d="m475.74 458.64-.25-3.76-1.12-.17-1.33 3.53.6 1.42 1.12.16.98-1.18z" class="coloreaefb6 svgShape"/><path fill="#eaefb6" d="M472.54 459.07h1.09v16.38h-1.09z" transform="rotate(8.4 473.327 467.49)" class="coloreaefb6 svgShape"/><path fill="#fbab49" d="m473.79 476-3.91-.57a.62.62 0 0 1-.52-.7.61.61 0 0 1 .69-.52l3.92.58a.62.62 0 0 1 .52.7.62.62 0 0 1-.7.51Z" class="colorfbab49 svgShape"/><path fill="#fbab49" d="m473.34 475.36-2.84-.42-.47.75a4.37 4.37 0 0 0-.65 1.75l-.89 6 4.32.64.89-6a4.54 4.54 0 0 0-.12-1.87Z" class="colorfbab49 svgShape"/><path fill="#eaefb6" d="m464.15 474.44-.74-.16.69-3.29s.62.24.81-.66-.75-.93-.75-.93l.83-3.93.43.09 1.2 4.3-.78 3.66Z" class="coloreaefb6 svgShape"/><path fill="#eaefb6" d="M462.68 474.26h.76l.12-3.36s-.65.08-.62-.84a.75.75 0 0 1 .95-.73l.14-4h-.43l-2.2 3.88-.14 3.74Z" class="coloreaefb6 svgShape"/><path fill="#f37977" d="m465.61 474.44-4-.59a.52.52 0 0 0-.58.44.51.51 0 0 0 .43.58l4 .59a.53.53 0 0 0 .59-.44.52.52 0 0 0-.44-.58Z" class="colorf37977 svgShape"/><path fill="#f37977" d="M464.38 475.17s2.28 3.88 2.38 5.21-.52 7.74-1.24 9.17-2.34 2.47-3.06 2-.37-3.23.5-4.71 1.66-6.55 1.67-6.88-1.38-5-1.38-5Z" class="colorf37977 svgShape"/><path fill="#f37977" d="M462.57 474.9s-3.3 3.06-3.78 4.31-1.73 7.56-1.45 9.14 1.53 3 2.37 2.76 1.28-3 .87-4.66.3-6.75.38-7.07 2.77-4.41 2.77-4.41Z" class="colorf37977 svgShape"/><path fill="#eaefb6" d="M452.47 473.04h3.36v12.1h-3.36z" transform="rotate(2.97 454.6 479.597)" class="coloreaefb6 svgShape"/><path fill="#eaefb6" d="m455.05 467.81.77 1.67a.55.55 0 0 1-.26.73l-2.12 1a.54.54 0 0 1-.73-.27l-.84-1.81a3.41 3.41 0 0 0-.67 1.85 3.36 3.36 0 1 0 3.85-3.15Z" class="coloreaefb6 svgShape"/><path fill="#1e2236" d="M447.89 478.29h26.24v22.94a4.14 4.14 0 0 1-4.14 4.14H452a4.14 4.14 0 0 1-4.14-4.14v-22.94h.03Z" transform="rotate(5.59 461.038 491.92)" class="color1e2236 svgShape"/><path fill="#1e2236" d="m449.27 477.07.66-5.69 1.06.35-.49 6.49-1.23-1.15zM475.38 479.63l1.14-7.34-1.55-.07-1.2 7.9 1.61-.49z" class="color1e2236 svgShape"/><path fill="#f7a093" d="M442.74 464.6s6.78 3.44 8.93 3.14 11.7-7.57 11.7-7.57l-4.26-9.37-11.11 6.7-5.82 4.78ZM521.73 464.18s-6.78 3.44-8.93 3.14-11.7-7.57-11.7-7.57l4.26-9.37 11.13 6.7 5.82 4.77Z" class="colorf7a093 svgShape"/><path fill="#f58981" d="m487 381.68-.4-14-7.94-2.78h-2.56l-3.48 2.28-2.85 2.22-.07 2.3c2.12 3.24 8.01 10.55 17.3 9.98ZM491.47 355.86s1.9-2.07 3.27-1 1.8 5.47-2.34 6.56a10.85 10.85 0 0 1-.93-5.56Z" class="colorf58981 svgShape"/><path fill="#1e2236" d="M488.51 346.3s3 5.81 4.12 9c0 0-1.09-9.28-3-11.42s-1.12 2.42-1.12 2.42Z" class="color1e2236 svgShape"/><path fill="#d75150" d="M484.15 366.7a.14.14 0 0 1-.15 0 .87.87 0 0 1-.28-1c.06-.25.31-.34.5-.41l.17-.07.17-.08a3.13 3.13 0 0 0 .83-.51.91.91 0 0 0 .31-.92 1.45 1.45 0 0 0-.32-.44 9.4 9.4 0 0 1-2.42-5.14.14.14 0 0 1 .13-.17.15.15 0 0 1 .18.13 9 9 0 0 0 2.34 5 1.83 1.83 0 0 1 .39.55 1.24 1.24 0 0 1-.39 1.27 3.49 3.49 0 0 1-.92.56l-.16.08-.19.08c-.14 0-.29.1-.31.19a.56.56 0 0 0 .18.7.15.15 0 0 1 0 .22.1.1 0 0 1-.06-.04Z" class="colord75150 svgShape"/><path fill="#ffffff" d="M489.67 367.33s-7.32 2.28-12.22 2.39c0 0 4.21 3.59 7.86 2.93s4.36-5.32 4.36-5.32Z" class="colorfff svgShape"/><path fill="#1e2236" d="M492.59 333.83c.73 1.12.26 2.63.6 3.93.44 1.62 2.08 2.66 2.69 4.23 1 2.53-1.28 5.43-3.94 6-3.2.68-6.81-1-9.66.62-1.35.76-2.32 2.17-3.8 2.62s-3.23-.25-4.82-.68-3.65-.36-4.45 1.09a5 5 0 0 0-.15 3.12 17.93 17.93 0 0 1-1.73 10.39c-6.41-4.65-7.82-14-5.4-21.57.76-2.35 2-4.8 4.28-5.76 1.66-.7 3.71-.55 5-1.77a16 16 0 0 0 1.66-2.45 5.34 5.34 0 0 1 6.47-1.61c1.46.71 2.6 2.11 4.19 2.39s3.11-.62 4.61-1.21 3.56-.69 4.45.66Z" class="color1e2236 svgShape"/><path fill="#f7a093" d="M469.2 364s-1-4.42-5.12-1.6c-1.62 1.11-.36 6.1 4.84 5.5 0-.02 1.64-.9.28-3.9ZM847.73 656.03l.81-32.4-11.54-1.5-.9 31.37 11.63 2.53z" class="colorf7a093 svgShape"/><path fill="#f37977" d="M847.87 653.58s.87 7.81-.45 14l-34.85.63s-2.27-6.65 5.58-8.46 17.87-8 17.87-8 7.14 5.97 11.85 1.83Z" class="colorf37977 svgShape"/><path fill="#f3edeb" d="m847.43 667.63-34.85.63a7.41 7.41 0 0 1-.16-3.5l35.51-.63a17 17 0 0 1-.5 3.5Z" class="colorf3edeb svgShape"/><path fill="none" stroke="#303030" stroke-linecap="round" stroke-linejoin="round" stroke-width=".54" d="M837 654.35a4.72 4.72 0 0 0-1.16-1.56 4.94 4.94 0 0 0-2.63-.87 20 20 0 0 0-2.44-.13 5.27 5.27 0 0 0-3.06.72c-.26.19-.52.49-.45.8a.79.79 0 0 0 .5.49 4 4 0 0 0 2.27.07c1.83-.32 3.65-.72 5.44-1.21a11.16 11.16 0 0 0-.29 3 6 6 0 0 0 .66 2.73 2.29 2.29 0 0 0 .8.89 1.2 1.2 0 0 0 1.16 0 1.26 1.26 0 0 0 .57-1 3.47 3.47 0 0 0-.21-1.19 16.64 16.64 0 0 0-1.16-2.74ZM812.42 664.76l35.34-.64M848 656.73s-8.76-.35-9.9 7.51M814.48 661.5h8.83a21.12 21.12 0 0 1 10.33 2.73l.14.08" class="colorStroke303030 svgStroke"/><path fill="none" stroke="#303030" stroke-linecap="round" stroke-linejoin="round" stroke-width=".54" d="m838.74 653.93-12.3 6.04-1.71-2.34" class="colorStroke303030 svgStroke"/><path fill="#f7a093" d="m902.4 657.67-4.26-38.42-12.07 5.82 4.7 30.07 11.63 2.53z" class="colorf7a093 svgShape"/><path fill="#f37977" d="M902.53 655.22s.88 7.81-.44 14l-34.84.63s-2.26-6.64 5.58-8.46 17.86-8 17.86-8 7.15 5.97 11.84 1.83Z" class="colorf37977 svgShape"/><path fill="#f3edeb" d="m902.1 669.26-34.84.63a7.39 7.39 0 0 1-.16-3.5l35.5-.63a17 17 0 0 1-.5 3.5Z" class="colorf3edeb svgShape"/><path fill="none" stroke="#303030" stroke-linecap="round" stroke-linejoin="round" stroke-width=".54" d="M891.63 656a3.95 3.95 0 0 0-3.8-2.43 19.84 19.84 0 0 0-2.44-.13 5.26 5.26 0 0 0-3 .72c-.26.19-.52.49-.45.8a.79.79 0 0 0 .5.49 4 4 0 0 0 2.27.07q2.75-.48 5.43-1.21a11.59 11.59 0 0 0-.29 3 6.14 6.14 0 0 0 .66 2.73 2.29 2.29 0 0 0 .81.88 1.2 1.2 0 0 0 1.16.05 1.27 1.27 0 0 0 .56-1 3 3 0 0 0-.21-1.18 17.1 17.1 0 0 0-1.2-2.79ZM867.1 666.39l35.33-.64M902.62 658.37s-8.75-.35-9.89 7.5M869.17 663.14h8.82a21.37 21.37 0 0 1 10.33 2.73l.14.08" class="colorStroke303030 svgStroke"/><path fill="none" stroke="#303030" stroke-linecap="round" stroke-linejoin="round" stroke-width=".54" d="m893.41 655.57-12.29 6.03-1.71-2.33" class="colorStroke303030 svgStroke"/><path fill="#f7a093" d="M796.91 412.22s-.09-9.18-.19-10.7a38.26 38.26 0 0 1 1-8.1.94.94 0 0 0-1.09-1.14 2.7 2.7 0 0 0-1.69 1.55c-1 2.18-1.62 9.15-2.76 8.58s-6.29-5.54-6.29-5.54l-7.65 8s6.32 9 11.7 10.35l4.3 9.91 8-4.66Z" class="colorf7a093 svgShape"/><path fill="#f58981" d="M783 395.82a1.41 1.41 0 0 1 2 0l4.72 4.7a1.4 1.4 0 0 1 0 2 1.39 1.39 0 0 1-2 0l-4.72-4.7a1.39 1.39 0 0 1 0-2ZM781.29 398.28a1.39 1.39 0 0 1 2 0L788 403a1.4 1.4 0 0 1 0 2 1.39 1.39 0 0 1-2 0l-4.72-4.7a1.4 1.4 0 0 1 .01-2.02Z" class="colorf58981 svgShape"/><path fill="#f58981" d="M779.64 400.49a1.4 1.4 0 0 1 2 0l4.66 4.63a1.41 1.41 0 0 1 0 2 1.4 1.4 0 0 1-2 0l-4.65-4.64a1.39 1.39 0 0 1-.01-1.99Z" class="colorf58981 svgShape"/><path fill="#f58981" d="M778.22 402.93a1.39 1.39 0 0 1 2 0l3.8 3.79a1.4 1.4 0 0 1 0 2 1.4 1.4 0 0 1-2 0l-3.8-3.78a1.4 1.4 0 0 1 0-2.01Z" class="colorf58981 svgShape"/><path fill="#f7a093" d="M836.61 432.86s-10.45 27.14-20.89 25.26-24.89-41.6-24.89-41.6l6.08-4.3L815.15 437l10.06-16Z" class="colorf7a093 svgShape"/><path fill="none" stroke="#d75150" stroke-linecap="round" stroke-linejoin="round" stroke-width=".23" d="M815.15 437a20.71 20.71 0 0 1 3.51 5.79" class="colorStroked75150 svgStroke"/><path fill="#f7a093" d="m890 423.94 10.13 30.13s15.45 6.08 14.44-2.28-10.64-39.5-10.64-39.5Z" class="colorf7a093 svgShape"/><path fill="#ffffff" d="M855.27 398.29s-22.9 6.46-24.93 8.74-12.66 25.58-12.66 25.58 4.3 5.95 16.21 8.61l1.11 30.26h50.39l5.83-28.87 2.53 9.88s13.93 1.26 23.05-6.84c0 0-10.89-34.19-17.23-39.51s-26.33-8.86-26.33-8.86Z" class="colorfff svgShape"/><path fill="#516878" d="m888.21 463.63-5.07-1-1.39-38-42.67-.25-5.57 36.72-2.51 33.43v151.69l18.74.51s6.72-125.87 10.77-126.37 16.84 87.12 23.42 125.1c0 0 .76 3.8 19-.25 0 0-5.57-67.87-6.08-79s-8.64-102.58-8.64-102.58Z" class="color516878 svgShape"/><path fill="#f7a093" d="m854.75 380.66-.46 16.57a1.71 1.71 0 0 1-1.1 1.55l-1.16.44s7 9.06 22.93-1.71a4.83 4.83 0 0 1-3.81-4.59l-.51-17.82Z" class="colorf7a093 svgShape"/><path fill="#f37a71" d="M854.41 392.59s13-.16 16.26-13.61l-16.09 5.67Z" class="colorf37a71 svgShape"/><path fill="none" stroke="#fff" stroke-linecap="round" stroke-linejoin="round" stroke-width=".39" d="M888.4 467s-38 2.66-55.08-1.7M889 472.62s-39.26 3-56-.89" class="colorStrokefff svgStroke"/><path fill="none" stroke="#fff" stroke-linecap="round" stroke-linejoin="round" stroke-width=".39" d="M890.68 491.68s-10.26 1.52-15.58-18.05M831.42 491.3s11-1.71 12.72-17.86M860.48 520.36l-.76-46.47M853.89 473.89l.89 32.03 5.32 4.43M876.24 428.43h-34l-.76 24.31 15.39 7.79 18.42-5.7.95-26.4z" class="colorStrokefff svgStroke"/><path fill="#516878" d="m881.75 424.63 1.27-25.33-4.36-.93-1.56 26.59 4.65-.33zM839.08 424.38l3.16-22.26 4.28-1.42-2.95 24.02-4.49-.34z" class="color516878 svgShape"/><path fill="#fbab49" d="M830.74 491.09c-4-4 92.75-154.58 92.75-154.58h40.89l-92.75 156.08s-40.39-1-40.89-1.5Z" class="colorfbab49 svgShape"/><path d="M864.19 492.4c2.57-7.16 5.25-14.29 8.14-21.26 2.25-5.41 4.75-11.11 8.31-16.06a86.54 86.54 0 0 1 7.05-8.19 51.34 51.34 0 0 0 13.77-21.82c2.11-5.36 4.3-10.92 8.13-15.37a54.64 54.64 0 0 1 4.81-4.7 35.1 35.1 0 0 0 6.43-6.91c2-3.16 3-6.93 3.86-10.57a52.33 52.33 0 0 1 2.4-7.86c2.45-5.74 6.84-10.3 11.1-14.71a90.83 90.83 0 0 0 7.15-8c4.6-6.11 7.44-13.24 9.9-20.4h1c-2.51 7.35-5.4 14.68-10.16 21a90.13 90.13 0 0 1-7.22 8.13c-4.19 4.35-8.52 8.84-10.9 14.41a51.22 51.22 0 0 0-2.35 7.71c-.92 3.72-1.88 7.57-4 10.87a36 36 0 0 1-6.6 7.11 52.77 52.77 0 0 0-4.72 4.62c-3.72 4.32-5.88 9.79-8 15.08a70.59 70.59 0 0 1-5.57 11.92 69 69 0 0 1-8.4 10.21 85.67 85.67 0 0 0-7 8.1c-3.51 4.86-6 10.49-8.2 15.85-2.84 6.85-5.48 13.86-8 20.91ZM856.09 478.91c1.21-1.58 2.46-3.22 3.56-4.82a97.25 97.25 0 0 0 6.75-12.19c2.8-5.68 5.69-11.54 10-16.35.9-1 1.87-2 2.81-2.91a42.06 42.06 0 0 0 4.39-4.85c3.13-4.28 4.5-9.59 5.82-14.72a77.36 77.36 0 0 1 2.71-9c2.21-5.65 5.71-10.61 9.16-15.14a206.18 206.18 0 0 1 15.21-17.71l1-1a35.59 35.59 0 0 0 11-17.46c1.23-3.58 2.51-7.28 4.8-10.41a38.29 38.29 0 0 1 4.41-4.75 39.33 39.33 0 0 0 3.92-4.14 20.52 20.52 0 0 0 3.5-7h1a21.66 21.66 0 0 1-3.75 7.59 42.53 42.53 0 0 1-4 4.24 36.89 36.89 0 0 0-4.29 4.63c-2.2 3-3.46 6.62-4.67 10.13a49 49 0 0 1-3.5 8.41 48.36 48.36 0 0 1-7.72 9.42l-.95 1a204.56 204.56 0 0 0-15.14 17.63c-3.4 4.47-6.86 9.36-9 14.9a76.79 76.79 0 0 0-2.66 8.87c-1.35 5.22-2.74 10.62-6 15.06a43.49 43.49 0 0 1-4.5 5c-.93.93-1.89 1.88-2.77 2.87-4.2 4.7-7.07 10.51-9.84 16.12a98.69 98.69 0 0 1-6.81 12.31c-1.12 1.63-2.38 3.27-3.59 4.87-3 4-6.11 8.07-7.56 12.45h-1.05c1.41-4.66 4.61-8.91 7.76-13.05ZM845.14 480.34c1-1.34 2.07-2.73 3-4.1a69.78 69.78 0 0 0 5.43-10.74c2-4.66 4.1-9.48 7.42-13.46.73-.87 1.53-1.72 2.3-2.53a26.4 26.4 0 0 0 4.12-5.15 25.8 25.8 0 0 0 1.69-4.1c.23-.64.45-1.29.7-1.92a58.88 58.88 0 0 1 4.55-8.79c6.79-11.53 13.81-23.45 22.41-34.09l1.6-1.95a63.5 63.5 0 0 0 6.36-8.67c2.52-4.38 4-9.39 5.39-14.24 1.68-5.76 3.41-11.72 6.93-16.71.79-1.11 1.66-2.17 2.5-3.19a27.18 27.18 0 0 0 6.42-12.1l.69-2.09h1c-.27.78-.53 1.58-.79 2.39a28 28 0 0 1-6.6 12.43c-.83 1-1.69 2.06-2.45 3.14-3.43 4.85-5.14 10.73-6.79 16.41-1.43 4.9-2.91 10-5.48 14.46a65.5 65.5 0 0 1-6.46 8.8l-1.59 1.95c-8.56 10.58-15.56 22.47-22.33 34a58.41 58.41 0 0 0-4.48 8.64c-.25.62-.46 1.26-.69 1.89a26.42 26.42 0 0 1-1.75 4.25 26.83 26.83 0 0 1-4.28 5.35c-.76.81-1.55 1.64-2.26 2.49-3.22 3.87-5.28 8.62-7.27 13.21a70 70 0 0 1-5.5 10.9c-.93 1.39-2 2.8-3 4.16-2.59 3.41-5.22 6.91-6.09 10.69h-1c.85-4.11 3.61-7.77 6.3-11.33Z" style="mix-blend-mode:multiply" fill="#fbab49" class="colorfbab49 svgShape"/><path d="M923.83 357.45c-2.7 4.71-4.26 10-5.76 15.17a.52.52 0 0 1-.45.36.51.51 0 0 1-.48-.3c-3.51-8.1 2.36-16.83 5.05-20.2 1.3-1.64 2.73-3.23 4.11-4.77 3.08-3.44 6.2-7 8.14-11.2h1.11c-2 4.5-5.28 8.25-8.51 11.86-1.37 1.53-2.78 3.12-4.07 4.73-2.41 3-7.53 10.57-5.43 17.78A65 65 0 0 1 923 357a70.3 70.3 0 0 1 9-11.61l7.87-8.83h1.34L932.7 346a69.28 69.28 0 0 0-8.87 11.45Z" style="mix-blend-mode:multiply" fill="#fbab49" class="colorfbab49 svgShape"/><path fill="#f7a093" d="M914.55 451.79c.92 10-1.87 14.45-4.53 16.11s-13.63 4.49-31.58-41.38l6.11-3.12L910 452.28Z" class="colorf7a093 svgShape"/><path fill="#f7a093" d="M884.77 423.64s-1.08-7-1.34-8.53-3-5.84-2.68-8.85c.08-.67-.07-1.83-.73-1.73-1.08.17-1.16 1.65-1.45 2.6-.7 2.28 1.62 7.73.42 7.29s-6.87-4.81-6.87-4.81l-6.7 8.85s7.28 8.29 12.77 9l5.38 9.37 7.43-5.53Z" class="colorf7a093 svgShape"/><path fill="#f7a093" d="M869.09 408.9a1.4 1.4 0 0 1 2-.22l5.21 4.14a1.4 1.4 0 0 1 .22 2 1.41 1.41 0 0 1-2 .23l-5.21-4.15a1.4 1.4 0 0 1-.22-2ZM867.7 411.52a1.38 1.38 0 0 1 1.95-.22l5.22 4.15a1.4 1.4 0 0 1 .22 2 1.4 1.4 0 0 1-2 .22l-5.21-4.15a1.4 1.4 0 0 1-.18-2Z" class="colorf7a093 svgShape"/><path fill="#f7a093" d="M866.31 413.91a1.4 1.4 0 0 1 2-.22l5.14 4.09a1.4 1.4 0 0 1 .22 2 1.4 1.4 0 0 1-2 .22l-5.14-4.09a1.4 1.4 0 0 1-.22-2Z" class="colorf7a093 svgShape"/><path fill="#f7a093" d="M865.16 416.49a1.4 1.4 0 0 1 2-.22l4.2 3.33a1.4 1.4 0 0 1 .22 2 1.41 1.41 0 0 1-2 .23l-4.19-3.34a1.41 1.41 0 0 1-.23-2Z" class="colorf7a093 svgShape"/><path fill="#f58981" d="M848.11 366.77s-2-2-3.31-.88-1.54 5.53 2.63 6.43a10.74 10.74 0 0 0 .68-5.55Z" class="colorf58981 svgShape"/><path fill="#1e2236" d="M872.15 374.68s-2.94-5.17-1.53-14.16c0 0-3.66-2.06-6.31-2.28s-6.14 1.42-11.24.22a9.46 9.46 0 0 1-6.65-5.47 14.36 14.36 0 0 0 1.64.32 31.75 31.75 0 0 1-2.4-5.48s1.22.49 6.31.7a10.16 10.16 0 0 1-1.72-3.14 27.67 27.67 0 0 0 9 1.74c5.2.15 12 .42 14.71 3.19s2.79 3.23 2.79 3.23-.37-3.88-1.64-4.92c0 0 3.16 2.15 2.72 5.65a26.44 26.44 0 0 1 2.86 1.17c.95.52-2.46-.26-2.46-.26s4.21 10.45-5.33 22.11Z" class="color1e2236 svgShape"/><path fill="#1e2236" d="M876.77 353.55s-1.52-4.45-5.13-6.67-11.45-2.47-14.16-4.11a13.68 13.68 0 0 0 6 5.35 52.55 52.55 0 0 1 7.68 4.64ZM850.63 357.11s-2.69 5.93-3.7 9.17c0 0 .66-9.3 2.44-11.52s1.26 2.35 1.26 2.35Z" class="color1e2236 svgShape"/><path fill="#f7a093" d="M870.68 373.86s.83-4.45 5-1.83c1.66 1 .63 6.07-4.58 5.7.03 0-1.64-.79-.42-3.87Z" class="colorf7a093 svgShape"/><path fill="#d75150" d="M855.9 377.25a.15.15 0 0 0 .14 0 .86.86 0 0 0 .24-1 .67.67 0 0 0-.52-.39l-.17-.06-.17-.08a3.2 3.2 0 0 1-.86-.46.91.91 0 0 1-.34-.91 1.29 1.29 0 0 1 .29-.45 9.35 9.35 0 0 0 2.19-5.22.18.18 0 0 0-.15-.18.16.16 0 0 0-.17.15 9.08 9.08 0 0 1-2.11 5.05 1.74 1.74 0 0 0-.36.56 1.26 1.26 0 0 0 .44 1.25 3.62 3.62 0 0 0 .94.52l.17.07.2.07c.14 0 .29.09.31.18a.55.55 0 0 1-.15.7.17.17 0 0 0 0 .23.12.12 0 0 0 .08-.03Z" class="colord75150 svgShape"/><path fill="#ffffff" d="M850.42 378.13s7.4 1.94 12.29 1.82c0 0-4 3.77-7.7 3.29s-4.59-5.11-4.59-5.11Z" class="colorfff svgShape"/><path fill="#8c979f" d="m606.08 325.62 35.94.08.07 1.18-4.88 7.89 6.41 4.98.27 2.31-7.02 7.78 8.59 5.05.02.16-6.54 8.86 8.2 4.65.13 1.11-7.46 7.88 9.04 4.96.05.38-7.33 10.25 9.09 4.1.09.75-7.72 10.75 8.97 4.3-7.81 12.07 10.49 4.82.09.8-9.12 9.97 10.77 5.48-9.91 10.5 11.37 6.26-10.5 10.11 12.86 6.26-9.92 13.62 11.67 7.43-10.81 12.84 12.86 5.09-9.91 13.23 11.67 5.87-9.62 12.45 11.97 6.27-9.32 14 11.97 6.66-8.91 10.88 15.06 12.12v-.07l-.51 1.63-89.81-.21 19.45-275.5z" class="color8c979f svgShape"/><path fill="#f37977" d="M680.57 668.43a6.19 6.19 0 0 0 6.21-6.17l.12-54.72a6.19 6.19 0 0 0-6.17-6.2l-95.45-.22a6.19 6.19 0 0 0-6.2 6.18L579 662a6.19 6.19 0 0 0 6.18 6.2Zm-78.05-9.76c-5.49 0-10-5.32-10-10.81s4.52-10.77 10-10.76l57.91.14c5.49 0 10 5.31 10 10.8s-4.52 10.77-10 10.76Z" class="colorf37977 svgShape"/><path fill="#fbab49" d="M715.91 457.2h19.23v209.75h-19.23z" transform="rotate(180 725.96 561.51)" class="colorfbab49 svgShape"/><path fill="#b5c66d" d="M684.2 423.89h82.67v45H684.2z" transform="rotate(-.09 725.396 446.204)" class="colorb5c66d svgShape"/><path fill="#b5c66d" d="M763.99 432.78h9.81v27.08h-9.81z" transform="rotate(-.09 769.96 446.239)" class="colorb5c66d svgShape"/><path fill="#b5c66d" d="M777.29 422.57a4.72 4.72 0 0 1 4.72 4.7l.06 38.06a4.72 4.72 0 0 1-4.7 4.72 4.72 4.72 0 0 1-4.72-4.7l-.06-38.06a4.72 4.72 0 0 1 4.7-4.72ZM684.19 424s-32.44.83-32.37 44.39h3.93s11.74-16.5 29.41-10.64 5.07-23.16 5.07-23.16Z" class="colorb5c66d svgShape"/><path fill="#899b4d" d="M124.45 639.46c-1.57-2.88-2.73-6.14-2.3-9.39.62-4.74 4.56-8.48 8.94-10.41 10.43-4.59 23-.53 31.59 7s13.94 17.92 19.11 28.07l3 5.79c1.53 3 3.12 6.3 2.51 9.63s-4.55 6.17-7.41 4.37a57.27 57.27 0 0 0-41.7-27.52c-3.3-.41-6.81-.59-9.55-2.47a14 14 0 0 1-4.19-5.07Z" class="color899b4d svgShape"/><path fill="#899b4d" d="M144.65 580.71c-2-5.19-3-11.54.41-15.94 2.94-3.78 8.42-4.87 13.06-3.68s8.57 4.26 12 7.58c12.18 11.67 20.27 27.26 24.18 43.67s3.78 33.63 1 50.27c-.67 4-2.78 9.06-6.84 8.7q-7.15-17.87-14.33-35.74c-3.24-8.09-6.5-16.21-10.87-23.75-6.03-10.48-14.26-19.82-18.61-31.11Z" class="color899b4d svgShape"/><path fill="#899b4d" d="M191.37 666.27c4.08-8.77 8.63-17.7 16.12-23.81 2.89-2.35 6.36-4.29 10.09-4.27s7.62 2.52 8.19 6.2c.43 2.78-1.07 5.57-3.17 7.44a27.46 27.46 0 0 1-7.28 4.16c-5 2.24-9.93 4.72-13.77 8.57a22.12 22.12 0 0 1-4.4 4c-1.73 1-4.13 1.16-5.55-.23a1.56 1.56 0 0 1-.51-.87 2.13 2.13 0 0 1 .28-1.19Z" class="color899b4d svgShape"/><path fill="#f7a093" d="M393.35 147.36a101.91 101.91 0 0 1 4.46-11.36c.68-1.39 2.22 2.45 3.62 2.18s8.49-4.07 8.49-4.07l5.81 11s-9.57 7.89-15.73 7.65l-7.66 9.4-7.2-7.45ZM371.51 288.02l.13-43.35 12.13 1.71 1.14 39.27-13.4 2.37z" class="colorf7a093 svgShape"/><path fill="#ee3533" d="M371.47 285.21s-1.35 8.89-.13 16.07l39.77 2.3s2.9-7.49-6-9.91-20.05-9.94-20.05-9.94-8.41 6.43-13.59 1.48Z" class="coloree3533 svgShape"/><path fill="#ffffff" d="m371.33 301.28 39.77 2.3a8.4 8.4 0 0 0 .35-4l-40.53-2.33a19.86 19.86 0 0 0 .41 4.03Z" class="colorfff svgShape"/><path fill="none" stroke="#303030" stroke-linecap="round" stroke-linejoin="round" stroke-width=".62" d="M383.9 286.59a5.59 5.59 0 0 1 1.4-1.73 5.71 5.71 0 0 1 3-.88 26.16 26.16 0 0 1 2.8 0 5.91 5.91 0 0 1 3.45 1 1 1 0 0 1 .48.93.91.91 0 0 1-.59.54 4.6 4.6 0 0 1-2.6 0c-2.07-.45-4.13-1-6.15-1.63a12.74 12.74 0 0 1 .19 3.43 6.85 6.85 0 0 1-.87 3.08 2.47 2.47 0 0 1-1 1 1.35 1.35 0 0 1-1.32 0 1.44 1.44 0 0 1-.6-1.18 3.76 3.76 0 0 1 .29-1.35 19 19 0 0 1 1.52-3.21ZM411.45 299.59l-40.34-2.33M371.23 288.81s10 0 11 9M409.24 295.78l-10.08-.36a24.2 24.2 0 0 0-11.93 2.65l-.17.09" class="colorStroke303030 svgStroke"/><path fill="none" stroke="#303030" stroke-linecap="round" stroke-linejoin="round" stroke-width=".62" d="m381.88 286.03 13.77 7.45 2.06-2.59" class="colorStroke303030 svgStroke"/><path fill="#f7a093" d="m249.33 284.15 31.66-.92-13.21 13.47-22.94-.92 4.49-11.63z" class="colorf7a093 svgShape"/><path fill="#ee3533" d="M253.82 284.07a44 44 0 0 0-9.82-10.59l-30.26 25.91s3.1 7.4 11.18 3 21.34-6.74 21.34-6.74.24-9.26 7.56-11.58Z" class="coloree3533 svgShape"/><path fill="#ffffff" d="m244 273.47-30.25 25.92a8.37 8.37 0 0 0 2.51 3.11l30.82-26.42a18.6 18.6 0 0 0-3.08-2.61Z" class="colorfff svgShape"/><path fill="none" stroke="#303030" stroke-linecap="round" stroke-linejoin="round" stroke-width=".62" d="M245.17 292.76a5.59 5.59 0 0 1 .19 2.22 5.8 5.8 0 0 1-1.58 2.75 23.13 23.13 0 0 1-2 2 6 6 0 0 1-3.16 1.7 1 1 0 0 1-1-.34.87.87 0 0 1 .05-.8 4.46 4.46 0 0 1 1.89-1.78c1.8-1.12 3.66-2.15 5.56-3.1a12.67 12.67 0 0 1-2.52-2.33 7.07 7.07 0 0 1-1.51-2.83 2.55 2.55 0 0 1 0-1.37 1.37 1.37 0 0 1 1-.92 1.45 1.45 0 0 1 1.25.44 3.7 3.7 0 0 1 .72 1.17 18.68 18.68 0 0 1 1.11 3.19ZM216.3 302.5l30.69-26.28M252.76 282.39s-7.22 6.94-14.15 1.09M220.54 303.71l7.51-6.73a24.19 24.19 0 0 0 6.76-10.18l.06-.17" class="colorStroke303030 svgStroke"/><path fill="none" stroke="#303030" stroke-linecap="round" stroke-linejoin="round" stroke-width=".62" d="m247.01 291.77-15.09 4.18.32 3.29" class="colorStroke303030 svgStroke"/><path fill="#f7a093" d="M340.15 159.51s14.92 31.62 22.23 31.3c13.16-.59 38-38.46 38-38.46l-5.56-5.41-28.37 21.74-11.11-19.4Z" class="colorf7a093 svgShape"/><path fill="#516878" d="m311.78 113.59 17.84 4.68s10.24 7 17.26 11.41 16.86 32.56 16.86 32.56l-20.37 11.9s-6.15-14.92-7.32-14.92-9.36 24.27-9.36 24.27L275.46 197s1.51-76.1 7.36-78.74 28.96-4.67 28.96-4.67Z" class="color516878 svgShape"/><path fill="#899b4d" d="M330.5 199.29s-1.17-15.21 4.68-35.39l-42.43-17-21.92 49.49s-4.38 26.91-.58 34.51 33.63 44.1 33.63 44.1l-45.33 8.19v20.18s77.8-2.63 83.94-8.48 2.05-17.84-2.34-24.57-21.06-34.22-20.47-36 43.57-9.94 43.57-9.94l5.56 58.79h21.35s.59-79.85-6.14-85.4-53.52 1.52-53.52 1.52Z" class="color899b4d svgShape"/><path fill="none" stroke="#026999" stroke-linecap="round" stroke-linejoin="round" stroke-width=".38" d="m297.36 154.07 32.21 11.59-7.3 22.87-21.04 5.8-12.24-13.96 8.37-26.3z" class="colorStroke026999 svgStroke"/><path fill="#f7a093" d="M268.16 144s-20.68 46.34-10.73 48.09 52.92-2.58 52.92-2.58l.24-8.57-36-2.93 13.08-28Z" class="colorf7a093 svgShape"/><path fill="#516878" d="M282.82 118.27c-5.85 2.47-9.65 8.5-12.57 15.63s-9.17 18.72-9.17 18.72 6.65 8.86 23.83 8.86l9-22.1Z" class="color516878 svgShape"/><path fill="none" stroke="#026999" stroke-linecap="round" stroke-linejoin="round" stroke-width=".38" d="M330.5 199.29s-18.82 12.48-60.54 4.87M270.54 199.09s35.88 7 59.08-3.7M276.78 205.33s-2.34 17.16 4.48 26.71 33.15 43.29 32.76 47.38-54.59 8-54.59 8" class="colorStroke026999 svgStroke"/><path fill="none" stroke="#026999" stroke-linecap="round" stroke-linejoin="round" stroke-width=".38" d="M288.67 206.7s3.51 13.84-9.75 20.28M319.68 234.38s-5.66-24-9.75-28.66M316.36 204.55s6.24 15 6.63 20.09l-3.9 6.62" class="colorStroke026999 svgStroke"/><path fill="#516878" d="M405.93 117.71h5.16v43.52h-5.16z" transform="rotate(157.93 408.508 139.476)" class="color516878 svgShape"/><path fill="#899b4d" d="M390.2 116.06h20.77v7.01H390.2z" transform="rotate(157.93 400.578 119.567)" class="color899b4d svgShape"/><path fill="none" stroke="#026999" stroke-linecap="round" stroke-linejoin="round" stroke-width=".38" d="M323.77 202.6s5.46 3.51 15.79-4.29" class="colorStroke026999 svgStroke"/><path fill="#f7a093" d="m333.47 100.81-1.86 15.68a4.35 4.35 0 0 0 1.1 3.44l.82.9s-8.69 6.48-23.54-7l1.92-.42a3.93 3.93 0 0 0 3-3.17l3-17.52Z" class="colorf7a093 svgShape"/><path fill="#f37a71" d="M332 113.19s-13.42-2.14-14.74-16.52L333 105Z" class="colorf37a71 svgShape"/><path fill="#f58981" d="M340.86 88.57s2.2-1.79 3.41-.55 1 5.72-3.29 6.2a10.91 10.91 0 0 1-.12-5.65Z" class="colorf58981 svgShape"/><path fill="#1e2236" d="M339.3 78.6s2.11 6.24 2.8 9.6c0 0 .27-9.43-1.3-11.84s-1.5 2.24-1.5 2.24Z" class="color1e2236 svgShape"/><path fill="#d75150" d="M332 98.33a.2.2 0 0 1-.14-.06.88.88 0 0 1-.13-1.06c.1-.24.35-.29.56-.33h.35a3.13 3.13 0 0 0 .91-.39.91.91 0 0 0 .44-.88 1.3 1.3 0 0 0-.25-.48 9.54 9.54 0 0 1-1.74-5.62.16.16 0 0 1 .17-.15.15.15 0 0 1 .15.16 9.17 9.17 0 0 0 1.68 5.29 1.72 1.72 0 0 1 .31.6 1.27 1.27 0 0 1-.57 1.21 3.26 3.26 0 0 1-1 .43l-.18.06h-.2c-.15 0-.3.06-.34.15a.57.57 0 0 0 .08.72.17.17 0 0 1 0 .23Z" class="colord75150 svgShape"/><path fill="#ffffff" d="M337.39 99.76s-7.63 1.2-12.55.59c0 0 3.69 4.2 7.42 4.08s5.13-4.67 5.13-4.67Z" class="colorfff svgShape"/><path fill="#1e2236" d="M323.87 80.16s-4 11.11-8.48 13.94c0 0-3.42-2.64-4.29-9.56s12.77-4.38 12.77-4.38Z" class="color1e2236 svgShape"/><path fill="#f37977" d="M341.79 79.74s-1.2-15.74-18.46-13.82c-17.53 1.93-12.06 21.13-12.06 21.13s6.43-4.53 9.06-5.26 21.46-2.05 21.46-2.05Z" class="colorf37977 svgShape"/><path fill="#f7a093" d="M317.45 93.42s-.39-4.56-4.87-2.35c-1.78.88-1.25 6 4 6.2.02 0 1.78-.63.87-3.85Z" class="colorf7a093 svgShape"/><path fill="#f37977" d="M341.46 78.06s7.86 7.74 6.37 7c-14.7-7.09-19.23 3.8-22 1.9a52 52 0 0 1-6.58-6L332 78.5Z" class="colorf37977 svgShape"/><path fill="#899b4d" d="m292.64 147.52 5.83-32.61 5.71-.58-6.82 35.01-4.72-1.82zM335.18 163.9l9.21-35.83-4.39-2.92-9.5 38.31 4.68.44z" class="color899b4d svgShape"/><path fill="#f7a093" d="M396.3 140.31s1.37-4.73 2.68-6.29 6-3.32 6-3.32l5.41.35s.63 2.53-4.58 2.24l-3 2.34s-1 7.55-2.29 9.6-4.22-4.92-4.22-4.92Z" class="colorf7a093 svgShape"/><path fill="#f58981" d="M413.4 133.89a1.57 1.57 0 0 0-2.13-.6l-6.52 3.64a1.57 1.57 0 0 0-.61 2.13 1.57 1.57 0 0 0 2.13.6l6.53-3.66a1.57 1.57 0 0 0 .6-2.11ZM414.47 137.05a1.57 1.57 0 0 0-2.13-.6l-6.53 3.64a1.57 1.57 0 0 0-.6 2.13 1.57 1.57 0 0 0 2.13.6l6.52-3.64a1.57 1.57 0 0 0 .61-2.13Z" class="colorf58981 svgShape"/><path fill="#f58981" d="M415.57 139.94a1.57 1.57 0 0 0-2.13-.6l-6.44 3.59a1.57 1.57 0 0 0-.61 2.13 1.57 1.57 0 0 0 2.13.61l6.44-3.6a1.57 1.57 0 0 0 .61-2.13Z" class="colorf58981 svgShape"/><path fill="#f58981" d="M416.37 143a1.57 1.57 0 0 0-2.13-.61l-5.24 2.95a1.58 1.58 0 0 0-.61 2.13 1.57 1.57 0 0 0 2.13.6l5.26-2.93a1.57 1.57 0 0 0 .59-2.14Z" class="colorf58981 svgShape"/><path fill="#f7a093" d="M308.09 180.79a99.59 99.59 0 0 1 10.91-5.38c1.44-.56 0 3.3 1.2 4.05s9 2.71 9 2.71l-3.14 12.06s-12.36-.65-16.79-5l-12.81.58.52-9.16Z" class="colorf7a093 svgShape"/><path fill="#f7a093" d="M315 177.56s4.2-2.57 6.22-2.84 6.7 1.63 6.7 1.63l3.77 3.9s-1.24 2.3-4.9-1.43l-3.81-.31s-5.81 4.92-8.16 5.55.18-6.5.18-6.5Z" class="colorf7a093 svgShape"/><path fill="#516878" d="M338.87 171.84c-.2.39-2-.12-3.95-1.12s-3.43-2.14-3.23-2.53 2 .12 3.94 1.13 3.43 2.14 3.24 2.52Z" class="color516878 svgShape"/><path fill="#516878" d="M330.84 169.42h1.13v16.43h-1.13z" transform="rotate(26.96 331.366 177.6)" class="color516878 svgShape"/><path fill="#516878" d="M331.61 165.86c0 .43-1.86.63-4.08.44s-4-.69-3.94-1.12 1.86-.63 4.08-.44 3.98.69 3.94 1.12Z" class="color516878 svgShape"/><path fill="#516878" d="M326.31 165.82h1.13v16.43h-1.13z" transform="rotate(4.85 326.839 174.1)" class="color516878 svgShape"/><path fill="#516878" d="M323.39 171.54c.18.39-1.31 1.46-3.33 2.39s-3.8 1.36-4 1 1.31-1.46 3.33-2.39 3.82-1.4 4-1Z" class="color516878 svgShape"/><path fill="#516878" d="M322.74 172.77h1.13v16.43h-1.13z" transform="rotate(-24.69 323.387 181.02)" class="color516878 svgShape"/><path fill="#f7a093" d="M332 184.35a1.57 1.57 0 0 0-1.17-1.88l-7.27-1.71a1.56 1.56 0 0 0-1.88 1.17 1.57 1.57 0 0 0 1.16 1.88l7.28 1.7a1.56 1.56 0 0 0 1.88-1.16ZM330.64 187.4a1.58 1.58 0 0 0-1.17-1.88l-7.28-1.71a1.58 1.58 0 0 0-1.88 1.17 1.58 1.58 0 0 0 1.17 1.88l7.28 1.71a1.58 1.58 0 0 0 1.88-1.17Z" class="colorf7a093 svgShape"/><path fill="#f7a093" d="M329.5 190.28a1.57 1.57 0 0 0-1.17-1.88l-7.17-1.68a1.56 1.56 0 0 0-1.88 1.16 1.56 1.56 0 0 0 1.16 1.88l7.18 1.69a1.58 1.58 0 0 0 1.88-1.17Z" class="colorf7a093 svgShape"/><path fill="#f7a093" d="M328 193.08a1.56 1.56 0 0 0-1.16-1.88l-5.84-1.37a1.57 1.57 0 0 0-1.88 1.16 1.57 1.57 0 0 0 1.17 1.88l5.85 1.38a1.57 1.57 0 0 0 1.86-1.17Z" class="colorf7a093 svgShape"/></g></svg>