<svg xmlns="http://www.w3.org/2000/svg" enable-background="new 0 0 850 850" viewBox="0 0 850 850"><path fill="#6a6997" d="M662.8,156.9c1.1-2.8,1-7.4,1-7.5c0-0.3,0.2-0.5,0.5-0.5c0.3,0,0.5,0.2,0.5,0.5c0,0.2,0.1,4.7-1.1,7.8    L662.8,156.9z" class="color6a6997 svgShape"/><path fill="#5b2348" d="M372.1,401.9l-0.6-2.3l19.6-16.5c0,0-5.1-71.6-15.4-64.3l-38.3,68.5l-1.9,13l9.6,11.4L372.1,401.9z" class="color5b2348 svgShape"/><polygon fill="#5b2348" points="481.1 303.9 479.4 376.6 488.2 382.2 487.1 383.1 510.6 401.1 537.6 390 537.6 374.3" class="color5b2348 svgShape"/><path fill="#fcc0a9" d="M368.1,470.3c0,0,8.7-1.3,8.8-3.3c0.2-1.9-7.4-1.6-7.4-1.6L368.1,470.3z" class="colorfcc0a9 svgShape"/><path fill="#fcc0a9" d="M373.1,469.6c0,0,7.1-0.7,7.7-3.2c0.6-2.5-6.4-1.5-6.4-1.5L373.1,469.6z" class="colorfcc0a9 svgShape"/><path fill="#0a0a0c" d="M429.7,274.4c-1-14,0.7-55.9-17.1-50.8c-2.1-2.9-4.1-8.6-15.5-4.9c-12.5,4.1-27.7,19.5-25.7,27    c4.1,11.2,8.9,19.3,8.9,19.3L429.7,274.4z" class="color0a0a0c svgShape"/><polygon fill="#0743a2" points="394.6 465.4 487.4 457 495.4 709.4 477.3 709.4 452.5 496.7 432.6 498.9 395.5 709.4 378.6 709.4" class="color0743a2 svgShape"/><polygon fill="#5b2348" points="394.6 465.4 375.7 318.7 481.1 303.9 487.4 457" class="color5b2348 svgShape"/><path fill="#5b2348" d="M375.7,318.7l46.2-22.6l59.2,7.8C481.1,303.9,423.6,315.6,375.7,318.7z" class="color5b2348 svgShape"/><path fill="#0a0a0c" d="M395.5 709.4c0 0-21.7-24.8-33.5 0C362 709.4 363.4 713.1 395.5 709.4zM495.4 709.4c0 0-21.7-24.8-33.5 0C461.9 709.4 463.3 713.1 495.4 709.4z" class="color0a0a0c svgShape"/><path fill="#6a6997" d="M541.1,482.9c-17.1,0-23.3-15.3-29.2-30.2c-2.6-6.5-5.3-13.2-8.9-18.3c-11.2-15.9-29-5-29.8-4.5l-1.5-2.3    c0.2-0.1,20.8-12.8,33.5,5.2c3.8,5.3,6.5,12.2,9.2,18.9c6.2,15.4,12.1,30,29.4,28.3l0.3,2.7C543,482.8,542,482.9,541.1,482.9z" class="color6a6997 svgShape"/><path fill="#fcc0a9" d="M450.5,299.9l-28.6-3.7l-23.1,11.3c0,0,9.9,10.8,26.5,9.1S450.5,299.9,450.5,299.9z" class="colorfcc0a9 svgShape"/><path fill="#fc9a73" d="M428.4,267.1c0,0,6,29,17,32.1l-35.6,6.5l-3.6-9.5L428.4,267.1z" class="colorfc9a73 svgShape"/><path fill="#fcc0a9" d="M411.6,301.2c-8.7,2.1-18.4-8.5-21.7-13.4l-15.5-36.4l43-18.7c0,0,10.9,33.9,12.5,43.1    C431.5,285.1,419,299.4,411.6,301.2z" class="colorfcc0a9 svgShape"/><rect width="380" height="13.4" x="250.2" y="494" fill="#915d8e" class="color915d8e svgShape"/><rect width="10.9" height="204.2" x="269.9" y="506.9" fill="#bf97f7" class="colorbf97f7 svgShape"/><rect width="10.9" height="204.2" x="599.5" y="506.9" fill="#bf97f7" class="colorbf97f7 svgShape"/><rect width="324.2" height="50.2" x="278.3" y="506.9" fill="#bf97f7" class="colorbf97f7 svgShape"/><rect width="326.7" height="14.2" x="276.8" y="479.8" fill="#dfa054" class="colordfa054 svgShape"/><path fill="#b58537" d="M495.2,494h5.3c7-0.9,13.6-0.9,20.3-0.1c0.4,0,0.8,0.1,1.2,0.1h8.5c-3.2-0.3-6.4-0.6-9.6-1    C512.5,492.1,504.2,492.4,495.2,494z" class="colorb58537 svgShape"/><path fill="#fcc0a9" d="M445.1,414.2c0,0-8.7,1-10.9,2.5c-2.2,1.5-5.7,8-4.6,8.5c1.1,0.6,14.6-3.6,14.6-3.6L445.1,414.2z" class="colorfcc0a9 svgShape"/><path fill="#915d8e" d="M408.2,435.1c0,0-1-3.8,1.8-6.8c2.8-3,5.9-1.7,5.9-1.7L408.2,435.1z" class="color915d8e svgShape"/><rect width="10.4" height="4.5" x="379.2" y="460.1" fill="#a77da5" transform="rotate(-31.872 384.393 462.353)" class="colora77da5 svgShape"/><polygon fill="#a77da5" points="398.7 457.8 394.7 459.2 399.2 475.5 406 475.5" class="colora77da5 svgShape"/><path fill="#383774" d="M442.8,450.8c0,0,12.2-15.5,29.7-23.7c0,0,2.3,0.3,2.3,2.7c0,0-18.1,16.2-20.2,25.8L442.8,450.8z" class="color383774 svgShape"/><polygon fill="#6a6997" points="460.7 480 369.3 480 376.3 475.5 460.7 475.5" class="color6a6997 svgShape"/><rect width="41.9" height="7.9" x="376" y="480" fill="#6a6997" class="color6a6997 svgShape"/><path fill="#383774" d="M376.3,475.5v-4.2c0,0,6.1-9.1,19.7-13.5c0,0,0.4,9.2,6.1,17.7H376.3z" class="color383774 svgShape"/><path fill="#6a6997" d="M403.6,475.5c0,0-5.9-7.8-7.1-24.3c-0.3-3.8,2.1-7.3,5.7-8.4c3.7-1.2,9.7-2.6,19.1-3.8    c0.3,0.7,40.5,15.8,41.2,19.7c0.8,4.6,0.1,10-5.1,16.8c-1.3,0-29.9,3.3-45.4,3.3C404.8,478.8,403.6,475.5,403.6,475.5z" class="color6a6997 svgShape"/><path fill="#a77da5" d="M402.7,442.6c0,0,9.3-22.2,33-24.2c20-1.6,38.3,20.5,36.8,23.3c-4.6,5-19.9-14-36.5-13.5    c-1.4,0.4-14.5,6.3-14.7,10.7C421.3,439,407.8,443.6,402.7,442.6z" class="colora77da5 svgShape"/><circle cx="408.5" cy="452.4" r="5.2" fill="#ffffff" class="colorfff svgShape"/><path fill="#ffffff" d="M402.8 463.7c-.2 2.5 5.2 12.4 6.8 12.4 11 .4 39.4-5.8 39.4-5.8s3.3-9.6 2-10.4C449.7 459.1 403 461.3 402.8 463.7zM421.3 450.9c0 1.1-.9 1.9-1.9 1.9-1.1 0-1.9-.9-1.9-1.9 0-1.1.9-1.9 1.9-1.9C420.4 448.9 421.3 449.8 421.3 450.9z" class="colorfff svgShape"/><path fill="#a77da5" d="M389.4,454.5c0.9,1.3-1.8,4.5-5.8,7.2c-4.1,2.7-8.1,3.8-8.9,2.5c-0.9-1.3,1.8-4.5,5.8-7.2    C384.6,454.3,388.6,453.2,389.4,454.5z" class="colora77da5 svgShape"/><path fill="#ff681d" d="M460.4,470.6c-2.9,1.3-10.3,4.5-21,6.5c9.5-0.8,17.2-1.7,17.9-1.7C458.6,473.8,459.6,472.2,460.4,470.6z" class="colorff681d svgShape"/><path fill="#ffffff" d="M381.6,475.4v-2.9c0,0,3.5-4.4,11.1-7.2c0,0,1.2,6.5,3.9,10.2H381.6z" class="colorfff svgShape"/><polygon fill="#fcc0a9" points="445.1 414.2 456.1 410.6 487.1 383.1 510.6 401.1 458.3 422.5" class="colorfcc0a9 svgShape"/><path fill="#0a0a0c" d="M376.2,248.9c0,0,15.3,8.3,28.2-10.8L376.2,248.9z" class="color0a0a0c svgShape"/><path fill="#0a0a0c" d="M402,241.4c0,0,7-8.6,12.8,4.2c4.3,9.4,6.4,17.3,6.4,17.3l5.3-3.3l-7.6-27.2l-15.9,0.5L402,241.4z" class="color0a0a0c svgShape"/><path fill="#fcc0a9" d="M434.6,258.7c1.3,5-1.9,10.1-5,10.9c-3.1,0.8-5-3.1-6.3-8.1c-1.3-5,0.3-9.7,3.4-10.5    C429.8,250.3,433.3,253.7,434.6,258.7z" class="colorfcc0a9 svgShape"/><path fill="#0a0a0c" d="M378.8,232.8c0,0-7.7,1.9-10.6,1.2c0,0,1.9,2.7,4,4.1c0,0-6.8,2.8-10.6,1.5c0,0,4.1,8,18.1,10.6L378.8,232.8z    " class="color0a0a0c svgShape"/><path fill="#0a0a0c" d="M378.6,249.8c0,0-4.4,2,1.8,15.3c0,0-6.8-12.2-6.2-16.5L378.6,249.8z" class="color0a0a0c svgShape"/><path fill="#fcc0a9" d="M388.5 447.8c0 0 1.5 6.6-.2 11.1 0 0-5.3 4.5-6.3 4.4-1-.1-3.4-1.1 2-5.5 0 0 .7-1.5.4-3.2L388.5 447.8zM378.2 461.2c0 0-1.3 7.7-4.6 8.4-2.8.6-.7-6.4-.7-6.4L378.2 461.2z" class="colorfcc0a9 svgShape"/><path fill="#fcc0a9" d="M372.2,463.3c0,0-0.5,6.5-3.8,7s0-8.5,0-8.5L372.2,463.3z" class="colorfcc0a9 svgShape"/><path fill="#fcc0a9" d="M370.7,442c3.1,7.5-1.8,15.9-2.3,19.7c0.7,0.8,1.8,1.3,3.8,1.6c2-0.3,4-1,5.9-2.1c1.6-1.6,6.1-10,6.3-5    c2.5-2.7,4.3-5.8,4.2-7.8c-0.2-3.6-4.7-5.4-7.4-12.7C379.8,434.5,372.5,435.9,370.7,442z" class="colorfcc0a9 svgShape"/><polygon fill="#fcc0a9" points="345 411.7 372.1 401.9 382.1 438.6 371.1 442.8" class="colorfcc0a9 svgShape"/><path fill="#fcc0a9" d="M433.9 429.8c0 0 .5 6.4 2.3 7.1 1.8.7 3.2-3.6 3.2-3.6L433.9 429.8zM439.6 433.4c0 0-.9 5.6 1.7 5.6 2.6 0 3.9-4.6 3.9-4.6L439.6 433.4zM445.2 434.8c0 0-1.5 5.4 1 5.4 2.5 0 4.2-4.5 4.2-4.5L445.2 434.8zM450.6 436.2c0 0-1.5 4.1.6 4 2-.1 5-4 5-4H450.6z" class="colorfcc0a9 svgShape"/><path fill="#fcc0a9" d="M445.1,414.2c0,0-15.4,14.4-9.9,17.7c5.5,3.3,17,6.1,20.5,4.6c3.5-1.5,6.4-15.7,5-19.8    C458.6,410.9,445.1,414.2,445.1,414.2z" class="colorfcc0a9 svgShape"/><polygon fill="#a77da5" points="123.1 711.1 133.7 711.1 135.5 707.2 238.3 707.2 239.7 711.1 250.2 711.1 250.2 536.5 123.1 536.5" class="colora77da5 svgShape"/><rect width="132.8" height="13.5" x="120.2" y="536.5" fill="#383774" class="color383774 svgShape"/><rect width="105.3" height="65.7" x="134" y="559.1" fill="#383774" class="color383774 svgShape"/><rect width="105.3" height="65.7" x="134" y="629.5" fill="#383774" class="color383774 svgShape"/><path fill="#bf97f7" d="M656.5,138.9h2.7c-3.3,13.2,7.1,12,5.9,5.1h0.7c0,0,1,6.7-3.6,6.8C655,151,656.5,138.9,656.5,138.9z" class="colorbf97f7 svgShape"/><path fill="#915d8e" d="M669.5,238l-2.9,0.1c-2.3,0.1-4.3-2.2-4.4-5.1l-1.4-38.6l7.1-0.3L669.5,238z" class="color915d8e svgShape"/><polygon fill="#a77da5" points="682.2 238 669.4 236.4 667.9 195.5 680.6 193.6" class="colora77da5 svgShape"/><path fill="#ffffff" d="M679.4 197.7c0 0-8.2.6-8.1 1.2.2.5 8.1.3 8.1.3L679.4 197.7zM680.1 215.8c0 0-8.2.6-8.1 1.2.2.5 8.1.3 8.1.3L680.1 215.8zM680.2 220.6c0 0-8.2.2-8.1.8.2.5 8.1.7 8.1.7L680.2 220.6zM680.7 233c0 0-8.2-.3-8.1.2.2.5 8.1 1.2 8.1 1.2L680.7 233zM679.6 202.5c0 0-5.8.6-5.7 1.1.2.5 5.7.3 5.7.3L679.6 202.5zM680.5 228.5c0 0-5.8 0-5.7.6.2.5 5.7.9 5.7.9L680.5 228.5z" class="colorfff svgShape"/><path fill="#915d8e" d="M666.5,155.7c0-1.2-0.5-2.4-1.4-3.2c-0.9-0.8-2-1.3-3.3-1.2c-1.2,0-2.4,0.6-3.2,1.5s-1.2,2.1-1.1,3.3     l3.3,39.7l6-0.2L666.5,155.7z M662.4,162.8c-0.8,0.1-1.5-1.1-1.6-2.7c-0.1-1.5,0.4-2.8,1.2-2.9c0.8-0.1,1.5,1.1,1.6,2.7     C663.7,161.4,663.2,162.7,662.4,162.8z" class="color915d8e svgShape"/><path fill="#6a6997" d="M660.5,149.1c0.2-0.5,0.6-0.9,1.1-1.1c0.9-0.1,1.5-0.1,1.8,0.5c0,0,0,0,0,0c0.3-0.2,0.5-0.4,0.7-0.6    c-0.8-1.1-2.1-0.9-2.8-0.8c-0.9,0.3-1.5,0.8-1.9,1.6c-1.3,3.2,2.5,9.5,2.6,9.8c0.1,0.2,0.3,0.2,0.4,0.2c0.1,0,0.2,0,0.3-0.1    c0.2-0.1,0.3-0.4,0.2-0.7C662.1,156.4,659.6,151.4,660.5,149.1z" class="color6a6997 svgShape"/><polygon fill="#a77da5" points="767.3 477.6 760.4 477.6 751.8 679 758.6 679" class="colora77da5 svgShape"/><polygon fill="#915d8e" points="768.6 497.7 757.4 497.7 759 460.7 770.1 460.7" class="color915d8e svgShape"/><polygon fill="#915d8e" points="768.2 506.5 757 506.5 757.2 501.6 768.4 501.6" class="color915d8e svgShape"/><polygon fill="#6a6997" points="759.7 681.4 750.4 681.4 751.1 666.5 760.4 666.5" class="color6a6997 svgShape"/><path fill="#bf97f7" d="M703.5,695c0,0,34.3-16,58.1-12.7c3.3,2.3,4.3,12,3.6,14.3c-1.4,5.3-13.3,12.9-13.3,12.9L703.5,695z" class="colorbf97f7 svgShape"/><path fill="#bf97f7" d="M703.5,695c0,0,26.6-18.9,50.4-15.7c23.8,3.3-2,30.1-2,30.1L703.5,695z" class="colorbf97f7 svgShape"/><rect width="108.1" height="15" x="131.2" y="521.5" fill="#a77da5" class="colora77da5 svgShape"/><rect width="210.8" height="193.7" x="79.9" y="141.2" fill="#383774" class="color383774 svgShape"/><rect width="96.5" height="186.2" x="87.3" y="141.2" fill="#6a6997" class="color6a6997 svgShape"/><rect width="96.5" height="186.2" x="191.7" y="141.2" fill="#6a6997" class="color6a6997 svgShape"/></svg>